STARTFONT 2.1
COMMENT
COMMENT Converted from OpenType font "arialbd.ttf" by "otf2bdf 3.0".
COMMENT
FONT -FreeType-Arial-Bold-R-Normal--19-140-100-100-P-100-ISO10646-1
SIZE 14 100 100
FONTBOUNDINGBOX 34 29 -9 -8
STARTPROPERTIES 19
FOUNDRY "FreeType"
FAMILY_NAME "Arial"
WEIGHT_NAME "Bold"
SLANT "R"
SETWIDTH_NAME "Normal"
ADD_STYLE_NAME ""
PIXEL_SIZE 19
POINT_SIZE 140
RESOLUTION_X 100
RESOLUTION_Y 100
SPACING "P"
AVERAGE_WIDTH 100
CHARSET_REGISTRY "ISO10646"
CHARSET_ENCODING "1"
FONT_ASCENT 17
FONT_DESCENT 4
COPYRIGHT "© 2010 The Monotype Corporation. All Rights Reserved."
_OTF_FONTFILE "arialbd.ttf"
_OTF_PSNAME "Arial-BoldMT"
ENDPROPERTIES
CHARS 2815
STARTCHAR 0020
ENCODING 32
SWIDTH 257 0
DWIDTH 5 0
BBX 0 0 0 0
BITMAP
ENDCHAR
STARTCHAR 0021
ENCODING 33
SWIDTH 308 0
DWIDTH 6 0
BBX 3 14 2 0
BITMAP
E0
E0
E0
C0
C0
C0
C0
C0
C0
C0
00
C0
C0
C0
ENDCHAR
STARTCHAR 0022
ENCODING 34
SWIDTH 462 0
DWIDTH 9 0
BBX 7 5 1 9
BITMAP
EE
EE
EE
EE
E6
ENDCHAR
STARTCHAR 0023
ENCODING 35
SWIDTH 565 0
DWIDTH 11 0
BBX 10 14 0 0
BITMAP
1CC0
19C0
1980
FFC0
FFC0
3980
3300
3300
FFC0
FFC0
7300
6600
6600
6600
ENDCHAR
STARTCHAR 0024
ENCODING 36
SWIDTH 565 0
DWIDTH 11 0
BBX 9 17 1 -2
BITMAP
0800
3C00
7E00
EF00
CB00
E800
F800
7E00
3F00
0F80
0B80
CB80
EB00
7F00
3C00
0800
0800
ENDCHAR
STARTCHAR 0025
ENCODING 37
SWIDTH 874 0
DWIDTH 17 0
BBX 15 15 1 -1
BITMAP
7830
D860
CC60
CCC0
CCC0
C980
7980
0300
033C
0266
0666
0466
0C66
0C66
183C
ENDCHAR
STARTCHAR 0026
ENCODING 38
SWIDTH 720 0
DWIDTH 14 0
BBX 12 14 1 0
BITMAP
1F00
3F80
3180
3180
3B80
1F00
3E00
7E00
E760
E3E0
E1C0
E3E0
7FF0
3E20
ENDCHAR
STARTCHAR 0027
ENCODING 39
SWIDTH 257 0
DWIDTH 5 0
BBX 3 5 1 9
BITMAP
E0
E0
E0
E0
C0
ENDCHAR
STARTCHAR 0028
ENCODING 40
SWIDTH 308 0
DWIDTH 6 0
BBX 4 18 1 -4
BITMAP
10
30
30
60
60
E0
E0
E0
C0
C0
E0
E0
E0
60
60
30
30
10
ENDCHAR
STARTCHAR 0029
ENCODING 41
SWIDTH 308 0
DWIDTH 6 0
BBX 4 18 1 -4
BITMAP
C0
C0
60
60
70
30
30
30
30
30
30
30
30
70
60
60
C0
C0
ENDCHAR
STARTCHAR 002A
ENCODING 42
SWIDTH 360 0
DWIDTH 7 0
BBX 7 7 0 7
BITMAP
10
56
FE
38
38
6C
28
ENDCHAR
STARTCHAR 002B
ENCODING 43
SWIDTH 565 0
DWIDTH 11 0
BBX 9 11 1 2
BITMAP
1C00
1C00
1C00
1C00
FF80
FF80
FF80
1C00
1C00
1C00
1C00
ENDCHAR
STARTCHAR 002C
ENCODING 44
SWIDTH 257 0
DWIDTH 5 0
BBX 3 6 1 -3
BITMAP
E0
E0
E0
20
40
C0
ENDCHAR
STARTCHAR 002D
ENCODING 45
SWIDTH 308 0
DWIDTH 6 0
BBX 5 3 1 4
BITMAP
F8
F8
F8
ENDCHAR
STARTCHAR 002E
ENCODING 46
SWIDTH 257 0
DWIDTH 5 0
BBX 3 3 1 0
BITMAP
E0
E0
E0
ENDCHAR
STARTCHAR 002F
ENCODING 47
SWIDTH 257 0
DWIDTH 5 0
BBX 5 14 0 0
BITMAP
18
18
18
30
30
30
30
20
60
60
60
40
C0
C0
ENDCHAR
STARTCHAR 0030
ENCODING 48
SWIDTH 565 0
DWIDTH 11 0
BBX 9 14 1 0
BITMAP
3C00
7E00
E700
E300
E300
E380
E380
E380
E380
E300
E300
E700
7E00
3C00
ENDCHAR
STARTCHAR 0031
ENCODING 49
SWIDTH 565 0
DWIDTH 11 0
BBX 6 14 1 0
BITMAP
0C
1C
3C
FC
EC
CC
0C
0C
0C
0C
0C
0C
0C
0C
ENDCHAR
STARTCHAR 0032
ENCODING 50
SWIDTH 565 0
DWIDTH 11 0
BBX 9 14 1 0
BITMAP
3E00
7F00
E300
C380
0380
0700
0700
0E00
1E00
3C00
7800
F000
FF80
FF80
ENDCHAR
STARTCHAR 0033
ENCODING 51
SWIDTH 565 0
DWIDTH 11 0
BBX 9 14 1 0
BITMAP
3C00
7E00
E700
C300
0700
1E00
1E00
0700
0380
0380
C380
E700
7F00
3C00
ENDCHAR
STARTCHAR 0034
ENCODING 52
SWIDTH 565 0
DWIDTH 11 0
BBX 10 14 0 0
BITMAP
0300
0700
0700
0F00
1F00
1B00
3300
7300
6300
FFC0
FFC0
0300
0300
0300
ENDCHAR
STARTCHAR 0035
ENCODING 53
SWIDTH 565 0
DWIDTH 11 0
BBX 9 14 1 0
BITMAP
7F00
7F00
6000
6000
7E00
FF00
E380
0380
0380
0380
E380
E300
7F00
3C00
ENDCHAR
STARTCHAR 0036
ENCODING 54
SWIDTH 565 0
DWIDTH 11 0
BBX 9 14 1 0
BITMAP
1E00
7F00
6380
E000
FE00
FF00
E300
E380
E380
E380
E380
7300
7F00
3E00
ENDCHAR
STARTCHAR 0037
ENCODING 55
SWIDTH 565 0
DWIDTH 11 0
BBX 9 14 1 0
BITMAP
FF80
FF80
0700
0700
0E00
0C00
1C00
1800
1800
3800
3800
3000
3000
3000
ENDCHAR
STARTCHAR 0038
ENCODING 56
SWIDTH 565 0
DWIDTH 11 0
BBX 9 14 1 0
BITMAP
3C00
7F00
E700
E300
E300
E700
7E00
7E00
E300
C380
C380
E300
7F00
3E00
ENDCHAR
STARTCHAR 0039
ENCODING 57
SWIDTH 565 0
DWIDTH 11 0
BBX 9 14 1 0
BITMAP
3C00
7E00
E700
C300
C380
C380
C380
E780
7F80
3B00
0300
E700
FE00
7C00
ENDCHAR
STARTCHAR 003A
ENCODING 58
SWIDTH 308 0
DWIDTH 6 0
BBX 2 11 2 0
BITMAP
C0
C0
C0
00
00
00
00
00
C0
C0
C0
ENDCHAR
STARTCHAR 003B
ENCODING 59
SWIDTH 308 0
DWIDTH 6 0
BBX 2 14 2 -3
BITMAP
C0
C0
C0
00
00
00
00
00
C0
C0
C0
40
C0
80
ENDCHAR
STARTCHAR 003C
ENCODING 60
SWIDTH 565 0
DWIDTH 11 0
BBX 9 10 1 2
BITMAP
0080
0380
1F80
7F00
F000
F000
7F00
1F80
0380
0080
ENDCHAR
STARTCHAR 003D
ENCODING 61
SWIDTH 565 0
DWIDTH 11 0
BBX 9 8 1 3
BITMAP
FF80
FF80
FF80
0000
0000
FF80
FF80
FF80
ENDCHAR
STARTCHAR 003E
ENCODING 62
SWIDTH 565 0
DWIDTH 11 0
BBX 9 10 1 2
BITMAP
8000
E000
FC00
3F00
0780
0780
7F00
FC00
E000
8000
ENDCHAR
STARTCHAR 003F
ENCODING 63
SWIDTH 617 0
DWIDTH 12 0
BBX 10 14 1 0
BITMAP
3E00
7F80
E180
E1C0
01C0
0380
0700
0E00
0C00
0C00
0000
0C00
0C00
0C00
ENDCHAR
STARTCHAR 0040
ENCODING 64
SWIDTH 977 0
DWIDTH 19 0
BBX 17 18 1 -4
BITMAP
03F000
0FFC00
3C0E00
73DB00
67F900
CE7980
CC3980
DC3180
9C3180
983180
9C7300
DCF700
CFFE00
E77800
700180
3C0700
1FFE00
07F800
ENDCHAR
STARTCHAR 0041
ENCODING 65
SWIDTH 720 0
DWIDTH 14 0
BBX 13 14 0 0
BITMAP
0700
0780
0F80
0FC0
0DC0
1CC0
18E0
38E0
3FF0
3FF0
7FF0
7038
6038
E038
ENDCHAR
STARTCHAR 0042
ENCODING 66
SWIDTH 720 0
DWIDTH 14 0
BBX 12 14 1 0
BITMAP
FF80
FFC0
FFE0
E0E0
E0E0
FFC0
FFC0
FFE0
E0F0
E070
E070
FFE0
FFE0
FFC0
ENDCHAR
STARTCHAR 0043
ENCODING 67
SWIDTH 720 0
DWIDTH 14 0
BBX 12 14 1 0
BITMAP
0F80
3FC0
7FE0
70F0
E040
E000
E000
E000
E000
E040
70F0
7FE0
3FC0
0F80
ENDCHAR
STARTCHAR 0044
ENCODING 68
SWIDTH 720 0
DWIDTH 14 0
BBX 12 14 1 0
BITMAP
FF80
FFC0
FFE0
E0E0
E0F0
E070
E070
E070
E070
E070
E0E0
FFE0
FFC0
FF80
ENDCHAR
STARTCHAR 0045
ENCODING 69
SWIDTH 668 0
DWIDTH 13 0
BBX 11 14 1 0
BITMAP
FFC0
FFC0
FFC0
E000
E000
FFC0
FFC0
FFC0
E000
E000
E000
FFE0
FFE0
FFE0
ENDCHAR
STARTCHAR 0046
ENCODING 70
SWIDTH 617 0
DWIDTH 12 0
BBX 10 14 1 0
BITMAP
FFC0
FFC0
FFC0
E000
E000
FF80
FF80
FF80
E000
E000
E000
E000
E000
E000
ENDCHAR
STARTCHAR 0047
ENCODING 71
SWIDTH 771 0
DWIDTH 15 0
BBX 13 14 1 0
BITMAP
0FC0
3FE0
7FF0
7070
E020
E000
E000
E1F8
E1F8
E1F8
7838
7FF0
3FE0
0F80
ENDCHAR
STARTCHAR 0048
ENCODING 72
SWIDTH 720 0
DWIDTH 14 0
BBX 11 14 1 0
BITMAP
E060
E060
E060
E060
E060
FFE0
FFE0
FFE0
E060
E060
E060
E060
E060
E060
ENDCHAR
STARTCHAR 0049
ENCODING 73
SWIDTH 257 0
DWIDTH 5 0
BBX 3 14 1 0
BITMAP
E0
E0
E0
E0
E0
E0
E0
E0
E0
E0
E0
E0
E0
E0
ENDCHAR
STARTCHAR 004A
ENCODING 74
SWIDTH 565 0
DWIDTH 11 0
BBX 9 14 0 0
BITMAP
0380
0380
0380
0380
0380
0380
0380
0380
0380
E380
E380
7F80
7F00
3E00
ENDCHAR
STARTCHAR 004B
ENCODING 75
SWIDTH 720 0
DWIDTH 14 0
BBX 12 14 1 0
BITMAP
E0F0
E1E0
E3C0
E780
EF00
EE00
FF00
FF80
F380
E1C0
E1C0
E0E0
E0F0
E070
ENDCHAR
STARTCHAR 004C
ENCODING 76
SWIDTH 617 0
DWIDTH 12 0
BBX 10 14 1 0
BITMAP
E000
E000
E000
E000
E000
E000
E000
E000
E000
E000
E000
FFC0
FFC0
FFC0
ENDCHAR
STARTCHAR 004D
ENCODING 77
SWIDTH 822 0
DWIDTH 16 0
BBX 13 14 1 0
BITMAP
F878
F878
F878
F8F8
FCF8
ECD8
ECD8
EDD8
EFD8
EF98
E798
E798
E798
E718
ENDCHAR
STARTCHAR 004E
ENCODING 78
SWIDTH 720 0
DWIDTH 14 0
BBX 11 14 1 0
BITMAP
E060
F060
F860
F860
FC60
FC60
EE60
E760
E760
E3E0
E3E0
E1E0
E0E0
E0E0
ENDCHAR
STARTCHAR 004F
ENCODING 79
SWIDTH 771 0
DWIDTH 15 0
BBX 13 14 1 0
BITMAP
0F80
3FE0
7FF0
7070
E038
E038
E038
E038
E038
E038
F0F0
7FF0
3FE0
0F80
ENDCHAR
STARTCHAR 0050
ENCODING 80
SWIDTH 668 0
DWIDTH 13 0
BBX 11 14 1 0
BITMAP
FF80
FFC0
FFC0
E1E0
E0E0
E1E0
FFC0
FFC0
FF80
E000
E000
E000
E000
E000
ENDCHAR
STARTCHAR 0051
ENCODING 81
SWIDTH 771 0
DWIDTH 15 0
BBX 13 15 1 -1
BITMAP
0F80
3FE0
7FF0
F070
E038
E038
E038
E038
E338
E3F8
F1F0
7FF0
3FF0
0FB8
0018
ENDCHAR
STARTCHAR 0052
ENCODING 82
SWIDTH 720 0
DWIDTH 14 0
BBX 12 14 1 0
BITMAP
FFC0
FFE0
FFE0
E0E0
E070
E0E0
FFE0
FFC0
FF00
E380
E1C0
E0E0
E0F0
E070
ENDCHAR
STARTCHAR 0053
ENCODING 83
SWIDTH 668 0
DWIDTH 13 0
BBX 11 14 1 0
BITMAP
3F00
7F80
FFC0
E1C0
E1C0
F000
7F00
1FC0
03C0
E0E0
E1E0
FFC0
7FC0
1F00
ENDCHAR
STARTCHAR 0054
ENCODING 84
SWIDTH 617 0
DWIDTH 12 0
BBX 11 14 0 0
BITMAP
FFE0
FFE0
FFE0
0E00
0E00
0E00
0E00
0E00
0E00
0E00
0E00
0E00
0E00
0E00
ENDCHAR
STARTCHAR 0055
ENCODING 85
SWIDTH 720 0
DWIDTH 14 0
BBX 11 14 1 0
BITMAP
E0E0
E0E0
E0E0
E0E0
E0E0
E0E0
E0E0
E0E0
E0E0
E0E0
70E0
7FE0
3FC0
1F80
ENDCHAR
STARTCHAR 0056
ENCODING 86
SWIDTH 668 0
DWIDTH 13 0
BBX 12 14 0 0
BITMAP
E030
6070
7070
7060
38E0
38E0
38C0
1DC0
1DC0
1D80
0F80
0F80
0F00
0700
ENDCHAR
STARTCHAR 0057
ENCODING 87
SWIDTH 925 0
DWIDTH 18 0
BBX 18 14 0 0
BITMAP
E1E1C0
E1E1C0
61E180
71F380
73F380
737380
333300
373B00
3F3F00
3E1F00
1E1E00
1E1E00
1E1E00
1C0E00
ENDCHAR
STARTCHAR 0058
ENCODING 88
SWIDTH 668 0
DWIDTH 13 0
BBX 12 14 0 0
BITMAP
7070
78E0
39E0
1DC0
1F80
0F80
0700
0F00
0F80
1FC0
3DC0
38E0
70F0
F070
ENDCHAR
STARTCHAR 0059
ENCODING 89
SWIDTH 668 0
DWIDTH 13 0
BBX 12 14 0 0
BITMAP
E070
7070
38E0
38E0
1DC0
1F80
0F80
0700
0700
0700
0700
0700
0700
0700
ENDCHAR
STARTCHAR 005A
ENCODING 90
SWIDTH 617 0
DWIDTH 12 0
BBX 11 14 0 0
BITMAP
7FE0
7FE0
7FE0
01E0
03C0
0780
0F00
1E00
3C00
3800
7000
FFE0
FFE0
FFE0
ENDCHAR
STARTCHAR 005B
ENCODING 91
SWIDTH 308 0
DWIDTH 6 0
BBX 5 18 1 -4
BITMAP
F8
F8
F8
E0
E0
E0
E0
E0
E0
E0
E0
E0
E0
E0
E0
F8
F8
F8
ENDCHAR
STARTCHAR 005C
ENCODING 92
SWIDTH 257 0
DWIDTH 5 0
BBX 5 14 0 0
BITMAP
C0
C0
40
60
60
60
20
30
30
30
30
18
18
18
ENDCHAR
STARTCHAR 005D
ENCODING 93
SWIDTH 308 0
DWIDTH 6 0
BBX 5 18 0 -4
BITMAP
F8
F8
F8
38
38
38
38
38
38
38
38
38
38
38
38
F8
F8
F8
ENDCHAR
STARTCHAR 005E
ENCODING 94
SWIDTH 565 0
DWIDTH 11 0
BBX 9 7 1 7
BITMAP
1C00
1C00
3E00
3600
7700
6300
E380
ENDCHAR
STARTCHAR 005F
ENCODING 95
SWIDTH 565 0
DWIDTH 11 0
BBX 11 2 0 -4
BITMAP
FFE0
FFE0
ENDCHAR
STARTCHAR 0060
ENCODING 96
SWIDTH 308 0
DWIDTH 6 0
BBX 3 3 1 11
BITMAP
E0
60
20
ENDCHAR
STARTCHAR 0061
ENCODING 97
SWIDTH 565 0
DWIDTH 11 0
BBX 9 11 1 0
BITMAP
3E00
7F00
E300
0F00
7F00
F300
C300
C300
E700
FF00
7B80
ENDCHAR
STARTCHAR 0062
ENCODING 98
SWIDTH 617 0
DWIDTH 12 0
BBX 10 14 1 0
BITMAP
E000
E000
E000
EF00
FF80
F380
E1C0
E1C0
E1C0
E1C0
E1C0
F380
FF80
EF00
ENDCHAR
STARTCHAR 0063
ENCODING 99
SWIDTH 565 0
DWIDTH 11 0
BBX 9 11 1 0
BITMAP
3E00
7F00
E380
E300
E000
C000
E000
E300
E380
7F00
3E00
ENDCHAR
STARTCHAR 0064
ENCODING 100
SWIDTH 617 0
DWIDTH 12 0
BBX 9 14 1 0
BITMAP
0180
0180
0180
3D80
7F80
E380
E180
C180
C180
E180
E180
E380
7F80
3D80
ENDCHAR
STARTCHAR 0065
ENCODING 101
SWIDTH 565 0
DWIDTH 11 0
BBX 9 11 1 0
BITMAP
3C00
7F00
E300
C380
FF80
FF80
C000
E000
E300
7F00
3E00
ENDCHAR
STARTCHAR 0066
ENCODING 102
SWIDTH 308 0
DWIDTH 6 0
BBX 7 14 0 0
BITMAP
3E
3E
30
FC
FC
30
30
30
30
30
30
30
30
30
ENDCHAR
STARTCHAR 0067
ENCODING 103
SWIDTH 617 0
DWIDTH 12 0
BBX 9 15 1 -4
BITMAP
3D80
7F80
E380
E180
E180
C180
E180
E180
E380
7F80
3D80
0180
E380
FF80
3E00
ENDCHAR
STARTCHAR 0068
ENCODING 104
SWIDTH 617 0
DWIDTH 12 0
BBX 9 14 1 0
BITMAP
E000
E000
E000
EF00
FF80
F380
E180
E180
E180
E180
E180
E180
E180
E180
ENDCHAR
STARTCHAR 0069
ENCODING 105
SWIDTH 257 0
DWIDTH 5 0
BBX 3 14 1 0
BITMAP
E0
E0
00
E0
E0
E0
E0
E0
E0
E0
E0
E0
E0
E0
ENDCHAR
STARTCHAR 006A
ENCODING 106
SWIDTH 257 0
DWIDTH 5 0
BBX 5 18 -1 -4
BITMAP
38
38
00
38
38
38
38
38
38
38
38
38
38
38
38
38
F8
F0
ENDCHAR
STARTCHAR 006B
ENCODING 107
SWIDTH 565 0
DWIDTH 11 0
BBX 9 14 1 0
BITMAP
E000
E000
E000
E380
E700
EE00
FC00
FC00
FE00
FE00
E700
E700
E380
E380
ENDCHAR
STARTCHAR 006C
ENCODING 108
SWIDTH 257 0
DWIDTH 5 0
BBX 3 14 1 0
BITMAP
E0
E0
E0
E0
E0
E0
E0
E0
E0
E0
E0
E0
E0
E0
ENDCHAR
STARTCHAR 006D
ENCODING 109
SWIDTH 874 0
DWIDTH 17 0
BBX 15 11 1 0
BITMAP
EE38
FFFC
F38E
E38E
E38E
E38E
E38E
E38E
E38E
E38E
E38E
ENDCHAR
STARTCHAR 006E
ENCODING 110
SWIDTH 617 0
DWIDTH 12 0
BBX 9 11 1 0
BITMAP
EF00
FF80
F380
E180
E180
E180
E180
E180
E180
E180
E180
ENDCHAR
STARTCHAR 006F
ENCODING 111
SWIDTH 617 0
DWIDTH 12 0
BBX 10 11 1 0
BITMAP
1E00
7F00
F380
E1C0
E1C0
C1C0
E1C0
E1C0
F380
7F00
1E00
ENDCHAR
STARTCHAR 0070
ENCODING 112
SWIDTH 617 0
DWIDTH 12 0
BBX 10 15 1 -4
BITMAP
EF00
FF80
F380
E1C0
E1C0
E1C0
E1C0
E1C0
F380
FF80
EF00
E000
E000
E000
E000
ENDCHAR
STARTCHAR 0071
ENCODING 113
SWIDTH 617 0
DWIDTH 12 0
BBX 9 15 1 -4
BITMAP
3D80
7F80
E380
E180
E180
E180
E180
E180
E380
7F80
3D80
0180
0180
0180
0180
ENDCHAR
STARTCHAR 0072
ENCODING 114
SWIDTH 360 0
DWIDTH 7 0
BBX 7 11 1 0
BITMAP
FE
FC
F0
E0
E0
E0
E0
E0
E0
E0
E0
ENDCHAR
STARTCHAR 0073
ENCODING 115
SWIDTH 565 0
DWIDTH 11 0
BBX 9 11 1 0
BITMAP
7E00
FF00
C300
E000
FC00
7F00
1F80
0380
C300
FF00
3E00
ENDCHAR
STARTCHAR 0074
ENCODING 116
SWIDTH 308 0
DWIDTH 6 0
BBX 6 14 0 0
BITMAP
10
30
70
FC
FC
70
70
70
70
70
70
30
3C
3C
ENDCHAR
STARTCHAR 0075
ENCODING 117
SWIDTH 617 0
DWIDTH 12 0
BBX 9 11 1 0
BITMAP
E180
E180
E180
E180
E180
E180
E180
E380
E380
7F80
3D80
ENDCHAR
STARTCHAR 0076
ENCODING 118
SWIDTH 565 0
DWIDTH 11 0
BBX 10 11 0 0
BITMAP
E1C0
61C0
7180
7380
3380
3B00
3B00
1F00
1E00
0E00
0E00
ENDCHAR
STARTCHAR 0077
ENCODING 119
SWIDTH 771 0
DWIDTH 15 0
BBX 15 11 0 0
BITMAP
E38E
638C
638C
779C
76D8
36D8
36F8
3EF8
3CF0
1C70
1C70
ENDCHAR
STARTCHAR 0078
ENCODING 120
SWIDTH 565 0
DWIDTH 11 0
BBX 10 11 0 0
BITMAP
71C0
7380
3B00
1F00
1E00
0E00
1F00
3F00
3B80
7380
E1C0
ENDCHAR
STARTCHAR 0079
ENCODING 121
SWIDTH 565 0
DWIDTH 11 0
BBX 10 15 0 -4
BITMAP
E1C0
61C0
7180
7180
3380
3B00
3B00
1F00
1E00
1E00
0E00
0C00
1C00
7C00
7800
ENDCHAR
STARTCHAR 007A
ENCODING 122
SWIDTH 514 0
DWIDTH 10 0
BBX 9 11 0 0
BITMAP
7F80
7F80
0700
0F00
0E00
1C00
3C00
7800
7000
FF80
FF80
ENDCHAR
STARTCHAR 007B
ENCODING 123
SWIDTH 360 0
DWIDTH 7 0
BBX 6 18 1 -4
BITMAP
1C
3C
30
30
30
30
70
70
E0
E0
70
70
30
30
30
30
3C
1C
ENDCHAR
STARTCHAR 007C
ENCODING 124
SWIDTH 257 0
DWIDTH 5 0
BBX 2 18 2 -4
BITMAP
C0
C0
C0
C0
C0
C0
C0
C0
C0
C0
C0
C0
C0
C0
C0
C0
C0
C0
ENDCHAR
STARTCHAR 007D
ENCODING 125
SWIDTH 360 0
DWIDTH 7 0
BBX 7 18 0 -4
BITMAP
E0
F0
38
38
38
38
38
18
1E
1E
18
38
38
38
38
38
F0
E0
ENDCHAR
STARTCHAR 007E
ENCODING 126
SWIDTH 565 0
DWIDTH 11 0
BBX 9 4 1 5
BITMAP
F880
FF80
FF80
8F80
ENDCHAR
STARTCHAR 00A0
ENCODING 160
SWIDTH 257 0
DWIDTH 5 0
BBX 0 0 0 0
BITMAP
ENDCHAR
STARTCHAR 00A1
ENCODING 161
SWIDTH 308 0
DWIDTH 6 0
BBX 3 15 2 -4
BITMAP
E0
E0
E0
00
C0
C0
C0
C0
C0
C0
E0
E0
E0
E0
E0
ENDCHAR
STARTCHAR 00A2
ENCODING 162
SWIDTH 565 0
DWIDTH 11 0
BBX 9 18 1 -4
BITMAP
0200
0200
0200
3E00
7F00
E700
EF80
CC00
C800
E800
FB80
F380
7F00
3E00
2000
2000
2000
6000
ENDCHAR
STARTCHAR 00A3
ENCODING 163
SWIDTH 565 0
DWIDTH 11 0
BBX 10 14 0 0
BITMAP
1F00
3F80
7180
71C0
7000
7000
FE00
FE00
3800
3000
7000
FC40
FFC0
47C0
ENDCHAR
STARTCHAR 00A4
ENCODING 164
SWIDTH 565 0
DWIDTH 11 0
BBX 9 10 1 2
BITMAP
8100
DD00
FF80
E700
C300
C300
E700
FF80
DD00
8100
ENDCHAR
STARTCHAR 00A5
ENCODING 165
SWIDTH 565 0
DWIDTH 11 0
BBX 10 14 0 0
BITMAP
E1C0
71C0
7180
3380
3B00
1F00
FFC0
FFC0
0E00
FFC0
FFC0
0E00
0E00
0E00
ENDCHAR
STARTCHAR 00A6
ENCODING 166
SWIDTH 257 0
DWIDTH 5 0
BBX 2 18 2 -4
BITMAP
C0
C0
C0
C0
C0
C0
C0
C0
00
00
00
C0
C0
C0
C0
C0
C0
C0
ENDCHAR
STARTCHAR 00A7
ENCODING 167
SWIDTH 565 0
DWIDTH 11 0
BBX 9 18 1 -4
BITMAP
3C00
7F00
E700
E000
7000
7C00
DE00
CF00
C380
E180
7B80
3F00
1E00
0700
E300
E300
7F00
3E00
ENDCHAR
STARTCHAR 00A8
ENCODING 168
SWIDTH 308 0
DWIDTH 6 0
BBX 6 2 0 12
BITMAP
CC
CC
ENDCHAR
STARTCHAR 00A9
ENCODING 169
SWIDTH 720 0
DWIDTH 14 0
BBX 14 14 0 0
BITMAP
0FC0
1860
2010
4788
CCCC
8804
8804
8804
8804
CCCC
4788
2010
1860
0FC0
ENDCHAR
STARTCHAR 00AA
ENCODING 170
SWIDTH 360 0
DWIDTH 7 0
BBX 6 7 0 7
BITMAP
7C
6C
0C
7C
CC
CC
74
ENDCHAR
STARTCHAR 00AB
ENCODING 171
SWIDTH 565 0
DWIDTH 11 0
BBX 8 9 1 1
BITMAP
3B
37
76
6E
CC
6E
76
37
1B
ENDCHAR
STARTCHAR 00AC
ENCODING 172
SWIDTH 565 0
DWIDTH 11 0
BBX 9 7 1 4
BITMAP
FF80
FF80
FF80
0180
0180
0180
0180
ENDCHAR
STARTCHAR 00AD
ENCODING 173
SWIDTH 308 0
DWIDTH 6 0
BBX 5 3 1 4
BITMAP
F8
F8
F8
ENDCHAR
STARTCHAR 00AE
ENCODING 174
SWIDTH 720 0
DWIDTH 14 0
BBX 14 14 0 0
BITMAP
0FC0
1860
2010
4F88
C8CC
C8C4
88C4
8F04
C984
C8CC
48C8
2010
1860
0FC0
ENDCHAR
STARTCHAR 00AF
ENCODING 175
SWIDTH 565 0
DWIDTH 11 0
BBX 11 2 0 14
BITMAP
FFE0
FFE0
ENDCHAR
STARTCHAR 00B0
ENCODING 176
SWIDTH 411 0
DWIDTH 8 0
BBX 6 6 1 8
BITMAP
70
F8
CC
CC
F8
70
ENDCHAR
STARTCHAR 00B1
ENCODING 177
SWIDTH 514 0
DWIDTH 10 0
BBX 10 15 0 0
BITMAP
0C00
0C00
0C00
0C00
FFC0
FFC0
FFC0
0C00
0C00
0C00
0C00
0000
FFC0
FFC0
FFC0
ENDCHAR
STARTCHAR 00B2
ENCODING 178
SWIDTH 308 0
DWIDTH 6 0
BBX 6 7 0 7
BITMAP
78
CC
0C
18
38
70
FC
ENDCHAR
STARTCHAR 00B3
ENCODING 179
SWIDTH 308 0
DWIDTH 6 0
BBX 6 7 0 7
BITMAP
78
48
08
38
0C
CC
78
ENDCHAR
STARTCHAR 00B4
ENCODING 180
SWIDTH 308 0
DWIDTH 6 0
BBX 4 3 2 11
BITMAP
70
E0
C0
ENDCHAR
STARTCHAR 00B5
ENCODING 181
SWIDTH 565 0
DWIDTH 11 0
BBX 9 15 1 -4
BITMAP
E380
E380
E380
E380
E380
E380
E380
E380
E380
FF80
FD80
E000
E000
E000
E000
ENDCHAR
STARTCHAR 00B6
ENCODING 182
SWIDTH 565 0
DWIDTH 11 0
BBX 10 18 0 -4
BITMAP
3FC0
7FC0
FD80
FD80
FD80
FD80
7D80
3D80
0D80
0D80
0D80
0D80
0D80
0D80
0D80
0D80
0D80
0D80
ENDCHAR
STARTCHAR 00B7
ENCODING 183
SWIDTH 308 0
DWIDTH 6 0
BBX 2 3 2 5
BITMAP
C0
C0
C0
ENDCHAR
STARTCHAR 00B8
ENCODING 184
SWIDTH 308 0
DWIDTH 6 0
BBX 5 3 0 -3
BITMAP
78
08
F8
ENDCHAR
STARTCHAR 00B9
ENCODING 185
SWIDTH 308 0
DWIDTH 6 0
BBX 4 7 1 7
BITMAP
30
70
F0
30
30
30
30
ENDCHAR
STARTCHAR 00BA
ENCODING 186
SWIDTH 360 0
DWIDTH 7 0
BBX 7 7 0 7
BITMAP
38
6C
C6
C6
C6
6C
38
ENDCHAR
STARTCHAR 00BB
ENCODING 187
SWIDTH 565 0
DWIDTH 11 0
BBX 9 9 1 1
BITMAP
CC00
6E00
7600
3700
3B80
3300
7600
6E00
CC00
ENDCHAR
STARTCHAR 00BC
ENCODING 188
SWIDTH 822 0
DWIDTH 16 0
BBX 15 14 1 0
BITMAP
3020
7060
F040
30C0
3080
3180
3300
020C
061C
043C
0C2C
086C
107E
300C
ENDCHAR
STARTCHAR 00BD
ENCODING 189
SWIDTH 822 0
DWIDTH 16 0
BBX 14 14 1 0
BITMAP
3020
7060
F040
30C0
3080
3180
3300
023C
0664
040C
0C1C
0838
1070
307C
ENDCHAR
STARTCHAR 00BE
ENCODING 190
SWIDTH 822 0
DWIDTH 16 0
BBX 16 14 0 0
BITMAP
7818
4810
0820
3860
0C40
CCC0
7880
0186
010E
021E
0616
0436
0C3F
0806
ENDCHAR
STARTCHAR 00BF
ENCODING 191
SWIDTH 617 0
DWIDTH 12 0
BBX 10 15 1 -4
BITMAP
1C00
1C00
1C00
0000
0C00
0C00
1C00
3800
7000
E000
E000
E1C0
E380
7F80
3E00
ENDCHAR
STARTCHAR 00C0
ENCODING 192
SWIDTH 720 0
DWIDTH 14 0
BBX 13 18 0 0
BITMAP
0E00
0700
0300
0000
0700
0780
0F80
0FC0
0DC0
1CC0
18E0
38E0
3FF0
3FF0
7FF0
7038
6038
E038
ENDCHAR
STARTCHAR 00C1
ENCODING 193
SWIDTH 720 0
DWIDTH 14 0
BBX 13 18 0 0
BITMAP
0380
0300
0600
0000
0700
0780
0F80
0FC0
0DC0
1CC0
18E0
38E0
3FF0
3FF0
7FF0
7038
6038
E038
ENDCHAR
STARTCHAR 00C2
ENCODING 194
SWIDTH 720 0
DWIDTH 14 0
BBX 13 17 0 0
BITMAP
0700
0D80
0000
0700
0780
0F80
0FC0
0DC0
1CC0
18E0
38E0
3FF0
3FF0
7FF0
7038
6038
E038
ENDCHAR
STARTCHAR 00C3
ENCODING 195
SWIDTH 720 0
DWIDTH 14 0
BBX 13 18 0 0
BITMAP
0E40
0FC0
1980
0000
0700
0780
0F80
0FC0
0DC0
1CC0
18E0
38E0
3FF0
3FF0
7FF0
7038
6038
E038
ENDCHAR
STARTCHAR 00C4
ENCODING 196
SWIDTH 720 0
DWIDTH 14 0
BBX 13 17 0 0
BITMAP
0CC0
0CC0
0000
0700
0780
0F80
0FC0
0DC0
1CC0
18E0
38E0
3FF0
3FF0
7FF0
7038
6038
E038
ENDCHAR
STARTCHAR 00C5
ENCODING 197
SWIDTH 720 0
DWIDTH 14 0
BBX 13 17 0 0
BITMAP
0300
0500
0500
0700
0780
0F80
0FC0
0DC0
1CC0
18E0
38E0
3FF0
3FF0
7FF0
7038
6038
E038
ENDCHAR
STARTCHAR 00C6
ENCODING 198
SWIDTH 977 0
DWIDTH 19 0
BBX 19 14 -1 0
BITMAP
03FFE0
03FFE0
077FE0
077000
067000
0E7FC0
0C7FC0
1C7FC0
1FF000
3FF000
3FF000
707FE0
707FE0
E07FE0
ENDCHAR
STARTCHAR 00C7
ENCODING 199
SWIDTH 720 0
DWIDTH 14 0
BBX 12 17 1 -3
BITMAP
0F80
3FC0
7FE0
70F0
E040
E000
E000
E000
E000
E040
70F0
7FE0
3FC0
0F80
0F00
0100
1F00
ENDCHAR
STARTCHAR 00C8
ENCODING 200
SWIDTH 668 0
DWIDTH 13 0
BBX 11 18 1 0
BITMAP
1C00
0C00
0600
0000
FFC0
FFC0
FFC0
E000
E000
FFC0
FFC0
FFC0
E000
E000
E000
FFE0
FFE0
FFE0
ENDCHAR
STARTCHAR 00C9
ENCODING 201
SWIDTH 668 0
DWIDTH 13 0
BBX 11 18 1 0
BITMAP
0700
0600
0C00
0000
FFC0
FFC0
FFC0
E000
E000
FFC0
FFC0
FFC0
E000
E000
E000
FFE0
FFE0
FFE0
ENDCHAR
STARTCHAR 00CA
ENCODING 202
SWIDTH 668 0
DWIDTH 13 0
BBX 11 17 1 0
BITMAP
0E00
1B00
0000
FFC0
FFC0
FFC0
E000
E000
FFC0
FFC0
FFC0
E000
E000
E000
FFE0
FFE0
FFE0
ENDCHAR
STARTCHAR 00CB
ENCODING 203
SWIDTH 668 0
DWIDTH 13 0
BBX 11 17 1 0
BITMAP
3B80
3B80
0000
FFC0
FFC0
FFC0
E000
E000
FFC0
FFC0
FFC0
E000
E000
E000
FFE0
FFE0
FFE0
ENDCHAR
STARTCHAR 00CC
ENCODING 204
SWIDTH 257 0
DWIDTH 5 0
BBX 4 18 0 0
BITMAP
E0
60
30
00
70
70
70
70
70
70
70
70
70
70
70
70
70
70
ENDCHAR
STARTCHAR 00CD
ENCODING 205
SWIDTH 257 0
DWIDTH 5 0
BBX 4 18 1 0
BITMAP
70
60
C0
00
E0
E0
E0
E0
E0
E0
E0
E0
E0
E0
E0
E0
E0
E0
ENDCHAR
STARTCHAR 00CE
ENCODING 206
SWIDTH 257 0
DWIDTH 5 0
BBX 5 17 0 0
BITMAP
70
D8
00
70
70
70
70
70
70
70
70
70
70
70
70
70
70
ENDCHAR
STARTCHAR 00CF
ENCODING 207
SWIDTH 257 0
DWIDTH 5 0
BBX 6 17 0 0
BITMAP
CC
CC
00
70
70
70
70
70
70
70
70
70
70
70
70
70
70
ENDCHAR
STARTCHAR 00D0
ENCODING 208
SWIDTH 720 0
DWIDTH 14 0
BBX 13 14 0 0
BITMAP
7FC0
7FE0
7FF0
7070
7038
7038
FE38
FE38
7038
7038
7070
7FF0
7FE0
7FC0
ENDCHAR
STARTCHAR 00D1
ENCODING 209
SWIDTH 720 0
DWIDTH 14 0
BBX 11 18 1 0
BITMAP
1C80
1F80
1300
0000
E060
F060
F860
F860
FC60
FC60
EE60
E760
E760
E3E0
E3E0
E1E0
E0E0
E0E0
ENDCHAR
STARTCHAR 00D2
ENCODING 210
SWIDTH 771 0
DWIDTH 15 0
BBX 13 18 1 0
BITMAP
0E00
0600
0300
0000
0F80
3FE0
7FF0
7070
E038
E038
E038
E038
E038
E038
F0F0
7FF0
3FE0
0F80
ENDCHAR
STARTCHAR 00D3
ENCODING 211
SWIDTH 771 0
DWIDTH 15 0
BBX 13 18 1 0
BITMAP
0380
0700
0600
0000
0F80
3FE0
7FF0
7070
E038
E038
E038
E038
E038
E038
F0F0
7FF0
3FE0
0F80
ENDCHAR
STARTCHAR 00D4
ENCODING 212
SWIDTH 771 0
DWIDTH 15 0
BBX 13 17 1 0
BITMAP
0700
0D80
0000
0F80
3FE0
7FF0
7070
E038
E038
E038
E038
E038
E038
F0F0
7FF0
3FE0
0F80
ENDCHAR
STARTCHAR 00D5
ENCODING 213
SWIDTH 771 0
DWIDTH 15 0
BBX 13 18 1 0
BITMAP
0C80
1F80
1380
0000
0F80
3FE0
7FF0
7070
E038
E038
E038
E038
E038
E038
F0F0
7FF0
3FE0
0F80
ENDCHAR
STARTCHAR 00D6
ENCODING 214
SWIDTH 771 0
DWIDTH 15 0
BBX 13 17 1 0
BITMAP
1980
1980
0000
0F80
3FE0
7FF0
7070
E038
E038
E038
E038
E038
E038
F0F0
7FF0
3FE0
0F80
ENDCHAR
STARTCHAR 00D7
ENCODING 215
SWIDTH 565 0
DWIDTH 11 0
BBX 9 9 1 2
BITMAP
4100
E380
7700
3E00
1C00
3E00
7700
E380
4100
ENDCHAR
STARTCHAR 00D8
ENCODING 216
SWIDTH 771 0
DWIDTH 15 0
BBX 13 14 1 0
BITMAP
0F98
3FF0
7FF0
7070
E0F8
E1B8
E338
E638
EC38
F878
F0F0
7FF0
FFE0
DF80
ENDCHAR
STARTCHAR 00D9
ENCODING 217
SWIDTH 720 0
DWIDTH 14 0
BBX 11 18 1 0
BITMAP
1C00
0E00
0600
0000
E0E0
E0E0
E0E0
E0E0
E0E0
E0E0
E0E0
E0E0
E0E0
E0E0
70E0
7FE0
3FC0
1F80
ENDCHAR
STARTCHAR 00DA
ENCODING 218
SWIDTH 720 0
DWIDTH 14 0
BBX 11 18 1 0
BITMAP
0700
0600
0C00
0000
E0E0
E0E0
E0E0
E0E0
E0E0
E0E0
E0E0
E0E0
E0E0
E0E0
70E0
7FE0
3FC0
1F80
ENDCHAR
STARTCHAR 00DB
ENCODING 219
SWIDTH 720 0
DWIDTH 14 0
BBX 11 17 1 0
BITMAP
0F00
1B80
0000
E0E0
E0E0
E0E0
E0E0
E0E0
E0E0
E0E0
E0E0
E0E0
E0E0
70E0
7FE0
3FC0
1F80
ENDCHAR
STARTCHAR 00DC
ENCODING 220
SWIDTH 720 0
DWIDTH 14 0
BBX 11 17 1 0
BITMAP
1980
1980
0000
E0E0
E0E0
E0E0
E0E0
E0E0
E0E0
E0E0
E0E0
E0E0
E0E0
70E0
7FE0
3FC0
1F80
ENDCHAR
STARTCHAR 00DD
ENCODING 221
SWIDTH 668 0
DWIDTH 13 0
BBX 12 18 0 0
BITMAP
0300
0700
0600
0000
E070
7070
38E0
38E0
1DC0
1F80
0F80
0700
0700
0700
0700
0700
0700
0700
ENDCHAR
STARTCHAR 00DE
ENCODING 222
SWIDTH 668 0
DWIDTH 13 0
BBX 11 14 1 0
BITMAP
E000
E000
FF80
FFC0
FFC0
E0E0
E0E0
E1E0
FFC0
FFC0
FF80
E000
E000
E000
ENDCHAR
STARTCHAR 00DF
ENCODING 223
SWIDTH 617 0
DWIDTH 12 0
BBX 10 14 1 0
BITMAP
3E00
7F00
6700
E700
E700
EE00
EE00
E700
E780
E3C0
E1C0
E5C0
EF80
E780
ENDCHAR
STARTCHAR 00E0
ENCODING 224
SWIDTH 565 0
DWIDTH 11 0
BBX 9 15 1 0
BITMAP
3800
1800
0800
0000
3E00
7F00
E300
0F00
7F00
F300
C300
C300
E700
FF00
7B80
ENDCHAR
STARTCHAR 00E1
ENCODING 225
SWIDTH 565 0
DWIDTH 11 0
BBX 9 15 1 0
BITMAP
0E00
0C00
1800
0000
3E00
7F00
E300
0F00
7F00
F300
C300
C300
E700
FF00
7B80
ENDCHAR
STARTCHAR 00E2
ENCODING 226
SWIDTH 565 0
DWIDTH 11 0
BBX 9 14 1 0
BITMAP
1C00
3600
0000
3E00
7F00
E300
0F00
7F00
F300
C300
C300
E700
FF00
7B80
ENDCHAR
STARTCHAR 00E3
ENCODING 227
SWIDTH 565 0
DWIDTH 11 0
BBX 9 15 1 0
BITMAP
3300
7E00
4E00
0000
3E00
7F00
E300
0F00
7F00
F300
C300
C300
E700
FF00
7B80
ENDCHAR
STARTCHAR 00E4
ENCODING 228
SWIDTH 565 0
DWIDTH 11 0
BBX 9 14 1 0
BITMAP
6600
6600
0000
3E00
7F00
E300
0F00
7F00
F300
C300
C300
E700
FF00
7B80
ENDCHAR
STARTCHAR 00E5
ENCODING 229
SWIDTH 565 0
DWIDTH 11 0
BBX 9 16 1 0
BITMAP
1C00
1400
1400
1C00
0000
3E00
7F00
E300
0F00
7F00
F300
C300
C300
E700
FF00
7B80
ENDCHAR
STARTCHAR 00E6
ENCODING 230
SWIDTH 874 0
DWIDTH 17 0
BBX 15 11 1 0
BITMAP
3EF8
7FFC
E38C
038E
0FFE
7FFE
F300
C380
E78E
FFFC
7CF8
ENDCHAR
STARTCHAR 00E7
ENCODING 231
SWIDTH 565 0
DWIDTH 11 0
BBX 9 14 1 -3
BITMAP
3E00
7F00
E380
E300
E000
C000
E000
E300
E380
7F00
3E00
1E00
0600
3C00
ENDCHAR
STARTCHAR 00E8
ENCODING 232
SWIDTH 565 0
DWIDTH 11 0
BBX 9 15 1 0
BITMAP
3000
1800
1800
0000
3C00
7F00
E300
C380
FF80
FF80
C000
E000
E300
7F00
3E00
ENDCHAR
STARTCHAR 00E9
ENCODING 233
SWIDTH 565 0
DWIDTH 11 0
BBX 9 15 1 0
BITMAP
0E00
0C00
1800
0000
3C00
7F00
E300
C380
FF80
FF80
C000
E000
E300
7F00
3E00
ENDCHAR
STARTCHAR 00EA
ENCODING 234
SWIDTH 565 0
DWIDTH 11 0
BBX 9 14 1 0
BITMAP
1C00
3600
0000
3C00
7F00
E300
C380
FF80
FF80
C000
E000
E300
7F00
3E00
ENDCHAR
STARTCHAR 00EB
ENCODING 235
SWIDTH 565 0
DWIDTH 11 0
BBX 9 14 1 0
BITMAP
6600
6600
0000
3C00
7F00
E300
C380
FF80
FF80
C000
E000
E300
7F00
3E00
ENDCHAR
STARTCHAR 00EC
ENCODING 236
SWIDTH 257 0
DWIDTH 5 0
BBX 4 15 0 0
BITMAP
E0
60
30
00
70
70
70
70
70
70
70
70
70
70
70
ENDCHAR
STARTCHAR 00ED
ENCODING 237
SWIDTH 257 0
DWIDTH 5 0
BBX 4 15 1 0
BITMAP
70
60
C0
00
E0
E0
E0
E0
E0
E0
E0
E0
E0
E0
E0
ENDCHAR
STARTCHAR 00EE
ENCODING 238
SWIDTH 257 0
DWIDTH 5 0
BBX 5 14 0 0
BITMAP
70
D8
00
70
70
70
70
70
70
70
70
70
70
70
ENDCHAR
STARTCHAR 00EF
ENCODING 239
SWIDTH 257 0
DWIDTH 5 0
BBX 6 14 0 0
BITMAP
CC
CC
00
70
70
70
70
70
70
70
70
70
70
70
ENDCHAR
STARTCHAR 00F0
ENCODING 240
SWIDTH 617 0
DWIDTH 12 0
BBX 10 14 1 0
BITMAP
1B00
0E00
3700
3F00
7F80
F380
E1C0
E1C0
C1C0
E1C0
E1C0
7380
7F00
1E00
ENDCHAR
STARTCHAR 00F1
ENCODING 241
SWIDTH 617 0
DWIDTH 12 0
BBX 9 15 1 0
BITMAP
3900
3F00
2600
0000
EF00
FF80
F380
E180
E180
E180
E180
E180
E180
E180
E180
ENDCHAR
STARTCHAR 00F2
ENCODING 242
SWIDTH 617 0
DWIDTH 12 0
BBX 10 15 1 0
BITMAP
3800
1C00
0C00
0000
1E00
7F00
F380
E1C0
E1C0
C1C0
E1C0
E1C0
F380
7F00
1E00
ENDCHAR
STARTCHAR 00F3
ENCODING 243
SWIDTH 617 0
DWIDTH 12 0
BBX 10 15 1 0
BITMAP
0600
0C00
0C00
0000
1E00
7F00
F380
E1C0
E1C0
C1C0
E1C0
E1C0
F380
7F00
1E00
ENDCHAR
STARTCHAR 00F4
ENCODING 244
SWIDTH 617 0
DWIDTH 12 0
BBX 10 14 1 0
BITMAP
1E00
3700
0000
1E00
7F00
F380
E1C0
E1C0
C1C0
E1C0
E1C0
F380
7F00
1E00
ENDCHAR
STARTCHAR 00F5
ENCODING 245
SWIDTH 617 0
DWIDTH 12 0
BBX 10 15 1 0
BITMAP
3900
3F00
2600
0000
1E00
7F00
F380
E1C0
E1C0
C1C0
E1C0
E1C0
F380
7F00
1E00
ENDCHAR
STARTCHAR 00F6
ENCODING 246
SWIDTH 617 0
DWIDTH 12 0
BBX 10 14 1 0
BITMAP
3300
3300
0000
1E00
7F00
F380
E1C0
E1C0
C1C0
E1C0
E1C0
F380
7F00
1E00
ENDCHAR
STARTCHAR 00F7
ENCODING 247
SWIDTH 514 0
DWIDTH 10 0
BBX 10 11 0 2
BITMAP
0E00
0E00
0E00
0000
FFC0
FFC0
FFC0
0000
0E00
0E00
0E00
ENDCHAR
STARTCHAR 00F8
ENCODING 248
SWIDTH 617 0
DWIDTH 12 0
BBX 10 11 1 0
BITMAP
1EC0
7F80
7380
E3C0
C7C0
CDC0
D9C0
F1C0
F380
7F80
FE00
ENDCHAR
STARTCHAR 00F9
ENCODING 249
SWIDTH 617 0
DWIDTH 12 0
BBX 9 15 1 0
BITMAP
3800
1800
0C00
0000
E180
E180
E180
E180
E180
E180
E180
E380
E380
7F80
3D80
ENDCHAR
STARTCHAR 00FA
ENCODING 250
SWIDTH 617 0
DWIDTH 12 0
BBX 9 15 1 0
BITMAP
0600
0C00
0C00
0000
E180
E180
E180
E180
E180
E180
E180
E380
E380
7F80
3D80
ENDCHAR
STARTCHAR 00FB
ENCODING 251
SWIDTH 617 0
DWIDTH 12 0
BBX 9 14 1 0
BITMAP
1C00
3600
0000
E180
E180
E180
E180
E180
E180
E180
E380
E380
7F80
3D80
ENDCHAR
STARTCHAR 00FC
ENCODING 252
SWIDTH 617 0
DWIDTH 12 0
BBX 9 14 1 0
BITMAP
3300
3300
0000
E180
E180
E180
E180
E180
E180
E180
E380
E380
7F80
3D80
ENDCHAR
STARTCHAR 00FD
ENCODING 253
SWIDTH 565 0
DWIDTH 11 0
BBX 10 19 0 -4
BITMAP
0700
0600
0C00
0000
E1C0
61C0
7180
7180
3380
3B00
3B00
1F00
1E00
1E00
0E00
0C00
1C00
7C00
7800
ENDCHAR
STARTCHAR 00FE
ENCODING 254
SWIDTH 617 0
DWIDTH 12 0
BBX 10 18 1 -4
BITMAP
E000
E000
E000
EF00
FF80
F380
E1C0
E1C0
E1C0
E1C0
E1C0
F380
FF80
EF00
E000
E000
E000
E000
ENDCHAR
STARTCHAR 00FF
ENCODING 255
SWIDTH 565 0
DWIDTH 11 0
BBX 10 18 0 -4
BITMAP
3300
3300
0000
E1C0
61C0
7180
7180
3380
3B00
3B00
1F00
1E00
1E00
0E00
0C00
1C00
7C00
7800
ENDCHAR
STARTCHAR 0100
ENCODING 256
SWIDTH 720 0
DWIDTH 14 0
BBX 13 17 0 0
BITMAP
0FC0
0FC0
0000
0700
0780
0F80
0FC0
0DC0
1CC0
18E0
38E0
3FF0
3FF0
7FF0
7038
6038
E038
ENDCHAR
STARTCHAR 0101
ENCODING 257
SWIDTH 565 0
DWIDTH 11 0
BBX 9 14 1 0
BITMAP
7E00
7E00
0000
3E00
7F00
E300
0F00
7F00
F300
C300
C300
E700
FF00
7B80
ENDCHAR
STARTCHAR 0102
ENCODING 258
SWIDTH 720 0
DWIDTH 14 0
BBX 13 17 0 0
BITMAP
08C0
0780
0000
0700
0780
0F80
0FC0
0DC0
1CC0
18E0
38E0
3FF0
3FF0
7FF0
7038
6038
E038
ENDCHAR
STARTCHAR 0103
ENCODING 259
SWIDTH 565 0
DWIDTH 11 0
BBX 9 14 1 0
BITMAP
6200
3C00
0000
3E00
7F00
E300
0F00
7F00
F300
C300
C300
E700
FF00
7B80
ENDCHAR
STARTCHAR 0104
ENCODING 260
SWIDTH 720 0
DWIDTH 14 0
BBX 14 18 0 -4
BITMAP
0700
0780
0F80
0FC0
0DC0
1CC0
18E0
38E0
3FF0
3FF0
7FF0
7038
6038
E038
0010
0030
0030
001C
ENDCHAR
STARTCHAR 0105
ENCODING 261
SWIDTH 565 0
DWIDTH 11 0
BBX 9 15 1 -4
BITMAP
3E00
7F00
E300
0F00
7F00
F300
C300
C300
E700
FF00
7B80
0300
0300
0300
0380
ENDCHAR
STARTCHAR 0106
ENCODING 262
SWIDTH 720 0
DWIDTH 14 0
BBX 12 18 1 0
BITMAP
0700
0600
0400
0000
0F80
3FC0
7FE0
70F0
E040
E000
E000
E000
E000
E040
70F0
7FE0
3FC0
0F80
ENDCHAR
STARTCHAR 0107
ENCODING 263
SWIDTH 565 0
DWIDTH 11 0
BBX 9 15 1 0
BITMAP
0E00
0C00
1800
0000
3E00
7F00
E380
E300
E000
C000
E000
E300
E380
7F00
3E00
ENDCHAR
STARTCHAR 0108
ENCODING 264
SWIDTH 720 0
DWIDTH 14 0
BBX 12 17 1 0
BITMAP
0F00
1D80
0000
0F80
3FC0
7FE0
70F0
E040
E000
E000
E000
E000
E040
70F0
7FE0
3FC0
0F80
ENDCHAR
STARTCHAR 0109
ENCODING 265
SWIDTH 565 0
DWIDTH 11 0
BBX 9 14 1 0
BITMAP
1C00
3600
0000
3E00
7F00
E380
E300
E000
C000
E000
E300
E380
7F00
3E00
ENDCHAR
STARTCHAR 010A
ENCODING 266
SWIDTH 720 0
DWIDTH 14 0
BBX 12 18 1 0
BITMAP
0600
0600
0600
0000
0F80
3FC0
7FE0
70F0
E040
E000
E000
E000
E000
E040
70F0
7FE0
3FC0
0F80
ENDCHAR
STARTCHAR 010B
ENCODING 267
SWIDTH 565 0
DWIDTH 11 0
BBX 9 15 1 0
BITMAP
1C00
1C00
1C00
0000
3E00
7F00
E380
E300
E000
C000
E000
E300
E380
7F00
3E00
ENDCHAR
STARTCHAR 010C
ENCODING 268
SWIDTH 720 0
DWIDTH 14 0
BBX 12 17 1 0
BITMAP
1980
0F00
0000
0F80
3FC0
7FE0
70F0
E040
E000
E000
E000
E000
E040
70F0
7FE0
3FC0
0F80
ENDCHAR
STARTCHAR 010D
ENCODING 269
SWIDTH 565 0
DWIDTH 11 0
BBX 9 14 1 0
BITMAP
3600
1C00
0000
3E00
7F00
E380
E300
E000
C000
E000
E300
E380
7F00
3E00
ENDCHAR
STARTCHAR 010E
ENCODING 270
SWIDTH 720 0
DWIDTH 14 0
BBX 12 17 1 0
BITMAP
3600
1C00
0000
FF80
FFC0
FFE0
E0E0
E0F0
E070
E070
E070
E070
E070
E0E0
FFE0
FFC0
FF80
ENDCHAR
STARTCHAR 010F
ENCODING 271
SWIDTH 720 0
DWIDTH 14 0
BBX 13 14 1 0
BITMAP
01B8
01B8
0198
3D90
7FB0
E380
E180
C180
C180
C180
E380
E380
7F80
3D80
ENDCHAR
STARTCHAR 0110
ENCODING 272
SWIDTH 720 0
DWIDTH 14 0
BBX 13 14 0 0
BITMAP
7FC0
7FE0
7FF0
7070
7038
7038
FE38
FE38
7038
7038
7070
7FF0
7FE0
7FC0
ENDCHAR
STARTCHAR 0111
ENCODING 273
SWIDTH 617 0
DWIDTH 12 0
BBX 10 14 1 0
BITMAP
0180
0FC0
0180
3D80
7F80
E380
E180
C180
C180
E180
E180
E380
7F80
3D80
ENDCHAR
STARTCHAR 0112
ENCODING 274
SWIDTH 668 0
DWIDTH 13 0
BBX 11 17 1 0
BITMAP
3F00
3F00
0000
FFC0
FFC0
FFC0
E000
E000
FFC0
FFC0
FFC0
E000
E000
E000
FFE0
FFE0
FFE0
ENDCHAR
STARTCHAR 0113
ENCODING 275
SWIDTH 565 0
DWIDTH 11 0
BBX 9 14 1 0
BITMAP
7E00
7E00
0000
3C00
7F00
E300
C380
FF80
FF80
C000
E000
E300
7F00
3E00
ENDCHAR
STARTCHAR 0114
ENCODING 276
SWIDTH 668 0
DWIDTH 13 0
BBX 11 17 1 0
BITMAP
1100
1E00
0000
FFC0
FFC0
FFC0
E000
E000
FFC0
FFC0
FFC0
E000
E000
E000
FFE0
FFE0
FFE0
ENDCHAR
STARTCHAR 0115
ENCODING 277
SWIDTH 565 0
DWIDTH 11 0
BBX 9 14 1 0
BITMAP
6200
3C00
0000
3C00
7F00
E300
C380
FF80
FF80
C000
E000
E300
7F00
3E00
ENDCHAR
STARTCHAR 0116
ENCODING 278
SWIDTH 668 0
DWIDTH 13 0
BBX 11 18 1 0
BITMAP
0E00
0E00
0E00
0000
FFC0
FFC0
FFC0
E000
E000
FFC0
FFC0
FFC0
E000
E000
E000
FFE0
FFE0
FFE0
ENDCHAR
STARTCHAR 0117
ENCODING 279
SWIDTH 565 0
DWIDTH 11 0
BBX 9 15 1 0
BITMAP
1C00
1C00
1C00
0000
3C00
7F00
E300
C380
FF80
FF80
C000
E000
E300
7F00
3E00
ENDCHAR
STARTCHAR 0118
ENCODING 280
SWIDTH 668 0
DWIDTH 13 0
BBX 11 18 1 -4
BITMAP
FFC0
FFC0
FFC0
E000
E000
FFC0
FFC0
FFC0
E000
E000
E000
FFE0
FFE0
FFE0
00C0
0180
0180
00E0
ENDCHAR
STARTCHAR 0119
ENCODING 281
SWIDTH 565 0
DWIDTH 11 0
BBX 9 15 1 -4
BITMAP
3C00
7F00
E300
C380
FF80
FF80
C000
E000
E300
7F00
3E00
0C00
1800
1800
0E00
ENDCHAR
STARTCHAR 011A
ENCODING 282
SWIDTH 668 0
DWIDTH 13 0
BBX 11 17 1 0
BITMAP
1B00
0E00
0000
FFC0
FFC0
FFC0
E000
E000
FFC0
FFC0
FFC0
E000
E000
E000
FFE0
FFE0
FFE0
ENDCHAR
STARTCHAR 011B
ENCODING 283
SWIDTH 565 0
DWIDTH 11 0
BBX 9 14 1 0
BITMAP
3600
1C00
0000
3C00
7F00
E300
C380
FF80
FF80
C000
E000
E300
7F00
3E00
ENDCHAR
STARTCHAR 011C
ENCODING 284
SWIDTH 771 0
DWIDTH 15 0
BBX 13 17 1 0
BITMAP
0700
0D80
0000
0FC0
3FE0
7FF0
7070
E020
E000
E000
E1F8
E1F8
E1F8
7838
7FF0
3FE0
0F80
ENDCHAR
STARTCHAR 011D
ENCODING 285
SWIDTH 617 0
DWIDTH 12 0
BBX 9 18 1 -4
BITMAP
1E00
3600
0000
3D80
7F80
E380
E180
E180
C180
E180
E180
E380
7F80
3D80
0180
E380
FF80
3E00
ENDCHAR
STARTCHAR 011E
ENCODING 286
SWIDTH 771 0
DWIDTH 15 0
BBX 13 17 1 0
BITMAP
08C0
0780
0000
0FC0
3FE0
7FF0
7070
E020
E000
E000
E1F8
E1F8
E1F8
7838
7FF0
3FE0
0F80
ENDCHAR
STARTCHAR 011F
ENCODING 287
SWIDTH 617 0
DWIDTH 12 0
BBX 9 18 1 -4
BITMAP
2200
1E00
0000
3D80
7F80
E380
E180
E180
C180
E180
E180
E380
7F80
3D80
0180
E380
FF80
3E00
ENDCHAR
STARTCHAR 0120
ENCODING 288
SWIDTH 771 0
DWIDTH 15 0
BBX 13 18 1 0
BITMAP
0700
0700
0700
0000
0FC0
3FE0
7FF0
7070
E020
E000
E000
E1F8
E1F8
E1F8
7838
7FF0
3FE0
0F80
ENDCHAR
STARTCHAR 0121
ENCODING 289
SWIDTH 617 0
DWIDTH 12 0
BBX 9 19 1 -4
BITMAP
0C00
0C00
0C00
0000
3D80
7F80
E380
E180
E180
C180
E180
E180
E380
7F80
3D80
0180
E380
FF80
3E00
ENDCHAR
STARTCHAR 0122
ENCODING 290
SWIDTH 771 0
DWIDTH 15 0
BBX 13 17 1 -3
BITMAP
0FC0
3FE0
7FF0
7070
E020
E000
E000
E1F8
E1F8
E1F8
7038
7FF0
3FE0
0F80
0700
0180
0F00
ENDCHAR
STARTCHAR 0123
ENCODING 291
SWIDTH 617 0
DWIDTH 12 0
BBX 9 20 1 -4
BITMAP
0C00
1800
1C00
1C00
0000
3D80
7F80
E380
E180
E180
C180
E180
E180
E380
7F80
3D80
0180
E380
FF80
3E00
ENDCHAR
STARTCHAR 0124
ENCODING 292
SWIDTH 720 0
DWIDTH 14 0
BBX 11 17 1 0
BITMAP
0F00
1B80
0000
E060
E060
E060
E060
E060
FFE0
FFE0
FFE0
E060
E060
E060
E060
E060
E060
ENDCHAR
STARTCHAR 0125
ENCODING 293
SWIDTH 617 0
DWIDTH 12 0
BBX 9 17 1 0
BITMAP
1E00
3600
0000
E000
E000
E000
EF00
FF80
F380
E180
E180
E180
E180
E180
E180
E180
E180
ENDCHAR
STARTCHAR 0126
ENCODING 294
SWIDTH 720 0
DWIDTH 14 0
BBX 14 14 0 0
BITMAP
7030
FFFC
FFFC
7030
7030
7FF0
7FF0
7FF0
7030
7030
7030
7030
7030
7030
ENDCHAR
STARTCHAR 0127
ENCODING 295
SWIDTH 617 0
DWIDTH 12 0
BBX 10 14 0 0
BITMAP
7000
FE00
7000
7780
7FC0
79C0
70C0
70C0
70C0
70C0
70C0
70C0
70C0
70C0
ENDCHAR
STARTCHAR 0128
ENCODING 296
SWIDTH 257 0
DWIDTH 5 0
BBX 7 18 -1 0
BITMAP
76
FE
CC
00
38
38
38
38
38
38
38
38
38
38
38
38
38
38
ENDCHAR
STARTCHAR 0129
ENCODING 297
SWIDTH 257 0
DWIDTH 5 0
BBX 7 15 -1 0
BITMAP
76
FE
CC
00
38
38
38
38
38
38
38
38
38
38
38
ENDCHAR
STARTCHAR 012A
ENCODING 298
SWIDTH 257 0
DWIDTH 5 0
BBX 6 17 0 0
BITMAP
FC
FC
00
70
70
70
70
70
70
70
70
70
70
70
70
70
70
ENDCHAR
STARTCHAR 012B
ENCODING 299
SWIDTH 257 0
DWIDTH 5 0
BBX 6 14 0 0
BITMAP
FC
FC
00
70
70
70
70
70
70
70
70
70
70
70
ENDCHAR
STARTCHAR 012C
ENCODING 300
SWIDTH 257 0
DWIDTH 5 0
BBX 5 17 0 0
BITMAP
88
78
00
70
70
70
70
70
70
70
70
70
70
70
70
70
70
ENDCHAR
STARTCHAR 012D
ENCODING 301
SWIDTH 257 0
DWIDTH 5 0
BBX 5 14 0 0
BITMAP
88
78
00
70
70
70
70
70
70
70
70
70
70
70
ENDCHAR
STARTCHAR 012E
ENCODING 302
SWIDTH 257 0
DWIDTH 5 0
BBX 3 18 1 -4
BITMAP
E0
E0
E0
E0
E0
E0
E0
E0
E0
E0
E0
E0
E0
E0
C0
C0
C0
E0
ENDCHAR
STARTCHAR 012F
ENCODING 303
SWIDTH 257 0
DWIDTH 5 0
BBX 3 18 1 -4
BITMAP
E0
E0
00
E0
E0
E0
E0
E0
E0
E0
E0
E0
E0
E0
C0
C0
C0
E0
ENDCHAR
STARTCHAR 0130
ENCODING 304
SWIDTH 257 0
DWIDTH 5 0
BBX 3 18 1 0
BITMAP
E0
E0
E0
00
E0
E0
E0
E0
E0
E0
E0
E0
E0
E0
E0
E0
E0
E0
ENDCHAR
STARTCHAR 0131
ENCODING 305
SWIDTH 257 0
DWIDTH 5 0
BBX 3 11 1 0
BITMAP
E0
E0
E0
E0
E0
E0
E0
E0
E0
E0
E0
ENDCHAR
STARTCHAR 0132
ENCODING 306
SWIDTH 771 0
DWIDTH 15 0
BBX 12 14 1 0
BITMAP
E030
E030
E030
E030
E030
E030
E030
E030
E030
EC30
EE70
EFF0
E7F0
E3C0
ENDCHAR
STARTCHAR 0133
ENCODING 307
SWIDTH 565 0
DWIDTH 11 0
BBX 8 18 1 -4
BITMAP
E7
E7
00
E7
E7
E7
E7
E7
E7
E7
E7
E7
E7
E7
07
07
0F
1E
ENDCHAR
STARTCHAR 0134
ENCODING 308
SWIDTH 565 0
DWIDTH 11 0
BBX 10 17 0 0
BITMAP
0380
06C0
0000
0380
0380
0380
0380
0380
0380
0380
0380
0380
E380
E380
7F80
7F00
3E00
ENDCHAR
STARTCHAR 0135
ENCODING 309
SWIDTH 257 0
DWIDTH 5 0
BBX 6 18 -1 -4
BITMAP
38
6C
00
38
38
38
38
38
38
38
38
38
38
38
38
38
F8
F0
ENDCHAR
STARTCHAR 0136
ENCODING 310
SWIDTH 720 0
DWIDTH 14 0
BBX 12 17 1 -3
BITMAP
E0F0
E1E0
E3C0
E780
EF00
EE00
FF00
FF80
F380
E1C0
E1C0
E0E0
E0F0
E070
0F00
0300
1E00
ENDCHAR
STARTCHAR 0137
ENCODING 311
SWIDTH 565 0
DWIDTH 11 0
BBX 9 17 1 -3
BITMAP
E000
E000
E000
E380
E700
EE00
FC00
FC00
FE00
FE00
E700
E700
E380
E380
1C00
0600
3C00
ENDCHAR
STARTCHAR 0138
ENCODING 312
SWIDTH 565 0
DWIDTH 11 0
BBX 9 11 1 0
BITMAP
E380
E700
EE00
FC00
FC00
FE00
FE00
E700
E700
E380
E380
ENDCHAR
STARTCHAR 0139
ENCODING 313
SWIDTH 617 0
DWIDTH 12 0
BBX 10 18 1 0
BITMAP
0E00
0C00
1800
0000
E000
E000
E000
E000
E000
E000
E000
E000
E000
E000
E000
FFC0
FFC0
FFC0
ENDCHAR
STARTCHAR 013A
ENCODING 314
SWIDTH 257 0
DWIDTH 5 0
BBX 4 18 1 0
BITMAP
70
60
C0
00
E0
E0
E0
E0
E0
E0
E0
E0
E0
E0
E0
E0
E0
E0
ENDCHAR
STARTCHAR 013B
ENCODING 315
SWIDTH 617 0
DWIDTH 12 0
BBX 10 17 1 -3
BITMAP
E000
E000
E000
E000
E000
E000
E000
E000
E000
E000
E000
FFC0
FFC0
FFC0
1E00
0600
3C00
ENDCHAR
STARTCHAR 013C
ENCODING 316
SWIDTH 257 0
DWIDTH 5 0
BBX 5 17 0 -3
BITMAP
70
70
70
70
70
70
70
70
70
70
70
70
70
70
70
18
F0
ENDCHAR
STARTCHAR 013D
ENCODING 317
SWIDTH 617 0
DWIDTH 12 0
BBX 10 14 1 0
BITMAP
E180
E180
E180
E080
E180
E100
E000
E000
E000
E000
E000
FFC0
FFC0
FFC0
ENDCHAR
STARTCHAR 013E
ENCODING 318
SWIDTH 360 0
DWIDTH 7 0
BBX 6 14 1 0
BITMAP
EC
EC
E4
E4
E8
E0
E0
E0
E0
E0
E0
E0
E0
E0
ENDCHAR
STARTCHAR 013F
ENCODING 319
SWIDTH 617 0
DWIDTH 12 0
BBX 10 14 1 0
BITMAP
E000
E000
E000
E000
FC00
FC00
FC00
E000
E000
E000
E000
FFC0
FFC0
FFC0
ENDCHAR
STARTCHAR 0140
ENCODING 320
SWIDTH 462 0
DWIDTH 9 0
BBX 7 14 1 0
BITMAP
E0
E0
E0
E0
E0
EE
EE
EE
E0
E0
E0
E0
E0
E0
ENDCHAR
STARTCHAR 0141
ENCODING 321
SWIDTH 617 0
DWIDTH 12 0
BBX 11 14 0 0
BITMAP
3000
3000
3200
3400
3800
3000
3000
7000
B000
3000
3000
3FE0
3FE0
3FE0
ENDCHAR
STARTCHAR 0142
ENCODING 322
SWIDTH 257 0
DWIDTH 5 0
BBX 5 14 0 0
BITMAP
70
70
70
70
78
70
70
70
F0
70
70
70
70
70
ENDCHAR
STARTCHAR 0143
ENCODING 323
SWIDTH 720 0
DWIDTH 14 0
BBX 11 18 1 0
BITMAP
0700
0600
0C00
0000
E060
F060
F860
F860
FC60
FC60
EE60
E760
E760
E3E0
E3E0
E1E0
E0E0
E0E0
ENDCHAR
STARTCHAR 0144
ENCODING 324
SWIDTH 617 0
DWIDTH 12 0
BBX 9 15 1 0
BITMAP
0E00
0C00
0800
0000
EF00
FF80
F380
E180
E180
E180
E180
E180
E180
E180
E180
ENDCHAR
STARTCHAR 0145
ENCODING 325
SWIDTH 720 0
DWIDTH 14 0
BBX 11 17 1 -3
BITMAP
E060
F060
F860
F860
FC60
FC60
EE60
E760
E760
E3E0
E3E0
E1E0
E0E0
E0E0
0F00
0300
1E00
ENDCHAR
STARTCHAR 0146
ENCODING 326
SWIDTH 617 0
DWIDTH 12 0
BBX 9 14 1 -3
BITMAP
EF00
FF80
F380
E180
E180
E180
E180
E180
E180
E180
E180
1E00
0600
3C00
ENDCHAR
STARTCHAR 0147
ENCODING 327
SWIDTH 720 0
DWIDTH 14 0
BBX 11 17 1 0
BITMAP
1B00
0E00
0000
E060
F060
F860
F860
FC60
FC60
EE60
E760
E760
E3E0
E3E0
E1E0
E0E0
E0E0
ENDCHAR
STARTCHAR 0148
ENCODING 328
SWIDTH 617 0
DWIDTH 12 0
BBX 9 14 1 0
BITMAP
3600
1E00
0000
EF00
FF80
F380
E180
E180
E180
E180
E180
E180
E180
E180
ENDCHAR
STARTCHAR 0149
ENCODING 329
SWIDTH 668 0
DWIDTH 13 0
BBX 12 14 0 0
BITMAP
C000
C000
C000
5DE0
DFF0
9E70
1C70
1C70
1C70
1C70
1C70
1C70
1C70
1C70
ENDCHAR
STARTCHAR 014A
ENCODING 330
SWIDTH 720 0
DWIDTH 14 0
BBX 12 14 1 0
BITMAP
E7C0
EFE0
FFE0
F8F0
F070
E070
E070
E070
E070
E070
E070
E3E0
E7E0
E3C0
ENDCHAR
STARTCHAR 014B
ENCODING 331
SWIDTH 617 0
DWIDTH 12 0
BBX 9 15 1 -4
BITMAP
EF00
FF80
F380
E180
E180
E180
E180
E180
E180
E180
E180
0180
0180
0780
0700
ENDCHAR
STARTCHAR 014C
ENCODING 332
SWIDTH 771 0
DWIDTH 15 0
BBX 13 17 1 0
BITMAP
1F80
1F80
0000
0F80
3FE0
7FF0
7070
E038
E038
E038
E038
E038
E038
F0F0
7FF0
3FE0
0F80
ENDCHAR
STARTCHAR 014D
ENCODING 333
SWIDTH 617 0
DWIDTH 12 0
BBX 10 14 1 0
BITMAP
3F00
3F00
0000
1E00
7F00
F380
E1C0
E1C0
C1C0
E1C0
E1C0
F380
7F00
1E00
ENDCHAR
STARTCHAR 014E
ENCODING 334
SWIDTH 771 0
DWIDTH 15 0
BBX 13 17 1 0
BITMAP
0880
0F00
0000
0F80
3FE0
7FF0
7070
E038
E038
E038
E038
E038
E038
F0F0
7FF0
3FE0
0F80
ENDCHAR
STARTCHAR 014F
ENCODING 335
SWIDTH 617 0
DWIDTH 12 0
BBX 10 14 1 0
BITMAP
2300
1E00
0000
1E00
7F00
F380
E1C0
E1C0
C1C0
E1C0
E1C0
F380
7F00
1E00
ENDCHAR
STARTCHAR 0150
ENCODING 336
SWIDTH 771 0
DWIDTH 15 0
BBX 13 18 1 0
BITMAP
06E0
0CC0
0980
0000
0F80
3FE0
7FF0
7070
E038
E038
E038
E038
E038
E038
F0F0
7FF0
3FE0
0F80
ENDCHAR
STARTCHAR 0151
ENCODING 337
SWIDTH 617 0
DWIDTH 12 0
BBX 10 15 1 0
BITMAP
1B80
3300
3600
0000
1E00
7F00
F380
E1C0
E1C0
C1C0
E1C0
E1C0
F380
7F00
1E00
ENDCHAR
STARTCHAR 0152
ENCODING 338
SWIDTH 977 0
DWIDTH 19 0
BBX 17 14 1 0
BITMAP
1E7F80
7FFF80
7FFF80
F1E000
E0E000
E0FF80
E07F80
E0FF80
E0E000
E0E000
F1E000
7FFF80
7FFF80
1E7F80
ENDCHAR
STARTCHAR 0153
ENCODING 339
SWIDTH 925 0
DWIDTH 18 0
BBX 16 11 1 0
BITMAP
1E7C
7FFE
73C7
E1C3
E1FF
E1FF
E1C0
E1C0
73E7
7FFE
1E7C
ENDCHAR
STARTCHAR 0154
ENCODING 340
SWIDTH 720 0
DWIDTH 14 0
BBX 12 18 1 0
BITMAP
0E00
0C00
0800
0000
FFC0
FFE0
FFE0
E0E0
E070
E0E0
FFE0
FFC0
FF00
E380
E1C0
E0E0
E0F0
E070
ENDCHAR
STARTCHAR 0155
ENCODING 341
SWIDTH 360 0
DWIDTH 7 0
BBX 7 15 1 0
BITMAP
18
30
30
00
FE
FC
F0
E0
E0
E0
E0
E0
E0
E0
E0
ENDCHAR
STARTCHAR 0156
ENCODING 342
SWIDTH 720 0
DWIDTH 14 0
BBX 12 17 1 -3
BITMAP
FFC0
FFE0
FFE0
E0E0
E070
E0E0
FFE0
FFC0
FF00
E380
E1C0
E0E0
E0F0
E070
0F00
0300
1E00
ENDCHAR
STARTCHAR 0157
ENCODING 343
SWIDTH 360 0
DWIDTH 7 0
BBX 8 14 0 -3
BITMAP
7F
7E
78
70
70
70
70
70
70
70
70
38
08
F8
ENDCHAR
STARTCHAR 0158
ENCODING 344
SWIDTH 720 0
DWIDTH 14 0
BBX 12 17 1 0
BITMAP
3700
1E00
0000
FFC0
FFE0
FFE0
E0E0
E070
E0E0
FFE0
FFC0
FF00
E380
E1C0
E0E0
E0F0
E070
ENDCHAR
STARTCHAR 0159
ENCODING 345
SWIDTH 360 0
DWIDTH 7 0
BBX 7 14 1 0
BITMAP
DC
78
00
FE
FC
F0
E0
E0
E0
E0
E0
E0
E0
E0
ENDCHAR
STARTCHAR 015A
ENCODING 346
SWIDTH 668 0
DWIDTH 13 0
BBX 11 18 1 0
BITMAP
0700
0600
0C00
0000
3F00
7F80
FFC0
E1C0
E1C0
F000
7F00
1FC0
03C0
E0E0
E1E0
FFC0
7FC0
1F00
ENDCHAR
STARTCHAR 015B
ENCODING 347
SWIDTH 565 0
DWIDTH 11 0
BBX 9 15 1 0
BITMAP
0E00
0C00
1800
0000
7E00
FF00
C300
E000
FC00
7F00
1F80
0380
C300
FF00
3E00
ENDCHAR
STARTCHAR 015C
ENCODING 348
SWIDTH 668 0
DWIDTH 13 0
BBX 11 17 1 0
BITMAP
0E00
1B00
0000
3F00
7F80
FFC0
E1C0
E1C0
F000
7F00
1FC0
03C0
E0E0
E1E0
FFC0
7FC0
1F00
ENDCHAR
STARTCHAR 015D
ENCODING 349
SWIDTH 565 0
DWIDTH 11 0
BBX 9 14 1 0
BITMAP
1C00
3600
0000
7E00
FF00
C300
E000
FC00
7F00
1F80
0380
C300
FF00
3E00
ENDCHAR
STARTCHAR 015E
ENCODING 350
SWIDTH 668 0
DWIDTH 13 0
BBX 11 17 1 -3
BITMAP
3F00
7F80
FFC0
E1C0
E1C0
F000
7F00
1FC0
03C0
E0E0
E1E0
FFC0
7FC0
1F00
0E00
0300
1E00
ENDCHAR
STARTCHAR 015F
ENCODING 351
SWIDTH 565 0
DWIDTH 11 0
BBX 9 14 1 -3
BITMAP
7E00
FF00
C300
E000
FC00
7F00
1F80
0380
C300
FF00
3E00
1E00
0600
3C00
ENDCHAR
STARTCHAR 0160
ENCODING 352
SWIDTH 668 0
DWIDTH 13 0
BBX 11 17 1 0
BITMAP
1B00
0E00
0000
3F00
7F80
FFC0
E1C0
E1C0
F000
7F00
1FC0
03C0
E0E0
E1E0
FFC0
7FC0
1F00
ENDCHAR
STARTCHAR 0161
ENCODING 353
SWIDTH 565 0
DWIDTH 11 0
BBX 9 14 1 0
BITMAP
7600
3C00
0000
7E00
FF00
C300
E000
FC00
7F00
1F80
0380
C300
FF00
3E00
ENDCHAR
STARTCHAR 0162
ENCODING 354
SWIDTH 617 0
DWIDTH 12 0
BBX 11 17 0 -3
BITMAP
FFE0
FFE0
FFE0
0E00
0E00
0E00
0E00
0E00
0E00
0E00
0E00
0E00
0E00
0E00
0F00
0100
1F00
ENDCHAR
STARTCHAR 0163
ENCODING 355
SWIDTH 308 0
DWIDTH 6 0
BBX 6 17 0 -3
BITMAP
10
30
70
FC
FC
70
70
70
70
70
70
30
3C
3C
3C
0C
78
ENDCHAR
STARTCHAR 0164
ENCODING 356
SWIDTH 617 0
DWIDTH 12 0
BBX 11 17 0 0
BITMAP
1B00
0E00
0000
FFE0
FFE0
FFE0
0E00
0E00
0E00
0E00
0E00
0E00
0E00
0E00
0E00
0E00
0E00
ENDCHAR
STARTCHAR 0165
ENCODING 357
SWIDTH 462 0
DWIDTH 9 0
BBX 9 14 0 0
BITMAP
1180
3180
7080
FD80
FD00
7000
7000
7000
7000
7000
7000
3000
3C00
3C00
ENDCHAR
STARTCHAR 0166
ENCODING 358
SWIDTH 617 0
DWIDTH 12 0
BBX 11 14 0 0
BITMAP
FFE0
FFE0
FFE0
0E00
0E00
0E00
0E00
3FC0
3FC0
0E00
0E00
0E00
0E00
0E00
ENDCHAR
STARTCHAR 0167
ENCODING 359
SWIDTH 308 0
DWIDTH 6 0
BBX 6 14 0 0
BITMAP
10
30
70
FC
FC
70
70
70
FC
FC
70
70
3C
3C
ENDCHAR
STARTCHAR 0168
ENCODING 360
SWIDTH 720 0
DWIDTH 14 0
BBX 11 18 1 0
BITMAP
1C80
1F80
1300
0000
E0E0
E0E0
E0E0
E0E0
E0E0
E0E0
E0E0
E0E0
E0E0
E0E0
70E0
7FE0
3FC0
1F80
ENDCHAR
STARTCHAR 0169
ENCODING 361
SWIDTH 617 0
DWIDTH 12 0
BBX 9 15 1 0
BITMAP
3900
3F00
2600
0000
E180
E180
E180
E180
E180
E180
E180
E380
E380
7F80
3D80
ENDCHAR
STARTCHAR 016A
ENCODING 362
SWIDTH 720 0
DWIDTH 14 0
BBX 11 17 1 0
BITMAP
1F80
1F80
0000
E0E0
E0E0
E0E0
E0E0
E0E0
E0E0
E0E0
E0E0
E0E0
E0E0
70E0
7FE0
3FC0
1F80
ENDCHAR
STARTCHAR 016B
ENCODING 363
SWIDTH 617 0
DWIDTH 12 0
BBX 9 14 1 0
BITMAP
3F00
3F00
0000
E180
E180
E180
E180
E180
E180
E180
E380
E380
7F80
3D80
ENDCHAR
STARTCHAR 016C
ENCODING 364
SWIDTH 720 0
DWIDTH 14 0
BBX 11 17 1 0
BITMAP
1180
0F00
0000
E0E0
E0E0
E0E0
E0E0
E0E0
E0E0
E0E0
E0E0
E0E0
E0E0
70E0
7FE0
3FC0
1F80
ENDCHAR
STARTCHAR 016D
ENCODING 365
SWIDTH 617 0
DWIDTH 12 0
BBX 9 14 1 0
BITMAP
2300
1E00
0000
E180
E180
E180
E180
E180
E180
E180
E380
E380
7F80
3D80
ENDCHAR
STARTCHAR 016E
ENCODING 366
SWIDTH 720 0
DWIDTH 14 0
BBX 11 18 1 0
BITMAP
0600
0900
0900
0600
E0E0
E0E0
E0E0
E0E0
E0E0
E0E0
E0E0
E0E0
E0E0
E0E0
70E0
7FE0
3FC0
1F80
ENDCHAR
STARTCHAR 016F
ENCODING 367
SWIDTH 617 0
DWIDTH 12 0
BBX 9 16 1 0
BITMAP
0C00
1200
1200
0C00
0000
E180
E180
E180
E180
E180
E180
E180
E380
E380
7F80
3D80
ENDCHAR
STARTCHAR 0170
ENCODING 368
SWIDTH 720 0
DWIDTH 14 0
BBX 11 18 1 0
BITMAP
0FC0
0D80
1900
0000
E0E0
E0E0
E0E0
E0E0
E0E0
E0E0
E0E0
E0E0
E0E0
E0E0
70E0
7FE0
3FC0
1F80
ENDCHAR
STARTCHAR 0171
ENCODING 369
SWIDTH 617 0
DWIDTH 12 0
BBX 9 15 1 0
BITMAP
1D80
1B00
3200
0000
E180
E180
E180
E180
E180
E180
E180
E380
E380
7F80
3D80
ENDCHAR
STARTCHAR 0172
ENCODING 370
SWIDTH 720 0
DWIDTH 14 0
BBX 11 18 1 -4
BITMAP
E0E0
E0E0
E0E0
E0E0
E0E0
E0E0
E0E0
E0E0
E0E0
E0E0
70E0
7FE0
3FC0
1F80
0600
0600
0600
0700
ENDCHAR
STARTCHAR 0173
ENCODING 371
SWIDTH 617 0
DWIDTH 12 0
BBX 9 15 1 -4
BITMAP
E180
E180
E180
E180
E180
E180
E180
E380
E380
7F80
3D80
0100
0300
0300
0180
ENDCHAR
STARTCHAR 0174
ENCODING 372
SWIDTH 925 0
DWIDTH 18 0
BBX 18 17 0 0
BITMAP
01E000
037000
000000
E1E1C0
E1E1C0
61E180
71F380
73F380
737380
333300
373B00
3F3F00
3E1F00
1E1E00
1E1E00
1E1E00
1C0E00
ENDCHAR
STARTCHAR 0175
ENCODING 373
SWIDTH 771 0
DWIDTH 15 0
BBX 15 14 0 0
BITMAP
0380
06C0
0000
E38E
638C
638C
779C
76D8
36D8
36F8
3EF8
3CF0
1C70
1C70
ENDCHAR
STARTCHAR 0176
ENCODING 374
SWIDTH 668 0
DWIDTH 13 0
BBX 12 17 0 0
BITMAP
0700
0D80
0000
E070
7070
38E0
38E0
1DC0
1F80
0F80
0700
0700
0700
0700
0700
0700
0700
ENDCHAR
STARTCHAR 0177
ENCODING 375
SWIDTH 565 0
DWIDTH 11 0
BBX 10 18 0 -4
BITMAP
0E00
1B00
0000
E1C0
61C0
7180
7180
3380
3B00
3B00
1F00
1E00
1E00
0E00
0C00
1C00
7C00
7800
ENDCHAR
STARTCHAR 0178
ENCODING 376
SWIDTH 668 0
DWIDTH 13 0
BBX 12 17 0 0
BITMAP
1980
1980
0000
E070
7070
38E0
38E0
1DC0
1F80
0F80
0700
0700
0700
0700
0700
0700
0700
ENDCHAR
STARTCHAR 0179
ENCODING 377
SWIDTH 617 0
DWIDTH 12 0
BBX 11 18 0 0
BITMAP
0700
0600
0C00
0000
7FE0
7FE0
7FE0
01E0
03C0
0780
0F00
1E00
3C00
3800
7000
FFE0
FFE0
FFE0
ENDCHAR
STARTCHAR 017A
ENCODING 378
SWIDTH 514 0
DWIDTH 10 0
BBX 9 15 0 0
BITMAP
0E00
0C00
1800
0000
7F80
7F80
0700
0F00
0E00
1C00
3C00
7800
7000
FF80
FF80
ENDCHAR
STARTCHAR 017B
ENCODING 379
SWIDTH 617 0
DWIDTH 12 0
BBX 11 18 0 0
BITMAP
0600
0600
0600
0000
7FE0
7FE0
7FE0
01E0
03C0
0780
0F00
1E00
3C00
3800
7000
FFE0
FFE0
FFE0
ENDCHAR
STARTCHAR 017C
ENCODING 380
SWIDTH 514 0
DWIDTH 10 0
BBX 9 15 0 0
BITMAP
1C00
1C00
1C00
0000
7F80
7F80
0700
0F00
0E00
1C00
3C00
7800
7000
FF80
FF80
ENDCHAR
STARTCHAR 017D
ENCODING 381
SWIDTH 617 0
DWIDTH 12 0
BBX 11 17 0 0
BITMAP
1B00
0E00
0000
7FE0
7FE0
7FE0
01E0
03C0
0780
0F00
1E00
3C00
3800
7000
FFE0
FFE0
FFE0
ENDCHAR
STARTCHAR 017E
ENCODING 382
SWIDTH 514 0
DWIDTH 10 0
BBX 9 14 0 0
BITMAP
3600
1C00
0000
7F80
7F80
0700
0F00
0E00
1C00
3C00
7800
7000
FF80
FF80
ENDCHAR
STARTCHAR 017F
ENCODING 383
SWIDTH 257 0
DWIDTH 5 0
BBX 5 14 1 0
BITMAP
78
78
E0
E0
E0
E0
E0
E0
E0
E0
E0
E0
E0
E0
ENDCHAR
STARTCHAR 0180
ENCODING 384
SWIDTH 617 0
DWIDTH 12 0
BBX 11 14 0 0
BITMAP
7000
FE00
7000
7780
7FC0
79C0
70E0
70E0
70E0
70E0
70E0
79C0
7FC0
7780
ENDCHAR
STARTCHAR 0181
ENCODING 385
SWIDTH 822 0
DWIDTH 16 0
BBX 15 14 0 0
BITMAP
3FF8
7FFC
FFFC
CC1C
CC1C
CFF8
0FF8
0FFC
0C0E
0C0E
0C0E
0FFE
0FFC
0FF8
ENDCHAR
STARTCHAR 0182
ENCODING 386
SWIDTH 720 0
DWIDTH 14 0
BBX 12 14 1 0
BITMAP
FFE0
FFE0
FFE0
E000
E000
E000
FFC0
FFE0
FFF0
E070
E070
FFF0
FFE0
FFC0
ENDCHAR
STARTCHAR 0183
ENCODING 387
SWIDTH 617 0
DWIDTH 12 0
BBX 10 14 1 0
BITMAP
FE00
FE00
E000
EF00
FF80
F380
E1C0
E1C0
E1C0
E1C0
E1C0
F380
FF80
EF00
ENDCHAR
STARTCHAR 0184
ENCODING 388
SWIDTH 720 0
DWIDTH 14 0
BBX 13 14 0 0
BITMAP
1000
3000
F000
7000
7000
7000
7FE0
7FF0
7FF8
7038
7038
7FF8
7FF0
7FE0
ENDCHAR
STARTCHAR 0185
ENCODING 389
SWIDTH 617 0
DWIDTH 12 0
BBX 11 14 0 0
BITMAP
3000
7000
F000
7780
7FC0
79C0
70E0
70E0
70E0
70E0
70E0
79C0
7FC0
7780
ENDCHAR
STARTCHAR 0186
ENCODING 390
SWIDTH 720 0
DWIDTH 14 0
BBX 12 14 1 0
BITMAP
1F00
3FC0
7FE0
F0E0
60E0
0070
0070
0070
0070
60F0
F0E0
7FE0
7FC0
1F00
ENDCHAR
STARTCHAR 0187
ENCODING 391
SWIDTH 720 0
DWIDTH 14 0
BBX 14 16 1 0
BITMAP
003C
007C
0FF0
3FF0
7FF0
70F0
E060
E000
E000
E000
E000
E060
70F0
7FE0
3FC0
1F80
ENDCHAR
STARTCHAR 0188
ENCODING 392
SWIDTH 565 0
DWIDTH 11 0
BBX 12 13 1 0
BITMAP
01F0
01E0
3F80
7F80
E380
E380
E000
C000
E000
E380
E380
7F00
3E00
ENDCHAR
STARTCHAR 0189
ENCODING 393
SWIDTH 720 0
DWIDTH 14 0
BBX 13 14 0 0
BITMAP
7FC0
7FE0
7FF0
7070
7038
7038
FE38
FE38
7038
7038
7070
7FF0
7FE0
7FC0
ENDCHAR
STARTCHAR 018A
ENCODING 394
SWIDTH 822 0
DWIDTH 16 0
BBX 15 14 0 0
BITMAP
3FF0
7FF8
FFFC
CC1C
CC0E
CC0E
0C0E
0C0E
0C0E
0C0E
0C1C
0FFC
0FF8
0FF0
ENDCHAR
STARTCHAR 018B
ENCODING 395
SWIDTH 720 0
DWIDTH 14 0
BBX 11 14 1 0
BITMAP
7FE0
7FE0
7FE0
00E0
00E0
00E0
3FE0
7FE0
FFE0
E0E0
E0E0
FFE0
7FE0
3FE0
ENDCHAR
STARTCHAR 018C
ENCODING 396
SWIDTH 617 0
DWIDTH 12 0
BBX 9 14 1 0
BITMAP
3F80
3F80
0180
3D80
7F80
E380
E180
C180
C180
E180
E180
E380
7F80
3D80
ENDCHAR
STARTCHAR 018D
ENCODING 397
SWIDTH 617 0
DWIDTH 12 0
BBX 10 15 1 -4
BITMAP
3E00
7F00
E380
E180
C1C0
C1C0
C1C0
E1C0
E380
7F80
3E00
0E00
0700
7F80
7F80
ENDCHAR
STARTCHAR 018E
ENCODING 398
SWIDTH 668 0
DWIDTH 13 0
BBX 10 14 1 0
BITMAP
FFC0
FFC0
FFC0
00C0
00C0
7FC0
7FC0
7FC0
00C0
00C0
00C0
FFC0
FFC0
FFC0
ENDCHAR
STARTCHAR 018F
ENCODING 399
SWIDTH 720 0
DWIDTH 14 0
BBX 12 14 1 0
BITMAP
1F00
3FC0
7FE0
F0E0
6070
0070
FFF0
FFF0
FFF0
E070
F0E0
7FE0
3FC0
1F00
ENDCHAR
STARTCHAR 0190
ENCODING 400
SWIDTH 617 0
DWIDTH 12 0
BBX 10 14 1 0
BITMAP
1F00
7F80
7FC0
71C0
6180
7000
1C00
7C00
E000
E080
E1C0
FFC0
7F80
3F00
ENDCHAR
STARTCHAR 0191
ENCODING 401
SWIDTH 617 0
DWIDTH 12 0
BBX 12 18 -1 -4
BITMAP
3FF0
3FF0
3FF0
3800
3800
3800
3FE0
3FE0
3FE0
3800
3800
3800
3800
3800
3800
7800
F800
F000
ENDCHAR
STARTCHAR 0192
ENCODING 402
SWIDTH 565 0
DWIDTH 11 0
BBX 10 18 0 -4
BITMAP
03C0
07C0
0700
0600
1F80
1F80
0E00
0E00
0E00
0C00
0C00
0C00
1C00
1C00
1C00
1800
F800
F000
ENDCHAR
STARTCHAR 0193
ENCODING 403
SWIDTH 771 0
DWIDTH 15 0
BBX 15 16 1 0
BITMAP
001E
003E
0FB8
3FF0
7FF0
7070
E030
E000
E000
E1F8
E1F8
E1F8
7838
7FF8
3FF0
0FC0
ENDCHAR
STARTCHAR 0194
ENCODING 404
SWIDTH 617 0
DWIDTH 12 0
BBX 12 18 0 -4
BITMAP
E070
7060
70E0
30E0
39C0
39C0
1D80
1F80
0F00
0F00
0700
0700
0F00
0F00
1F80
1D80
1F80
0F00
ENDCHAR
STARTCHAR 0195
ENCODING 405
SWIDTH 925 0
DWIDTH 18 0
BBX 16 14 1 0
BITMAP
E000
E000
E000
EF07
FF87
F387
E187
E187
E187
E187
E186
E1CE
E0FE
E078
ENDCHAR
STARTCHAR 0196
ENCODING 406
SWIDTH 257 0
DWIDTH 5 0
BBX 3 14 1 0
BITMAP
E0
E0
E0
E0
E0
E0
E0
E0
E0
E0
E0
E0
E0
E0
ENDCHAR
STARTCHAR 0197
ENCODING 407
SWIDTH 257 0
DWIDTH 5 0
BBX 5 14 0 0
BITMAP
70
70
70
70
70
70
F8
F8
70
70
70
70
70
70
ENDCHAR
STARTCHAR 0198
ENCODING 408
SWIDTH 720 0
DWIDTH 14 0
BBX 12 14 1 0
BITMAP
7CF0
7DE0
E3C0
E380
E700
EE00
FF00
FF80
FB80
F1C0
E1C0
E0E0
E0F0
E070
ENDCHAR
STARTCHAR 0199
ENCODING 409
SWIDTH 565 0
DWIDTH 11 0
BBX 9 14 1 0
BITMAP
7800
F800
E000
E380
E700
EE00
FC00
FC00
FE00
FE00
E700
E700
E380
E380
ENDCHAR
STARTCHAR 019A
ENCODING 410
SWIDTH 257 0
DWIDTH 5 0
BBX 5 14 0 0
BITMAP
70
70
70
70
70
70
70
F8
70
70
70
70
70
70
ENDCHAR
STARTCHAR 019B
ENCODING 411
SWIDTH 565 0
DWIDTH 11 0
BBX 10 14 0 0
BITMAP
1A00
1F00
3C00
7C00
4E00
1E00
1F00
1F00
3B00
3380
7380
7180
61C0
E0C0
ENDCHAR
STARTCHAR 019C
ENCODING 412
SWIDTH 977 0
DWIDTH 19 0
BBX 16 14 1 0
BITMAP
E1C3
E1C3
E1C3
E1C3
E1C3
E1C3
E1C3
E1C3
E1C3
E1C3
F3C7
7FFF
7FFF
3EFB
ENDCHAR
STARTCHAR 019D
ENCODING 413
SWIDTH 720 0
DWIDTH 14 0
BBX 13 18 -1 -4
BITMAP
3818
3C18
3E18
3E18
3F18
3F18
3B98
39D8
39D8
38F8
38F8
3878
3838
3838
3800
3800
7800
F000
ENDCHAR
STARTCHAR 019E
ENCODING 414
SWIDTH 617 0
DWIDTH 12 0
BBX 9 15 1 -4
BITMAP
EF00
FF80
F380
E180
E180
E180
E180
E180
E180
E180
E180
0180
0180
0180
0180
ENDCHAR
STARTCHAR 019F
ENCODING 415
SWIDTH 771 0
DWIDTH 15 0
BBX 13 14 1 0
BITMAP
0F80
3FE0
7FF0
F070
E038
FFF8
FFF8
FFF8
E038
E038
F0F0
7FF0
3FE0
0F80
ENDCHAR
STARTCHAR 01A0
ENCODING 416
SWIDTH 822 0
DWIDTH 16 0
BBX 15 14 1 0
BITMAP
0F86
3FE6
7FF6
7072
E03E
E03C
E038
E038
E038
E038
F0F0
7FF0
3FE0
0F80
ENDCHAR
STARTCHAR 01A1
ENCODING 417
SWIDTH 720 0
DWIDTH 14 0
BBX 13 11 1 0
BITMAP
1E38
7F38
F3B8
E1D0
E1D0
C1E0
E1C0
E1C0
F380
7F00
1E00
ENDCHAR
STARTCHAR 01A2
ENCODING 418
SWIDTH 874 0
DWIDTH 17 0
BBX 14 18 1 -4
BITMAP
0F04
3FDC
7FFC
71CC
E1CC
E1CC
E1CC
E1CC
E1CC
E1CC
F1CC
7FCC
3FCC
0F8C
000C
000C
000C
000C
ENDCHAR
STARTCHAR 01A3
ENCODING 419
SWIDTH 720 0
DWIDTH 14 0
BBX 12 15 1 -4
BITMAP
3E30
7FF0
E770
E770
E770
C770
E770
E770
E770
7F70
3E70
0070
0070
0070
0070
ENDCHAR
STARTCHAR 01A4
ENCODING 420
SWIDTH 771 0
DWIDTH 15 0
BBX 14 14 0 0
BITMAP
3FF0
7FF8
FFFC
CC1C
CC1C
CC1C
0FFC
0FF8
0FF0
0C00
0C00
0C00
0C00
0C00
ENDCHAR
STARTCHAR 01A5
ENCODING 421
SWIDTH 617 0
DWIDTH 12 0
BBX 10 18 1 -4
BITMAP
7800
7800
E000
EF00
FF80
F380
E1C0
E1C0
E1C0
E1C0
E1C0
F380
FF80
EF00
E000
E000
E000
E000
ENDCHAR
STARTCHAR 01A6
ENCODING 422
SWIDTH 668 0
DWIDTH 13 0
BBX 11 17 1 -3
BITMAP
E000
E000
FF80
FFC0
FFE0
E0E0
E0E0
FFE0
FFC0
FF80
E700
E700
E380
E3C0
01C0
01E0
00E0
ENDCHAR
STARTCHAR 01A7
ENCODING 423
SWIDTH 668 0
DWIDTH 13 0
BBX 11 14 1 0
BITMAP
1F00
3FC0
7FC0
F0C0
E0C0
07C0
3F80
7F00
F000
E0E0
E1E0
FFC0
7FC0
3F00
ENDCHAR
STARTCHAR 01A8
ENCODING 424
SWIDTH 565 0
DWIDTH 11 0
BBX 9 11 1 0
BITMAP
3E00
7F00
E380
0380
1F80
7F00
F800
E000
E380
7F80
3E00
ENDCHAR
STARTCHAR 01A9
ENCODING 425
SWIDTH 565 0
DWIDTH 11 0
BBX 10 14 1 0
BITMAP
FF80
FF80
FF80
F000
7800
3C00
1E00
1C00
3800
7000
E000
FFC0
FFC0
FFC0
ENDCHAR
STARTCHAR 01AA
ENCODING 426
SWIDTH 360 0
DWIDTH 7 0
BBX 8 18 0 -4
BITMAP
70
98
98
7C
1C
1C
1C
1C
1C
1C
1C
1C
1C
1C
1C
1E
1F
0F
ENDCHAR
STARTCHAR 01AB
ENCODING 427
SWIDTH 308 0
DWIDTH 6 0
BBX 6 18 0 -4
BITMAP
10
30
70
FC
FC
70
70
70
70
70
70
30
3C
3C
1C
1C
3C
78
ENDCHAR
STARTCHAR 01AC
ENCODING 428
SWIDTH 617 0
DWIDTH 12 0
BBX 11 14 0 0
BITMAP
7FE0
7FE0
FFE0
CE00
CE00
CE00
0E00
0E00
0E00
0E00
0E00
0E00
0E00
0E00
ENDCHAR
STARTCHAR 01AD
ENCODING 429
SWIDTH 308 0
DWIDTH 6 0
BBX 7 14 0 0
BITMAP
3E
3C
70
FC
FC
70
70
70
70
70
70
30
3C
3C
ENDCHAR
STARTCHAR 01AE
ENCODING 430
SWIDTH 617 0
DWIDTH 12 0
BBX 11 18 0 -4
BITMAP
FFE0
FFE0
FFE0
0E00
0E00
0E00
0E00
0E00
0E00
0E00
0E00
0E00
0E00
0E00
0E00
0780
0780
0380
ENDCHAR
STARTCHAR 01AF
ENCODING 431
SWIDTH 822 0
DWIDTH 16 0
BBX 15 14 1 0
BITMAP
E0EE
E0EE
E0EE
E0E6
E0E4
E0F8
E0E0
E0E0
E0E0
E0E0
70E0
7FE0
3FC0
1F80
ENDCHAR
STARTCHAR 01B0
ENCODING 432
SWIDTH 720 0
DWIDTH 14 0
BBX 13 11 1 0
BITMAP
E1B8
E1B8
E1B8
E198
E190
E1E0
E180
E380
E380
7F80
3D80
ENDCHAR
STARTCHAR 01B1
ENCODING 433
SWIDTH 771 0
DWIDTH 15 0
BBX 13 14 1 0
BITMAP
FDF8
FDF8
FDF8
38E0
7070
6030
E038
E038
E038
F038
7878
7FF0
3FE0
0FC0
ENDCHAR
STARTCHAR 01B2
ENCODING 434
SWIDTH 720 0
DWIDTH 14 0
BBX 11 14 1 0
BITMAP
E3C0
E3E0
E0E0
E0E0
E0E0
E0E0
E0E0
E0E0
E0E0
E0E0
71C0
7FC0
7F80
1F00
ENDCHAR
STARTCHAR 01B3
ENCODING 435
SWIDTH 771 0
DWIDTH 15 0
BBX 15 14 0 0
BITMAP
E038
707C
38FE
38E4
1DC0
1FC0
0F80
0700
0700
0700
0700
0700
0700
0700
ENDCHAR
STARTCHAR 01B4
ENCODING 436
SWIDTH 565 0
DWIDTH 11 0
BBX 13 18 0 -4
BITMAP
0078
0078
00E0
E0C0
61C0
7180
7180
3380
3B00
3B00
1F00
1E00
1E00
0E00
0C00
1C00
7C00
7800
ENDCHAR
STARTCHAR 01B5
ENCODING 437
SWIDTH 617 0
DWIDTH 12 0
BBX 11 14 0 0
BITMAP
7FE0
7FE0
7FE0
01C0
0380
0700
FFE0
FFE0
1C00
3800
7000
FFE0
FFE0
FFE0
ENDCHAR
STARTCHAR 01B6
ENCODING 438
SWIDTH 514 0
DWIDTH 10 0
BBX 9 11 0 0
BITMAP
7F80
7F80
0700
0700
0E00
FF80
3800
7800
7000
FF80
FF80
ENDCHAR
STARTCHAR 01B7
ENCODING 439
SWIDTH 617 0
DWIDTH 12 0
BBX 10 18 1 -4
BITMAP
FFC0
FFC0
FFC0
0380
0700
0E00
1C00
3E00
3F80
0380
01C0
01C0
01C0
C1C0
E380
FF80
7F00
3E00
ENDCHAR
STARTCHAR 01B8
ENCODING 440
SWIDTH 617 0
DWIDTH 12 0
BBX 10 18 1 -4
BITMAP
FFC0
FFC0
FFC0
7000
3800
1C00
0E00
3E00
7E00
F000
E000
E000
E000
E1C0
F1C0
7F80
7F80
1E00
ENDCHAR
STARTCHAR 01B9
ENCODING 441
SWIDTH 514 0
DWIDTH 10 0
BBX 10 15 0 -4
BITMAP
7F80
7F80
7000
3800
1C00
3E00
7E00
7000
E000
E000
E000
61C0
7380
3F80
1F00
ENDCHAR
STARTCHAR 01BA
ENCODING 442
SWIDTH 514 0
DWIDTH 10 0
BBX 9 15 1 -4
BITMAP
FF00
FF00
0E00
1C00
1E00
1F00
0700
0700
0F00
7E00
F800
C380
E700
FF00
7E00
ENDCHAR
STARTCHAR 01BB
ENCODING 443
SWIDTH 565 0
DWIDTH 11 0
BBX 9 14 1 0
BITMAP
3E00
7F00
E300
C380
0300
0700
FF80
FF80
3C00
7800
7000
F000
FF80
FF80
ENDCHAR
STARTCHAR 01BC
ENCODING 444
SWIDTH 565 0
DWIDTH 11 0
BBX 9 14 1 0
BITMAP
FF00
FF00
FF00
7000
7000
7E00
7F00
7F80
0380
E380
E380
FF80
7F00
3E00
ENDCHAR
STARTCHAR 01BD
ENCODING 445
SWIDTH 462 0
DWIDTH 9 0
BBX 9 11 0 0
BITMAP
FF00
FF00
3000
3000
3E00
3F00
0380
0380
E380
7F00
3E00
ENDCHAR
STARTCHAR 01BE
ENCODING 446
SWIDTH 565 0
DWIDTH 11 0
BBX 10 14 0 0
BITMAP
1000
3000
7000
FC00
FC00
7000
3800
3F80
1FC0
07C0
00C0
71C0
3FC0
1F00
ENDCHAR
STARTCHAR 01BF
ENCODING 447
SWIDTH 617 0
DWIDTH 12 0
BBX 10 15 1 -4
BITMAP
EF00
FF80
F1C0
E1C0
E1C0
E1C0
E1C0
E180
E380
E700
EE00
F800
F000
E000
E000
ENDCHAR
STARTCHAR 01C0
ENCODING 448
SWIDTH 257 0
DWIDTH 5 0
BBX 2 14 2 0
BITMAP
C0
C0
C0
C0
C0
C0
C0
C0
C0
C0
C0
C0
C0
C0
ENDCHAR
STARTCHAR 01C1
ENCODING 449
SWIDTH 462 0
DWIDTH 9 0
BBX 6 14 2 0
BITMAP
CC
CC
CC
CC
CC
CC
CC
CC
CC
CC
CC
CC
CC
CC
ENDCHAR
STARTCHAR 01C2
ENCODING 450
SWIDTH 565 0
DWIDTH 11 0
BBX 9 14 1 0
BITMAP
0C00
0C00
0C00
FF80
FF80
FF80
0C00
0C00
FF80
FF80
FF80
0C00
0C00
0C00
ENDCHAR
STARTCHAR 01C3
ENCODING 451
SWIDTH 308 0
DWIDTH 6 0
BBX 3 14 2 0
BITMAP
E0
E0
E0
C0
C0
C0
C0
C0
C0
C0
00
C0
C0
C0
ENDCHAR
STARTCHAR 01C4
ENCODING 452
SWIDTH 1285 0
DWIDTH 25 0
BBX 24 17 1 0
BITMAP
0000D8
000070
000000
FF83FF
FFC3FF
FFE3FF
E0E00E
E0F01C
E07038
E07070
E070E0
E071E0
E073C0
E0E780
FFE7FF
FFC7FF
FF87FF
ENDCHAR
STARTCHAR 01C5
ENCODING 453
SWIDTH 1182 0
DWIDTH 23 0
BBX 22 14 1 0
BITMAP
FF81B0
FFC0E0
FFE000
E0E7FC
E0F7FC
E07038
E07070
E070F0
E070E0
E071C0
E0E3C0
FFE780
FFC7FC
FF87FC
ENDCHAR
STARTCHAR 01C6
ENCODING 454
SWIDTH 1080 0
DWIDTH 21 0
BBX 20 14 1 0
BITMAP
0186C0
018380
018000
3D9FE0
7F9FE0
E380E0
E181C0
C183C0
C18780
E18700
E18E00
E39E00
7F9FF0
3D9FF0
ENDCHAR
STARTCHAR 01C7
ENCODING 455
SWIDTH 1131 0
DWIDTH 22 0
BBX 20 14 1 0
BITMAP
E00070
E00070
E00070
E00070
E00070
E00070
E00070
E00070
E00070
E01C70
E01C70
FFDFE0
FFCFE0
FFC7C0
ENDCHAR
STARTCHAR 01C8
ENCODING 456
SWIDTH 874 0
DWIDTH 17 0
BBX 15 18 1 -4
BITMAP
E00E
E00E
E000
E00E
E00E
E00E
E00E
E00E
E00E
E00E
E00E
FFCE
FFCE
FFCE
000E
000C
003C
0038
ENDCHAR
STARTCHAR 01C9
ENCODING 457
SWIDTH 565 0
DWIDTH 11 0
BBX 8 18 1 -4
BITMAP
E3
E3
E0
E3
E3
E3
E3
E3
E3
E3
E3
E3
E3
E3
03
07
0F
1E
ENDCHAR
STARTCHAR 01CA
ENCODING 458
SWIDTH 1234 0
DWIDTH 24 0
BBX 22 14 1 0
BITMAP
E0601C
F0601C
F8601C
F8601C
FC601C
FC601C
EE601C
E7601C
E7601C
E3E71C
E3E71C
E1E7F8
E0E3F8
E0E1F0
ENDCHAR
STARTCHAR 01CB
ENCODING 459
SWIDTH 977 0
DWIDTH 19 0
BBX 17 18 1 -4
BITMAP
E06380
F06380
F86000
F86380
FC6380
FC6380
EE6380
E76380
E76380
E3E380
E3E380
E1E380
E0E380
E0E380
000380
000380
000F00
000E00
ENDCHAR
STARTCHAR 01CC
ENCODING 460
SWIDTH 874 0
DWIDTH 17 0
BBX 15 18 1 -4
BITMAP
000E
000E
0000
EF0E
FF8E
F38E
E18E
E18E
E18E
E18E
E18E
E18E
E18E
E18E
000E
000C
003C
0038
ENDCHAR
STARTCHAR 01CD
ENCODING 461
SWIDTH 720 0
DWIDTH 14 0
BBX 13 17 0 0
BITMAP
0D80
0700
0000
0700
0780
0F80
0FC0
0DC0
1CC0
18E0
38E0
3FF0
3FF0
7FF0
7038
6038
E038
ENDCHAR
STARTCHAR 01CE
ENCODING 462
SWIDTH 565 0
DWIDTH 11 0
BBX 9 14 1 0
BITMAP
3600
1C00
0000
3E00
7F00
E300
0F00
7F00
F300
C300
C300
E700
FF00
7B80
ENDCHAR
STARTCHAR 01CF
ENCODING 463
SWIDTH 257 0
DWIDTH 5 0
BBX 5 17 0 0
BITMAP
D8
70
00
70
70
70
70
70
70
70
70
70
70
70
70
70
70
ENDCHAR
STARTCHAR 01D0
ENCODING 464
SWIDTH 257 0
DWIDTH 5 0
BBX 5 14 0 0
BITMAP
D8
70
00
70
70
70
70
70
70
70
70
70
70
70
ENDCHAR
STARTCHAR 01D1
ENCODING 465
SWIDTH 771 0
DWIDTH 15 0
BBX 13 17 1 0
BITMAP
0D80
0700
0000
0F80
3FE0
7FF0
7070
E038
E038
E038
E038
E038
E038
F0F0
7FF0
3FE0
0F80
ENDCHAR
STARTCHAR 01D2
ENCODING 466
SWIDTH 617 0
DWIDTH 12 0
BBX 10 14 1 0
BITMAP
3600
1E00
0000
1E00
7F00
F380
E1C0
E1C0
C1C0
E1C0
E1C0
F380
7F00
1E00
ENDCHAR
STARTCHAR 01D3
ENCODING 467
SWIDTH 720 0
DWIDTH 14 0
BBX 11 17 1 0
BITMAP
1B80
0F00
0000
E0E0
E0E0
E0E0
E0E0
E0E0
E0E0
E0E0
E0E0
E0E0
E0E0
70E0
7FE0
3FC0
1F80
ENDCHAR
STARTCHAR 01D4
ENCODING 468
SWIDTH 617 0
DWIDTH 12 0
BBX 9 14 1 0
BITMAP
3600
1E00
0000
E180
E180
E180
E180
E180
E180
E180
E380
E380
7F80
3D80
ENDCHAR
STARTCHAR 01D5
ENCODING 469
SWIDTH 720 0
DWIDTH 14 0
BBX 11 18 1 0
BITMAP
1F00
0000
1900
0000
E0E0
E0E0
E0E0
E0E0
E0E0
E0E0
E0E0
E0E0
E0E0
E0E0
70E0
7FE0
3FC0
1F80
ENDCHAR
STARTCHAR 01D6
ENCODING 470
SWIDTH 617 0
DWIDTH 12 0
BBX 9 18 1 0
BITMAP
3F00
3F00
0000
0000
3300
3300
0000
E180
E180
E180
E180
E180
E180
E180
E380
E380
7F80
3D80
ENDCHAR
STARTCHAR 01D7
ENCODING 471
SWIDTH 720 0
DWIDTH 14 0
BBX 11 18 1 0
BITMAP
0300
0600
1900
0000
E0E0
E0E0
E0E0
E0E0
E0E0
E0E0
E0E0
E0E0
E0E0
E0E0
70E0
7FE0
3FC0
1F80
ENDCHAR
STARTCHAR 01D8
ENCODING 472
SWIDTH 617 0
DWIDTH 12 0
BBX 9 17 1 0
BITMAP
0600
0C00
0C00
3300
3300
0000
E180
E180
E180
E180
E180
E180
E180
E380
E380
7F80
3D80
ENDCHAR
STARTCHAR 01D9
ENCODING 473
SWIDTH 720 0
DWIDTH 14 0
BBX 11 18 1 0
BITMAP
0B00
0E00
1900
0000
E0E0
E0E0
E0E0
E0E0
E0E0
E0E0
E0E0
E0E0
E0E0
E0E0
70E0
7FE0
3FC0
1F80
ENDCHAR
STARTCHAR 01DA
ENCODING 474
SWIDTH 617 0
DWIDTH 12 0
BBX 9 17 1 0
BITMAP
3600
1E00
0000
3300
3300
0000
E180
E180
E180
E180
E180
E180
E180
E380
E380
7F80
3D80
ENDCHAR
STARTCHAR 01DB
ENCODING 475
SWIDTH 720 0
DWIDTH 14 0
BBX 11 18 1 0
BITMAP
0C00
0400
1900
0000
E0E0
E0E0
E0E0
E0E0
E0E0
E0E0
E0E0
E0E0
E0E0
E0E0
70E0
7FE0
3FC0
1F80
ENDCHAR
STARTCHAR 01DC
ENCODING 476
SWIDTH 617 0
DWIDTH 12 0
BBX 9 17 1 0
BITMAP
3800
1800
0C00
3300
3300
0000
E180
E180
E180
E180
E180
E180
E180
E380
E380
7F80
3D80
ENDCHAR
STARTCHAR 01DD
ENCODING 477
SWIDTH 565 0
DWIDTH 11 0
BBX 9 11 1 0
BITMAP
3E00
7F00
E700
0380
0380
FF80
FF80
C380
E300
7F00
3E00
ENDCHAR
STARTCHAR 01DE
ENCODING 478
SWIDTH 720 0
DWIDTH 14 0
BBX 13 18 0 0
BITMAP
0F80
0000
0C80
0000
0700
0780
0F80
0FC0
0DC0
1CC0
18E0
38E0
3FF0
3FF0
7FF0
7038
6038
E038
ENDCHAR
STARTCHAR 01DF
ENCODING 479
SWIDTH 565 0
DWIDTH 11 0
BBX 9 17 1 0
BITMAP
7E00
7E00
0000
6600
6600
0000
3E00
7F00
E300
0F00
7F00
F300
C300
C300
E700
FF00
7B80
ENDCHAR
STARTCHAR 01E0
ENCODING 480
SWIDTH 720 0
DWIDTH 14 0
BBX 13 18 0 0
BITMAP
0F80
0000
0300
0000
0700
0780
0F80
0FC0
0DC0
1CC0
18E0
38E0
3FF0
3FF0
7FF0
7038
6038
E038
ENDCHAR
STARTCHAR 01E1
ENCODING 481
SWIDTH 565 0
DWIDTH 11 0
BBX 9 18 1 0
BITMAP
7E00
7E00
0000
1C00
1C00
1C00
0000
3E00
7F00
E300
0F00
7F00
F300
C300
C300
E700
FF00
7B80
ENDCHAR
STARTCHAR 01E2
ENCODING 482
SWIDTH 977 0
DWIDTH 19 0
BBX 19 17 -1 0
BITMAP
003F00
003F00
000000
03FFE0
03FFE0
077FE0
077000
067000
0E7FC0
0C7FC0
1C7FC0
1FF000
3FF000
3FF000
707FE0
707FE0
E07FE0
ENDCHAR
STARTCHAR 01E3
ENCODING 483
SWIDTH 874 0
DWIDTH 17 0
BBX 15 14 1 0
BITMAP
0FC0
0FC0
0000
3EF8
7FFC
E38C
038E
0FFE
7FFE
F300
C380
E78E
FFFC
7CF8
ENDCHAR
STARTCHAR 01E4
ENCODING 484
SWIDTH 771 0
DWIDTH 15 0
BBX 14 14 1 0
BITMAP
0FC0
3FE0
7FF0
7070
E030
E000
E1F8
E1F8
E038
E1FC
7878
7FF8
3FF0
0FC0
ENDCHAR
STARTCHAR 01E5
ENCODING 485
SWIDTH 617 0
DWIDTH 12 0
BBX 11 15 0 -4
BITMAP
1EC0
3FC0
71C0
70C0
60C0
60C0
70C0
71C0
3FC0
1EC0
00C0
FFE0
71C0
3FC0
1F80
ENDCHAR
STARTCHAR 01E6
ENCODING 486
SWIDTH 771 0
DWIDTH 15 0
BBX 13 17 1 0
BITMAP
0D80
0700
0000
0FC0
3FE0
7FF0
7070
E020
E000
E000
E1F8
E1F8
E1F8
7838
7FF0
3FE0
0F80
ENDCHAR
STARTCHAR 01E7
ENCODING 487
SWIDTH 617 0
DWIDTH 12 0
BBX 9 18 1 -4
BITMAP
3600
1C00
0000
3D80
7F80
E380
E180
E180
C180
E180
E180
E380
7F80
3D80
0180
E380
FF80
3E00
ENDCHAR
STARTCHAR 01E8
ENCODING 488
SWIDTH 720 0
DWIDTH 14 0
BBX 12 17 1 0
BITMAP
1B00
0E00
0000
E0F0
E1E0
E3C0
E780
EF00
EE00
FF00
FF80
F380
E1C0
E1C0
E0E0
E0F0
E070
ENDCHAR
STARTCHAR 01E9
ENCODING 489
SWIDTH 565 0
DWIDTH 11 0
BBX 9 17 1 0
BITMAP
6C00
3800
0000
E000
E000
E000
E380
E700
EE00
FC00
FC00
FE00
FE00
E700
E700
E380
E380
ENDCHAR
STARTCHAR 01EA
ENCODING 490
SWIDTH 771 0
DWIDTH 15 0
BBX 13 18 1 -4
BITMAP
0F80
3FE0
7FF0
7070
E038
E038
E038
E038
E038
E038
F0F0
7FF0
3FE0
0F80
0300
0600
0600
0380
ENDCHAR
STARTCHAR 01EB
ENCODING 491
SWIDTH 617 0
DWIDTH 12 0
BBX 10 15 1 -4
BITMAP
1E00
7F00
F380
E1C0
E1C0
C1C0
E1C0
E1C0
F380
7F00
1E00
0C00
0C00
0C00
0E00
ENDCHAR
STARTCHAR 01EC
ENCODING 492
SWIDTH 771 0
DWIDTH 15 0
BBX 13 21 1 -4
BITMAP
1F80
1F80
0000
0F80
3FE0
7FF0
7070
E038
E038
E038
E038
E038
E038
F0F0
7FF0
3FE0
0F80
0300
0600
0600
0380
ENDCHAR
STARTCHAR 01ED
ENCODING 493
SWIDTH 617 0
DWIDTH 12 0
BBX 10 18 1 -4
BITMAP
3F00
3F00
0000
1E00
7F00
F380
E1C0
E1C0
C1C0
E1C0
E1C0
F380
7F00
1E00
0C00
0C00
0C00
0E00
ENDCHAR
STARTCHAR 01EE
ENCODING 494
SWIDTH 617 0
DWIDTH 12 0
BBX 10 21 1 -4
BITMAP
3600
1C00
0000
FFC0
FFC0
FFC0
0380
0700
0E00
1C00
3E00
3F80
0380
01C0
01C0
01C0
C1C0
E380
FF80
7F00
3E00
ENDCHAR
STARTCHAR 01EF
ENCODING 495
SWIDTH 514 0
DWIDTH 10 0
BBX 10 18 0 -4
BITMAP
1B00
0E00
0000
7F80
7F80
0380
0700
0E00
1F00
1F80
0380
01C0
01C0
01C0
E180
7380
7F00
3E00
ENDCHAR
STARTCHAR 01F0
ENCODING 496
SWIDTH 257 0
DWIDTH 5 0
BBX 6 18 -1 -4
BITMAP
6C
38
00
38
38
38
38
38
38
38
38
38
38
38
38
38
F8
F0
ENDCHAR
STARTCHAR 01F1
ENCODING 497
SWIDTH 1285 0
DWIDTH 25 0
BBX 24 14 1 0
BITMAP
FF83FF
FFC3FF
FFE3FF
E0E00E
E0F01C
E07038
E07070
E070E0
E071E0
E073C0
E0E780
FFE7FF
FFC7FF
FF87FF
ENDCHAR
STARTCHAR 01F2
ENCODING 498
SWIDTH 1182 0
DWIDTH 23 0
BBX 22 14 1 0
BITMAP
FF8000
FFC000
FFE000
E0E7FC
E0F7FC
E07038
E07070
E070F0
E070E0
E071C0
E0E3C0
FFE780
FFC7FC
FF87FC
ENDCHAR
STARTCHAR 01F3
ENCODING 499
SWIDTH 1080 0
DWIDTH 21 0
BBX 20 14 1 0
BITMAP
018000
018000
018000
3D9FE0
7F9FE0
E380E0
E181C0
C183C0
C18780
E18700
E18E00
E39E00
7F9FF0
3D9FF0
ENDCHAR
STARTCHAR 01F4
ENCODING 500
SWIDTH 771 0
DWIDTH 15 0
BBX 13 18 1 0
BITMAP
0380
0300
0600
0000
0FC0
3FE0
7FF0
7070
E020
E000
E000
E1F8
E1F8
E1F8
7838
7FF0
3FE0
0F80
ENDCHAR
STARTCHAR 01F5
ENCODING 501
SWIDTH 617 0
DWIDTH 12 0
BBX 9 19 1 -4
BITMAP
0E00
0C00
1800
0000
3D80
7F80
E380
E180
E180
C180
E180
E180
E380
7F80
3D80
0180
E380
FF80
3E00
ENDCHAR
STARTCHAR 01F6
ENCODING 502
SWIDTH 1028 0
DWIDTH 20 0
BBX 18 14 1 0
BITMAP
E06000
E06000
E06000
E061C0
E061C0
FFE1C0
FFE1C0
FFE1C0
E061C0
E06180
E06180
E07380
E07F00
E01E00
ENDCHAR
STARTCHAR 01F7
ENCODING 503
SWIDTH 668 0
DWIDTH 13 0
BBX 11 18 1 -4
BITMAP
EF00
FFC0
FFC0
F1E0
E0E0
E0E0
E0E0
E0E0
E1C0
E1C0
E380
E380
E700
EE00
FC00
F800
F000
E000
ENDCHAR
STARTCHAR 01F8
ENCODING 504
SWIDTH 720 0
DWIDTH 14 0
BBX 11 18 1 0
BITMAP
1C00
0C00
0600
0000
E060
F060
F860
F860
FC60
FC60
EE60
E760
E760
E3E0
E3E0
E1E0
E0E0
E0E0
ENDCHAR
STARTCHAR 01F9
ENCODING 505
SWIDTH 617 0
DWIDTH 12 0
BBX 9 15 1 0
BITMAP
3800
1800
0C00
0000
EF00
FF80
F380
E180
E180
E180
E180
E180
E180
E180
E180
ENDCHAR
STARTCHAR 01FA
ENCODING 506
SWIDTH 720 0
DWIDTH 14 0
BBX 13 19 0 0
BITMAP
0180
0300
0300
0500
0500
0700
0780
0F80
0FC0
0DC0
1CC0
18E0
38E0
3FF0
3FF0
7FF0
7038
6038
E038
ENDCHAR
STARTCHAR 01FB
ENCODING 507
SWIDTH 565 0
DWIDTH 11 0
BBX 9 18 1 0
BITMAP
0E00
1C00
1800
1C00
1400
1400
1C00
3E00
7F00
E300
0F00
7F00
F300
C300
C300
E700
FF00
7B80
ENDCHAR
STARTCHAR 01FC
ENCODING 508
SWIDTH 977 0
DWIDTH 19 0
BBX 19 18 -1 0
BITMAP
003800
003000
006000
000000
03FFE0
03FFE0
077FE0
077000
067000
0E7FC0
0C7FC0
1C7FC0
1FF000
3FF000
3FF000
707FE0
707FE0
E07FE0
ENDCHAR
STARTCHAR 01FD
ENCODING 509
SWIDTH 874 0
DWIDTH 17 0
BBX 15 15 1 0
BITMAP
01C0
0180
0300
0000
3EF8
7FFC
E38C
038E
0FFE
7FFE
F300
C380
E78E
FFFC
7CF8
ENDCHAR
STARTCHAR 01FE
ENCODING 510
SWIDTH 771 0
DWIDTH 15 0
BBX 13 18 1 -1
BITMAP
0380
0300
0600
0000
0F98
3FF0
7FF0
7070
E0F8
E1B8
E338
E638
EC38
F878
F0F0
7FF0
FFE0
DF80
ENDCHAR
STARTCHAR 01FF
ENCODING 511
SWIDTH 617 0
DWIDTH 12 0
BBX 10 15 1 -1
BITMAP
0E00
0C00
0800
0000
1EC0
7F80
7380
E3C0
C7C0
CDC0
D9C0
F1C0
F380
7F80
FE00
ENDCHAR
STARTCHAR 0200
ENCODING 512
SWIDTH 720 0
DWIDTH 14 0
BBX 13 18 0 0
BITMAP
3B00
1980
0D80
0000
0700
0780
0F80
0FC0
0DC0
1CC0
18E0
38E0
3FF0
3FF0
7FF0
7038
6038
E038
ENDCHAR
STARTCHAR 0201
ENCODING 513
SWIDTH 565 0
DWIDTH 11 0
BBX 9 15 1 0
BITMAP
EC00
6600
3600
0000
3E00
7F00
E300
0F00
7F00
F300
C300
C300
E700
FF00
7B80
ENDCHAR
STARTCHAR 0202
ENCODING 514
SWIDTH 720 0
DWIDTH 14 0
BBX 13 17 0 0
BITMAP
0780
08C0
0000
0700
0780
0F80
0FC0
0DC0
1CC0
18E0
38E0
3FF0
3FF0
7FF0
7038
6038
E038
ENDCHAR
STARTCHAR 0203
ENCODING 515
SWIDTH 565 0
DWIDTH 11 0
BBX 9 14 1 0
BITMAP
3C00
2200
0000
3E00
7F00
E300
0F00
7F00
F300
C300
C300
E700
FF00
7B80
ENDCHAR
STARTCHAR 0204
ENCODING 516
SWIDTH 668 0
DWIDTH 13 0
BBX 11 18 1 0
BITMAP
7600
3700
1B00
0000
FFC0
FFC0
FFC0
E000
E000
FFC0
FFC0
FFC0
E000
E000
E000
FFE0
FFE0
FFE0
ENDCHAR
STARTCHAR 0205
ENCODING 517
SWIDTH 565 0
DWIDTH 11 0
BBX 9 15 1 0
BITMAP
EC00
6600
3600
0000
3C00
7F00
E300
C380
FF80
FF80
C000
E000
E300
7F00
3E00
ENDCHAR
STARTCHAR 0206
ENCODING 518
SWIDTH 668 0
DWIDTH 13 0
BBX 11 17 1 0
BITMAP
0E00
1100
0000
FFC0
FFC0
FFC0
E000
E000
FFC0
FFC0
FFC0
E000
E000
E000
FFE0
FFE0
FFE0
ENDCHAR
STARTCHAR 0207
ENCODING 519
SWIDTH 565 0
DWIDTH 11 0
BBX 9 14 1 0
BITMAP
3C00
2200
0000
3C00
7F00
E300
C380
FF80
FF80
C000
E000
E300
7F00
3E00
ENDCHAR
STARTCHAR 0208
ENCODING 520
SWIDTH 257 0
DWIDTH 5 0
BBX 6 18 -1 0
BITMAP
DC
CC
64
00
38
38
38
38
38
38
38
38
38
38
38
38
38
38
ENDCHAR
STARTCHAR 0209
ENCODING 521
SWIDTH 257 0
DWIDTH 5 0
BBX 7 15 -2 0
BITMAP
EC
66
36
00
1C
1C
1C
1C
1C
1C
1C
1C
1C
1C
1C
ENDCHAR
STARTCHAR 020A
ENCODING 522
SWIDTH 257 0
DWIDTH 5 0
BBX 6 17 0 0
BITMAP
78
8C
00
70
70
70
70
70
70
70
70
70
70
70
70
70
70
ENDCHAR
STARTCHAR 020B
ENCODING 523
SWIDTH 257 0
DWIDTH 5 0
BBX 5 14 0 0
BITMAP
78
88
00
70
70
70
70
70
70
70
70
70
70
70
ENDCHAR
STARTCHAR 020C
ENCODING 524
SWIDTH 771 0
DWIDTH 15 0
BBX 13 18 1 0
BITMAP
3B00
1B80
0D80
0000
0F80
3FE0
7FF0
7070
E038
E038
E038
E038
E038
E038
F0F0
7FF0
3FE0
0F80
ENDCHAR
STARTCHAR 020D
ENCODING 525
SWIDTH 617 0
DWIDTH 12 0
BBX 10 15 1 0
BITMAP
EC00
6600
3200
0000
1E00
7F00
F380
E1C0
E1C0
C1C0
E1C0
E1C0
F380
7F00
1E00
ENDCHAR
STARTCHAR 020E
ENCODING 526
SWIDTH 771 0
DWIDTH 15 0
BBX 13 17 1 0
BITMAP
0F00
0880
0000
0F80
3FE0
7FF0
7070
E038
E038
E038
E038
E038
E038
F0F0
7FF0
3FE0
0F80
ENDCHAR
STARTCHAR 020F
ENCODING 527
SWIDTH 617 0
DWIDTH 12 0
BBX 10 14 1 0
BITMAP
1E00
2300
0000
1E00
7F00
F380
E1C0
E1C0
C1C0
E1C0
E1C0
F380
7F00
1E00
ENDCHAR
STARTCHAR 0210
ENCODING 528
SWIDTH 720 0
DWIDTH 14 0
BBX 12 18 1 0
BITMAP
7600
3700
1B00
0000
FFC0
FFE0
FFE0
E0E0
E070
E0E0
FFE0
FFC0
FF00
E380
E1C0
E0E0
E0F0
E070
ENDCHAR
STARTCHAR 0211
ENCODING 529
SWIDTH 360 0
DWIDTH 7 0
BBX 8 15 0 0
BITMAP
DC
6C
66
00
7F
7E
78
70
70
70
70
70
70
70
70
ENDCHAR
STARTCHAR 0212
ENCODING 530
SWIDTH 720 0
DWIDTH 14 0
BBX 12 17 1 0
BITMAP
0E00
1100
0000
FFC0
FFE0
FFE0
E0E0
E070
E0E0
FFE0
FFC0
FF00
E380
E1C0
E0E0
E0F0
E070
ENDCHAR
STARTCHAR 0213
ENCODING 531
SWIDTH 360 0
DWIDTH 7 0
BBX 7 14 1 0
BITMAP
78
C4
00
FE
FC
F0
E0
E0
E0
E0
E0
E0
E0
E0
ENDCHAR
STARTCHAR 0214
ENCODING 532
SWIDTH 720 0
DWIDTH 14 0
BBX 11 18 1 0
BITMAP
3700
1B00
1980
0000
E0E0
E0E0
E0E0
E0E0
E0E0
E0E0
E0E0
E0E0
E0E0
E0E0
70E0
7FE0
3FC0
1F80
ENDCHAR
STARTCHAR 0215
ENCODING 533
SWIDTH 617 0
DWIDTH 12 0
BBX 9 15 1 0
BITMAP
EC00
6600
3600
0000
E180
E180
E180
E180
E180
E180
E180
E380
E380
7F80
3D80
ENDCHAR
STARTCHAR 0216
ENCODING 534
SWIDTH 720 0
DWIDTH 14 0
BBX 11 17 1 0
BITMAP
0F00
1180
0000
E0E0
E0E0
E0E0
E0E0
E0E0
E0E0
E0E0
E0E0
E0E0
E0E0
70E0
7FE0
3FC0
1F80
ENDCHAR
STARTCHAR 0217
ENCODING 535
SWIDTH 617 0
DWIDTH 12 0
BBX 9 14 1 0
BITMAP
1E00
2300
0000
E180
E180
E180
E180
E180
E180
E180
E380
E380
7F80
3D80
ENDCHAR
STARTCHAR 0218
ENCODING 536
SWIDTH 668 0
DWIDTH 13 0
BBX 11 19 1 -5
BITMAP
3F00
7F80
FFC0
E1C0
E1C0
F000
7F00
1FC0
03C0
E0E0
E1E0
FFC0
7FC0
1F00
0000
0E00
0E00
0400
0800
ENDCHAR
STARTCHAR 0219
ENCODING 537
SWIDTH 565 0
DWIDTH 11 0
BBX 9 16 1 -5
BITMAP
7E00
FF00
C300
E000
FC00
7F00
1F80
0380
C300
FF00
3E00
0000
1800
1800
0800
1000
ENDCHAR
STARTCHAR 021A
ENCODING 538
SWIDTH 617 0
DWIDTH 12 0
BBX 11 19 0 -5
BITMAP
FFE0
FFE0
FFE0
0E00
0E00
0E00
0E00
0E00
0E00
0E00
0E00
0E00
0E00
0E00
0000
0E00
0E00
0600
0400
ENDCHAR
STARTCHAR 021B
ENCODING 539
SWIDTH 308 0
DWIDTH 6 0
BBX 6 19 0 -5
BITMAP
10
30
70
FC
FC
70
70
70
70
70
70
30
3C
3C
00
38
38
18
10
ENDCHAR
STARTCHAR 021C
ENCODING 540
SWIDTH 565 0
DWIDTH 11 0
BBX 9 18 1 -4
BITMAP
7E00
FF00
FF80
C380
0380
0380
0780
3F00
FF80
F380
C380
0380
0780
0F00
7F00
FC00
F000
8000
ENDCHAR
STARTCHAR 021D
ENCODING 541
SWIDTH 514 0
DWIDTH 10 0
BBX 8 15 1 -4
BITMAP
3C
FF
C7
07
07
0F
3E
FF
C7
07
07
0F
3E
F8
C0
ENDCHAR
STARTCHAR 021E
ENCODING 542
SWIDTH 720 0
DWIDTH 14 0
BBX 11 17 1 0
BITMAP
1B80
0F00
0000
E060
E060
E060
E060
E060
FFE0
FFE0
FFE0
E060
E060
E060
E060
E060
E060
ENDCHAR
STARTCHAR 021F
ENCODING 543
SWIDTH 617 0
DWIDTH 12 0
BBX 9 17 1 0
BITMAP
7600
3C00
0000
E000
E000
E000
EF00
FF80
F380
E180
E180
E180
E180
E180
E180
E180
E180
ENDCHAR
STARTCHAR 0220
ENCODING 544
SWIDTH 668 0
DWIDTH 13 0
BBX 11 18 1 -4
BITMAP
FF80
FFC0
FFE0
F0E0
E0E0
E0E0
E0E0
E0E0
E0E0
E0E0
E0E0
E0E0
E0E0
E0E0
00E0
00E0
00E0
00E0
ENDCHAR
STARTCHAR 0221
ENCODING 545
SWIDTH 822 0
DWIDTH 16 0
BBX 15 18 1 -4
BITMAP
0180
0180
0180
3D80
7F80
E380
E180
C180
C180
E180
E180
E380
7FBC
3DFC
01E6
01EE
03FC
017C
ENDCHAR
STARTCHAR 0222
ENCODING 546
SWIDTH 617 0
DWIDTH 12 0
BBX 10 14 1 0
BITMAP
0700
3F80
79C0
E1C0
E1C0
7F80
3F00
FFC0
E1C0
E1C0
E1C0
FFC0
7F80
3F00
ENDCHAR
STARTCHAR 0223
ENCODING 547
SWIDTH 617 0
DWIDTH 12 0
BBX 10 14 1 0
BITMAP
2100
7380
E1C0
E1C0
E1C0
7F80
3F00
FFC0
E1C0
E1C0
E1C0
FFC0
7F80
3F00
ENDCHAR
STARTCHAR 0224
ENCODING 548
SWIDTH 617 0
DWIDTH 12 0
BBX 11 17 0 -3
BITMAP
7FE0
7FE0
7FE0
01E0
03C0
0780
0F00
1E00
3C00
3800
7000
FFC0
FFE0
FFE0
0060
0060
0060
ENDCHAR
STARTCHAR 0225
ENCODING 549
SWIDTH 514 0
DWIDTH 10 0
BBX 9 14 0 -3
BITMAP
7F80
7F80
0700
0F00
0E00
1C00
3800
3800
7000
FF00
FF80
0180
0180
0180
ENDCHAR
STARTCHAR 0226
ENCODING 550
SWIDTH 720 0
DWIDTH 14 0
BBX 13 18 0 0
BITMAP
0700
0700
0700
0000
0700
0780
0F80
0FC0
0DC0
1CC0
18E0
38E0
3FF0
3FF0
7FF0
7038
6038
E038
ENDCHAR
STARTCHAR 0227
ENCODING 551
SWIDTH 565 0
DWIDTH 11 0
BBX 9 15 1 0
BITMAP
1C00
1C00
1C00
0000
3E00
7F00
E300
0F00
7F00
F300
C300
C300
E700
FF00
7B80
ENDCHAR
STARTCHAR 0228
ENCODING 552
SWIDTH 668 0
DWIDTH 13 0
BBX 11 17 1 -3
BITMAP
FFC0
FFC0
FFC0
E000
E000
FFC0
FFC0
FFC0
E000
E000
E000
FFE0
FFE0
FFE0
0F00
0300
1E00
ENDCHAR
STARTCHAR 0229
ENCODING 553
SWIDTH 565 0
DWIDTH 11 0
BBX 9 14 1 -3
BITMAP
3C00
7F00
E300
C380
FF80
FF80
C000
E000
E300
7F00
3E00
1C00
0600
3C00
ENDCHAR
STARTCHAR 022A
ENCODING 554
SWIDTH 771 0
DWIDTH 15 0
BBX 13 18 1 0
BITMAP
0F80
0000
0880
0000
0F80
3FE0
7FF0
7070
E038
E038
E038
E038
E038
E038
F0F0
7FF0
3FE0
0F80
ENDCHAR
STARTCHAR 022B
ENCODING 555
SWIDTH 617 0
DWIDTH 12 0
BBX 10 17 1 0
BITMAP
3F00
3F00
0000
3300
3300
0000
1E00
7F00
F380
E1C0
E1C0
C1C0
E1C0
E1C0
F380
7F00
1E00
ENDCHAR
STARTCHAR 022C
ENCODING 556
SWIDTH 771 0
DWIDTH 15 0
BBX 13 18 1 0
BITMAP
0F80
0680
0B80
0000
0F80
3FE0
7FF0
7070
E038
E038
E038
E038
E038
E038
F0F0
7FF0
3FE0
0F80
ENDCHAR
STARTCHAR 022D
ENCODING 557
SWIDTH 617 0
DWIDTH 12 0
BBX 10 18 1 0
BITMAP
3F00
3F00
0000
3900
3F00
2600
0000
1E00
7F00
F380
E1C0
E1C0
C1C0
E1C0
E1C0
F380
7F00
1E00
ENDCHAR
STARTCHAR 022E
ENCODING 558
SWIDTH 771 0
DWIDTH 15 0
BBX 13 18 1 0
BITMAP
0700
0700
0700
0000
0F80
3FE0
7FF0
7070
E038
E038
E038
E038
E038
E038
F0F0
7FF0
3FE0
0F80
ENDCHAR
STARTCHAR 022F
ENCODING 559
SWIDTH 617 0
DWIDTH 12 0
BBX 10 15 1 0
BITMAP
0C00
0C00
0C00
0000
1E00
7F00
F380
E1C0
E1C0
C1C0
E1C0
E1C0
F380
7F00
1E00
ENDCHAR
STARTCHAR 0230
ENCODING 560
SWIDTH 771 0
DWIDTH 15 0
BBX 13 18 1 0
BITMAP
0F80
0000
0200
0000
0F80
3FE0
7FF0
7070
E038
E038
E038
E038
E038
E038
F0F0
7FF0
3FE0
0F80
ENDCHAR
STARTCHAR 0231
ENCODING 561
SWIDTH 617 0
DWIDTH 12 0
BBX 10 18 1 0
BITMAP
3F00
3F00
0000
0C00
0C00
0C00
0000
1E00
7F00
F380
E1C0
E1C0
C1C0
E1C0
E1C0
F380
7F00
1E00
ENDCHAR
STARTCHAR 0232
ENCODING 562
SWIDTH 668 0
DWIDTH 13 0
BBX 12 17 0 0
BITMAP
0FC0
0FC0
0000
E070
7070
38E0
38E0
1DC0
1F80
0F80
0700
0700
0700
0700
0700
0700
0700
ENDCHAR
STARTCHAR 0233
ENCODING 563
SWIDTH 565 0
DWIDTH 11 0
BBX 10 18 0 -4
BITMAP
3F00
3F00
0000
E1C0
61C0
7180
7180
3380
3B00
3B00
1F00
1E00
1E00
0E00
0C00
1C00
7C00
7800
ENDCHAR
STARTCHAR 0234
ENCODING 564
SWIDTH 462 0
DWIDTH 9 0
BBX 8 18 1 -4
BITMAP
E0
E0
E0
E0
E0
E0
E0
E0
E0
E0
E0
E0
EE
FF
7B
73
FF
5E
ENDCHAR
STARTCHAR 0235
ENCODING 565
SWIDTH 822 0
DWIDTH 16 0
BBX 15 15 1 -4
BITMAP
EF00
FF80
F380
E180
E180
E180
E180
E180
E180
E1BC
E1FC
01EE
01CE
03FC
0178
ENDCHAR
STARTCHAR 0236
ENCODING 566
SWIDTH 514 0
DWIDTH 10 0
BBX 9 14 0 0
BITMAP
1000
3000
7000
FC00
FC00
7000
7000
7000
7700
3F80
3D80
3980
7F80
2F00
ENDCHAR
STARTCHAR 0237
ENCODING 567
SWIDTH 257 0
DWIDTH 5 0
BBX 5 15 -1 -4
BITMAP
38
38
38
38
38
38
38
38
38
38
38
38
38
F8
F0
ENDCHAR
STARTCHAR 0238
ENCODING 568
SWIDTH 925 0
DWIDTH 18 0
BBX 16 14 1 0
BITMAP
0180
0180
0180
3DBC
7FFE
E3C7
E1C7
C183
C183
E183
E1C7
E3C7
7FFE
3DBC
ENDCHAR
STARTCHAR 0239
ENCODING 569
SWIDTH 925 0
DWIDTH 18 0
BBX 16 15 1 -4
BITMAP
3DBC
7FFE
E3C7
E1C7
E183
E183
E183
E1C3
E3C7
7FFE
3DBC
0180
0180
0180
0180
ENDCHAR
STARTCHAR 023A
ENCODING 570
SWIDTH 720 0
DWIDTH 14 0
BBX 13 15 0 -1
BITMAP
0730
07A0
0FE0
0FC0
0DC0
1CC0
19E0
3BE0
3FF0
3FF0
7FF0
7C38
6838
F838
1000
ENDCHAR
STARTCHAR 023B
ENCODING 571
SWIDTH 720 0
DWIDTH 14 0
BBX 12 14 1 0
BITMAP
0FE0
3FC0
7FE0
70E0
E160
E100
E200
E600
E400
E860
78F0
7FE0
3FC0
2F80
ENDCHAR
STARTCHAR 023C
ENCODING 572
SWIDTH 565 0
DWIDTH 11 0
BBX 10 18 0 -4
BITMAP
0040
00C0
0180
1F00
3F80
73C0
77C0
7600
6400
7C00
79C0
79C0
3F80
3F00
2000
6000
4000
C000
ENDCHAR
STARTCHAR 023D
ENCODING 573
SWIDTH 617 0
DWIDTH 12 0
BBX 11 14 0 0
BITMAP
7000
7000
7000
7000
7000
7000
FE00
FE00
7000
7000
7000
7FE0
7FE0
7FE0
ENDCHAR
STARTCHAR 023E
ENCODING 574
SWIDTH 617 0
DWIDTH 12 0
BBX 11 16 0 -1
BITMAP
0060
FFE0
FFE0
FFE0
0F80
0F00
0E00
0E00
0E00
0E00
0E00
1E00
3E00
2E00
6E00
4000
ENDCHAR
STARTCHAR 023F
ENCODING 575
SWIDTH 565 0
DWIDTH 11 0
BBX 9 15 1 -4
BITMAP
7E00
FF00
C300
E000
FC00
7F00
1F80
0380
C380
FF00
7E00
3000
1A00
1F00
0E00
ENDCHAR
STARTCHAR 0240
ENCODING 576
SWIDTH 514 0
DWIDTH 10 0
BBX 9 15 0 -4
BITMAP
7F80
7F80
0700
0E00
0E00
1C00
3800
3800
7000
F000
F800
1C00
0E80
0780
0380
ENDCHAR
STARTCHAR 0241
ENCODING 577
SWIDTH 617 0
DWIDTH 12 0
BBX 10 14 1 0
BITMAP
3E00
7F80
E3C0
41C0
00C0
00C0
00C0
01C0
03C0
1F80
1F00
1C00
1C00
1C00
ENDCHAR
STARTCHAR 0242
ENCODING 578
SWIDTH 462 0
DWIDTH 9 0
BBX 9 11 0 0
BITMAP
3E00
7F00
E300
0380
0300
0700
0E00
0C00
0C00
0C00
0C00
ENDCHAR
STARTCHAR 0243
ENCODING 579
SWIDTH 720 0
DWIDTH 14 0
BBX 13 14 0 0
BITMAP
7FC0
7FF0
7FF0
7070
7070
7FE0
7FE0
7FF0
7078
FE38
7038
7FF0
7FF0
7FE0
ENDCHAR
STARTCHAR 0244
ENCODING 580
SWIDTH 720 0
DWIDTH 14 0
BBX 13 14 0 0
BITMAP
7070
7070
7070
7070
7070
FFF8
FFF8
7070
7070
7070
3870
3FF0
1FE0
0FC0
ENDCHAR
STARTCHAR 0245
ENCODING 581
SWIDTH 668 0
DWIDTH 13 0
BBX 12 14 0 0
BITMAP
0700
0F00
0F80
0F80
1F80
1DC0
19C0
39C0
38E0
30E0
70E0
7070
6070
E030
ENDCHAR
STARTCHAR 0246
ENCODING 582
SWIDTH 668 0
DWIDTH 13 0
BBX 11 16 1 -1
BITMAP
0040
FFC0
FFC0
FFC0
E180
E100
E300
FFC0
FFC0
FFC0
E400
E800
FFE0
FFE0
FFE0
2000
ENDCHAR
STARTCHAR 0247
ENCODING 583
SWIDTH 565 0
DWIDTH 11 0
BBX 9 19 1 -4
BITMAP
0180
0100
0300
0200
3E00
7F00
E700
CF80
FF80
FF80
D000
F380
F700
7F00
7E00
6000
4000
C000
8000
ENDCHAR
STARTCHAR 0248
ENCODING 584
SWIDTH 565 0
DWIDTH 11 0
BBX 10 14 0 0
BITMAP
0380
0380
0380
0380
0380
07C0
07C0
0380
0380
E380
E380
7F80
7F00
3E00
ENDCHAR
STARTCHAR 0249
ENCODING 585
SWIDTH 257 0
DWIDTH 5 0
BBX 6 18 -1 -4
BITMAP
38
38
00
38
38
38
38
7C
7C
38
38
38
38
38
38
38
F8
F0
ENDCHAR
STARTCHAR 024A
ENCODING 586
SWIDTH 771 0
DWIDTH 15 0
BBX 14 18 1 -4
BITMAP
0FF0
3FF0
7FF0
7070
E070
E070
E070
E070
E070
E070
7070
7FF0
3FF0
0FF0
0070
007C
003C
003C
ENDCHAR
STARTCHAR 024B
ENCODING 587
SWIDTH 617 0
DWIDTH 12 0
BBX 12 15 1 -4
BITMAP
3D80
7F80
E380
E180
E180
E180
E180
E180
E380
7F80
3D80
0180
01C0
01E0
00F0
ENDCHAR
STARTCHAR 024C
ENCODING 588
SWIDTH 720 0
DWIDTH 14 0
BBX 14 14 0 0
BITMAP
3FE0
3FF0
3FF0
3838
3838
FFF0
FFF0
FFC0
39C0
38E0
38F0
3870
3838
383C
ENDCHAR
STARTCHAR 024D
ENCODING 589
SWIDTH 360 0
DWIDTH 7 0
BBX 8 11 0 0
BITMAP
77
7E
78
70
70
F8
F8
70
70
70
70
ENDCHAR
STARTCHAR 024E
ENCODING 590
SWIDTH 668 0
DWIDTH 13 0
BBX 13 14 0 0
BITMAP
E070
7070
FFF8
FFF8
39C0
1DC0
0F80
0F00
0700
0700
0700
0700
0700
0700
ENDCHAR
STARTCHAR 024F
ENCODING 591
SWIDTH 565 0
DWIDTH 11 0
BBX 10 15 0 -4
BITMAP
E1C0
61C0
7180
FFC0
FFC0
3B00
3B00
1F00
1E00
1E00
0E00
0C00
1C00
7C00
7800
ENDCHAR
STARTCHAR 0250
ENCODING 592
SWIDTH 565 0
DWIDTH 11 0
BBX 9 11 1 0
BITMAP
DF00
FF80
E380
E380
E780
FF00
F800
E000
E380
7F00
3E00
ENDCHAR
STARTCHAR 0251
ENCODING 593
SWIDTH 617 0
DWIDTH 12 0
BBX 9 11 1 0
BITMAP
3D80
7F80
E380
E180
C180
C180
E180
E380
E380
7F80
3D80
ENDCHAR
STARTCHAR 0252
ENCODING 594
SWIDTH 617 0
DWIDTH 12 0
BBX 10 11 1 0
BITMAP
EF00
FF80
F380
E1C0
E1C0
E1C0
E1C0
E1C0
F380
FF80
EF00
ENDCHAR
STARTCHAR 0253
ENCODING 595
SWIDTH 617 0
DWIDTH 12 0
BBX 10 14 1 0
BITMAP
7800
F800
E000
EF00
FF80
F380
E1C0
E1C0
E1C0
E1C0
E1C0
F380
FF80
EF00
ENDCHAR
STARTCHAR 0254
ENCODING 596
SWIDTH 565 0
DWIDTH 11 0
BBX 10 11 0 0
BITMAP
1E00
3F80
7380
61C0
01C0
01C0
01C0
E1C0
7380
7F80
1E00
ENDCHAR
STARTCHAR 0255
ENCODING 597
SWIDTH 565 0
DWIDTH 11 0
BBX 10 11 0 -1
BITMAP
1F00
3F80
71C0
71C0
7000
6780
7FC0
78C0
79C0
FF80
5F00
ENDCHAR
STARTCHAR 0256
ENCODING 598
SWIDTH 617 0
DWIDTH 12 0
BBX 12 18 1 -4
BITMAP
0180
0180
0180
3D80
7F80
E380
E180
C180
C180
E180
E180
E380
7F80
3D80
0180
01C0
01E0
00F0
ENDCHAR
STARTCHAR 0257
ENCODING 599
SWIDTH 617 0
DWIDTH 12 0
BBX 12 14 1 0
BITMAP
00F0
01F0
01C0
3D80
7F80
E380
E180
C180
C180
E180
E180
E380
7F80
3D80
ENDCHAR
STARTCHAR 0258
ENCODING 600
SWIDTH 565 0
DWIDTH 11 0
BBX 9 11 1 0
BITMAP
3E00
7F00
E300
C380
FF80
FF80
0380
0380
E700
7F00
3E00
ENDCHAR
STARTCHAR 0259
ENCODING 601
SWIDTH 565 0
DWIDTH 11 0
BBX 9 11 1 0
BITMAP
3E00
7F00
E700
E380
0380
FF80
FF80
C380
E300
7F00
3E00
ENDCHAR
STARTCHAR 025A
ENCODING 602
SWIDTH 771 0
DWIDTH 15 0
BBX 14 11 1 0
BITMAP
3C00
7F00
E700
03C0
1FC0
FFE4
E3FC
C3BC
E300
7F00
3E00
ENDCHAR
STARTCHAR 025B
ENCODING 603
SWIDTH 462 0
DWIDTH 9 0
BBX 8 11 1 0
BITMAP
3C
FE
E7
E0
70
70
E0
C0
E7
FF
3C
ENDCHAR
STARTCHAR 025C
ENCODING 604
SWIDTH 462 0
DWIDTH 9 0
BBX 9 11 0 0
BITMAP
3E00
7F00
6300
0300
0E00
0F00
0300
0380
E380
7F00
3E00
ENDCHAR
STARTCHAR 025D
ENCODING 605
SWIDTH 668 0
DWIDTH 13 0
BBX 13 11 0 0
BITMAP
3E00
7FC0
63C0
03C0
0EF8
0F78
0300
0380
E380
7F00
3E00
ENDCHAR
STARTCHAR 025E
ENCODING 606
SWIDTH 565 0
DWIDTH 11 0
BBX 9 11 1 0
BITMAP
1E00
7F00
E380
E300
EF00
CF00
E380
E380
E380
7F00
3E00
ENDCHAR
STARTCHAR 025F
ENCODING 607
SWIDTH 308 0
DWIDTH 6 0
BBX 7 15 -1 -4
BITMAP
1C
1C
1C
1C
1C
1C
1C
1C
1C
7E
7E
1C
1C
78
F8
ENDCHAR
STARTCHAR 0260
ENCODING 608
SWIDTH 617 0
DWIDTH 12 0
BBX 12 18 1 -4
BITMAP
00F0
01F0
0180
3D80
7F80
E380
E180
E180
C180
E180
E380
E380
7F80
3D80
0180
E380
FF80
3E00
ENDCHAR
STARTCHAR 0261
ENCODING 609
SWIDTH 617 0
DWIDTH 12 0
BBX 9 15 1 -4
BITMAP
3D80
7F80
E380
E180
E180
C180
E180
E180
E380
7F80
3D80
0180
E380
FF80
3E00
ENDCHAR
STARTCHAR 0262
ENCODING 610
SWIDTH 565 0
DWIDTH 11 0
BBX 9 11 1 0
BITMAP
1F00
7F80
F380
E000
E000
C780
E780
E180
F180
7F80
1F00
ENDCHAR
STARTCHAR 0263
ENCODING 611
SWIDTH 565 0
DWIDTH 11 0
BBX 10 15 0 -4
BITMAP
E1C0
71C0
7180
3380
3B00
1F00
1E00
0E00
0E00
1E00
1F00
1F00
3B00
1F00
1E00
ENDCHAR
STARTCHAR 0264
ENCODING 612
SWIDTH 565 0
DWIDTH 11 0
BBX 11 11 0 0
BITMAP
79C0
FBE0
1F20
0F00
0E00
0F00
1F00
1F00
1B80
1F00
0F00
ENDCHAR
STARTCHAR 0265
ENCODING 613
SWIDTH 617 0
DWIDTH 12 0
BBX 9 15 1 -4
BITMAP
E180
E180
E180
E180
E180
E180
E180
E380
E380
7F80
3980
0180
0180
0180
0180
ENDCHAR
STARTCHAR 0266
ENCODING 614
SWIDTH 617 0
DWIDTH 12 0
BBX 9 14 1 0
BITMAP
7C00
7800
E000
EF00
FF80
F380
E180
E180
E180
E180
E180
E180
E180
E180
ENDCHAR
STARTCHAR 0267
ENCODING 615
SWIDTH 617 0
DWIDTH 12 0
BBX 9 18 1 -4
BITMAP
7C00
7800
E000
EF00
FF80
F380
E180
E180
E180
E180
E180
E180
E180
E180
0180
0180
0780
0700
ENDCHAR
STARTCHAR 0268
ENCODING 616
SWIDTH 257 0
DWIDTH 5 0
BBX 5 14 0 0
BITMAP
70
70
00
70
70
70
70
70
F8
70
70
70
70
70
ENDCHAR
STARTCHAR 0269
ENCODING 617
SWIDTH 257 0
DWIDTH 5 0
BBX 4 11 1 0
BITMAP
E0
E0
E0
E0
E0
E0
E0
E0
E0
F0
70
ENDCHAR
STARTCHAR 026A
ENCODING 618
SWIDTH 411 0
DWIDTH 8 0
BBX 6 11 1 0
BITMAP
FC
FC
30
30
30
30
30
30
30
FC
FC
ENDCHAR
STARTCHAR 026B
ENCODING 619
SWIDTH 308 0
DWIDTH 6 0
BBX 6 14 0 0
BITMAP
30
30
30
30
30
74
FC
BC
30
30
30
30
30
30
ENDCHAR
STARTCHAR 026C
ENCODING 620
SWIDTH 360 0
DWIDTH 7 0
BBX 7 14 0 0
BITMAP
18
18
18
18
18
78
D8
D8
7E
18
18
18
18
18
ENDCHAR
STARTCHAR 026D
ENCODING 621
SWIDTH 257 0
DWIDTH 5 0
BBX 5 18 1 -4
BITMAP
E0
E0
E0
E0
E0
E0
E0
E0
E0
E0
E0
E0
E0
E0
E0
E0
78
78
ENDCHAR
STARTCHAR 026E
ENCODING 622
SWIDTH 565 0
DWIDTH 11 0
BBX 10 18 1 -4
BITMAP
E000
E000
E000
FFC0
FFC0
E380
E700
EE00
EF00
EF80
E3C0
E1C0
E1C0
E1C0
01C0
E180
7F80
3F00
ENDCHAR
STARTCHAR 026F
ENCODING 623
SWIDTH 874 0
DWIDTH 17 0
BBX 15 11 1 0
BITMAP
E38E
E38E
E38E
E38E
E38E
E38E
E38E
E38E
E79E
7DFE
39EE
ENDCHAR
STARTCHAR 0270
ENCODING 624
SWIDTH 874 0
DWIDTH 17 0
BBX 15 15 1 -4
BITMAP
E38E
E38E
E38E
E38E
E38E
E38E
E38E
E38E
E79E
7DFE
39EE
000E
000E
000E
000E
ENDCHAR
STARTCHAR 0271
ENCODING 625
SWIDTH 874 0
DWIDTH 17 0
BBX 15 15 1 -4
BITMAP
EE38
FFFC
E38E
E38E
E38E
E38E
E38E
E38E
E38E
E38E
E38E
000E
000E
003C
003C
ENDCHAR
STARTCHAR 0272
ENCODING 626
SWIDTH 617 0
DWIDTH 12 0
BBX 11 15 -1 -4
BITMAP
3BC0
3FE0
3CE0
3860
3860
3860
3860
3860
3860
3860
3860
3800
3800
F800
F000
ENDCHAR
STARTCHAR 0273
ENCODING 627
SWIDTH 617 0
DWIDTH 12 0
BBX 11 15 1 -4
BITMAP
EF00
FF80
F380
E180
E180
E180
E180
E180
E180
E180
E180
0180
01E0
01E0
00E0
ENDCHAR
STARTCHAR 0274
ENCODING 628
SWIDTH 617 0
DWIDTH 12 0
BBX 9 11 1 0
BITMAP
E180
F180
F180
F980
F980
ED80
EF80
E780
E780
E380
E180
ENDCHAR
STARTCHAR 0275
ENCODING 629
SWIDTH 617 0
DWIDTH 12 0
BBX 10 11 1 0
BITMAP
1E00
7F00
E380
E1C0
FFC0
FFC0
E1C0
E1C0
F380
7F00
1E00
ENDCHAR
STARTCHAR 0276
ENCODING 630
SWIDTH 822 0
DWIDTH 16 0
BBX 14 11 1 0
BITMAP
1FFC
7FFC
E3C0
E1C0
E1FC
C1FC
E1C0
E1C0
E3C0
7FFC
3FFC
ENDCHAR
STARTCHAR 0277
ENCODING 631
SWIDTH 822 0
DWIDTH 16 0
BBX 14 11 1 0
BITMAP
0FC0
3FF0
7038
E01C
E01C
C30C
C30C
E30C
E79C
7FF8
3CF0
ENDCHAR
STARTCHAR 0278
ENCODING 632
SWIDTH 720 0
DWIDTH 14 0
BBX 12 18 1 -4
BITMAP
0600
0600
0600
1FC0
7FE0
E670
E670
E630
C630
E630
E670
E670
7FE0
1FC0
0600
0600
0600
0600
ENDCHAR
STARTCHAR 0279
ENCODING 633
SWIDTH 360 0
DWIDTH 7 0
BBX 6 11 0 0
BITMAP
0C
0C
0C
0C
0C
1C
1C
1C
1C
FC
EC
ENDCHAR
STARTCHAR 027A
ENCODING 634
SWIDTH 360 0
DWIDTH 7 0
BBX 6 14 0 0
BITMAP
0C
0C
0C
0C
0C
0C
0C
0C
0C
1C
1C
1C
FC
EC
ENDCHAR
STARTCHAR 027B
ENCODING 635
SWIDTH 360 0
DWIDTH 7 0
BBX 8 15 0 -4
BITMAP
0C
0C
0C
0C
0C
1C
1C
1C
1C
FC
EC
0C
0C
0F
07
ENDCHAR
STARTCHAR 027C
ENCODING 636
SWIDTH 360 0
DWIDTH 7 0
BBX 7 15 1 -4
BITMAP
FE
FC
F0
E0
E0
E0
E0
E0
E0
E0
E0
E0
E0
E0
E0
ENDCHAR
STARTCHAR 027D
ENCODING 637
SWIDTH 360 0
DWIDTH 7 0
BBX 7 15 1 -4
BITMAP
FE
FC
F0
E0
E0
E0
E0
E0
E0
E0
E0
E0
E0
78
78
ENDCHAR
STARTCHAR 027E
ENCODING 638
SWIDTH 360 0
DWIDTH 7 0
BBX 7 11 1 0
BITMAP
3E
7C
60
E0
E0
E0
E0
E0
E0
E0
E0
ENDCHAR
STARTCHAR 027F
ENCODING 639
SWIDTH 360 0
DWIDTH 7 0
BBX 6 15 0 -4
BITMAP
F0
F8
1C
1C
0C
0C
0C
0C
0C
0C
0C
0C
0C
0C
0C
ENDCHAR
STARTCHAR 0280
ENCODING 640
SWIDTH 565 0
DWIDTH 11 0
BBX 10 11 1 0
BITMAP
FF00
FF80
E380
E180
E380
FF80
FE00
E700
E700
E380
E1C0
ENDCHAR
STARTCHAR 0281
ENCODING 641
SWIDTH 565 0
DWIDTH 11 0
BBX 10 11 1 0
BITMAP
E1C0
E380
E700
E700
FE00
FF80
E380
E180
E380
FF80
FF00
ENDCHAR
STARTCHAR 0282
ENCODING 642
SWIDTH 565 0
DWIDTH 11 0
BBX 10 15 0 -4
BITMAP
3F00
7F80
6180
7000
7E00
3F80
0FC0
01C0
E1C0
FF80
FF00
E000
6000
7800
7800
ENDCHAR
STARTCHAR 0283
ENCODING 643
SWIDTH 308 0
DWIDTH 6 0
BBX 8 18 -1 -4
BITMAP
0F
1F
1C
1C
1C
1C
1C
1C
1C
1C
1C
1C
1C
1C
1C
1C
78
F8
ENDCHAR
STARTCHAR 0284
ENCODING 644
SWIDTH 308 0
DWIDTH 6 0
BBX 8 18 -1 -4
BITMAP
0F
1F
1C
1C
1C
1C
1C
1C
1C
1C
1C
1C
7E
7E
1C
1C
78
F8
ENDCHAR
STARTCHAR 0285
ENCODING 645
SWIDTH 308 0
DWIDTH 6 0
BBX 8 15 -1 -4
BITMAP
F0
F8
18
18
18
18
18
18
18
18
18
18
18
1F
0F
ENDCHAR
STARTCHAR 0286
ENCODING 646
SWIDTH 514 0
DWIDTH 10 0
BBX 11 18 0 -4
BITMAP
01E0
03E0
0380
0380
0380
0380
0380
0380
0380
0380
0380
0380
3B80
7F80
EF00
E700
7F80
3D00
ENDCHAR
STARTCHAR 0287
ENCODING 647
SWIDTH 308 0
DWIDTH 6 0
BBX 6 14 0 0
BITMAP
F0
F8
38
38
38
38
38
38
38
FC
FC
38
30
20
ENDCHAR
STARTCHAR 0288
ENCODING 648
SWIDTH 308 0
DWIDTH 6 0
BBX 6 18 0 -4
BITMAP
10
30
70
FC
FC
70
70
70
70
70
70
70
70
70
70
30
3C
3C
ENDCHAR
STARTCHAR 0289
ENCODING 649
SWIDTH 617 0
DWIDTH 12 0
BBX 11 11 0 0
BITMAP
70C0
70C0
70C0
70C0
70C0
FFE0
70C0
71C0
71C0
3FC0
1EC0
ENDCHAR
STARTCHAR 028A
ENCODING 650
SWIDTH 617 0
DWIDTH 12 0
BBX 10 11 1 0
BITMAP
E1C0
E3C0
6380
6180
E1C0
C1C0
C1C0
E1C0
E380
7F80
3E00
ENDCHAR
STARTCHAR 028B
ENCODING 651
SWIDTH 565 0
DWIDTH 11 0
BBX 9 11 1 0
BITMAP
EF00
EF80
E380
E180
E180
E180
E380
E380
6300
7F00
3E00
ENDCHAR
STARTCHAR 028C
ENCODING 652
SWIDTH 565 0
DWIDTH 11 0
BBX 10 11 0 0
BITMAP
0E00
0E00
1E00
1F00
1B00
3B00
3380
7180
71C0
61C0
E0C0
ENDCHAR
STARTCHAR 028D
ENCODING 653
SWIDTH 771 0
DWIDTH 15 0
BBX 15 11 0 0
BITMAP
1C70
1C70
3CF0
3EF8
36F8
36D8
76D8
779C
638C
638C
E38E
ENDCHAR
STARTCHAR 028E
ENCODING 654
SWIDTH 565 0
DWIDTH 11 0
BBX 10 14 0 0
BITMAP
0700
0600
0600
0E00
0E00
1E00
1F00
1F00
3B00
3B80
7380
7180
61C0
E0C0
ENDCHAR
STARTCHAR 028F
ENCODING 655
SWIDTH 565 0
DWIDTH 11 0
BBX 10 11 0 0
BITMAP
F1C0
71C0
3380
3B80
1B00
0E00
0E00
0E00
0E00
0E00
0E00
ENDCHAR
STARTCHAR 0290
ENCODING 656
SWIDTH 514 0
DWIDTH 10 0
BBX 11 15 0 -4
BITMAP
7F80
7F80
0700
0F00
0E00
1C00
3800
3800
7000
FF80
FF80
0180
0180
01E0
00E0
ENDCHAR
STARTCHAR 0291
ENCODING 657
SWIDTH 668 0
DWIDTH 13 0
BBX 13 13 0 -2
BITMAP
7F80
7F80
0700
0E00
0E00
1CE0
39F0
3BB8
7738
FFF0
FFE0
1C00
0800
ENDCHAR
STARTCHAR 0292
ENCODING 658
SWIDTH 514 0
DWIDTH 10 0
BBX 10 15 0 -4
BITMAP
7F80
7F80
0380
0700
0E00
1F00
1F80
0380
01C0
01C0
01C0
E180
7380
7F00
3E00
ENDCHAR
STARTCHAR 0293
ENCODING 659
SWIDTH 514 0
DWIDTH 10 0
BBX 10 15 0 -4
BITMAP
7F80
7F80
0380
0700
0E00
1F00
1F80
0380
01C0
3DC0
7FC0
E780
E380
7FC0
3E80
ENDCHAR
STARTCHAR 0294
ENCODING 660
SWIDTH 565 0
DWIDTH 11 0
BBX 9 14 1 0
BITMAP
3C00
7F00
E700
C380
0380
0380
0380
0700
1F00
1E00
1800
1800
1800
1800
ENDCHAR
STARTCHAR 0295
ENCODING 661
SWIDTH 565 0
DWIDTH 11 0
BBX 9 14 1 0
BITMAP
3E00
7F00
E380
E380
C000
C000
E000
E000
7C00
3C00
1C00
1C00
1C00
1C00
ENDCHAR
STARTCHAR 0296
ENCODING 662
SWIDTH 565 0
DWIDTH 11 0
BBX 9 14 1 0
BITMAP
1800
1800
1800
1800
1E00
1F00
0700
0380
0380
0380
C380
E700
7F00
3C00
ENDCHAR
STARTCHAR 0297
ENCODING 663
SWIDTH 565 0
DWIDTH 11 0
BBX 9 15 1 -4
BITMAP
3E00
7F00
E380
E380
C000
C000
C000
C000
C000
C000
C000
E380
E380
7F00
3E00
ENDCHAR
STARTCHAR 0298
ENCODING 664
SWIDTH 771 0
DWIDTH 15 0
BBX 13 14 1 0
BITMAP
0F80
3FE0
7FF0
7070
E038
E738
E738
E738
E038
E038
F0F0
7FF0
3FE0
0F80
ENDCHAR
STARTCHAR 0299
ENCODING 665
SWIDTH 617 0
DWIDTH 12 0
BBX 10 11 1 0
BITMAP
FF00
FF80
E1C0
E180
FF80
FF80
E1C0
E1C0
E1C0
FFC0
FF80
ENDCHAR
STARTCHAR 029A
ENCODING 666
SWIDTH 565 0
DWIDTH 11 0
BBX 9 11 1 0
BITMAP
3C00
FF00
E700
E380
7380
7380
E380
C380
E700
FF00
3C00
ENDCHAR
STARTCHAR 029B
ENCODING 667
SWIDTH 565 0
DWIDTH 11 0
BBX 12 13 1 0
BITMAP
00F0
01F0
1FC0
7F80
F380
E000
E000
C780
E780
E180
F180
7F80
1F00
ENDCHAR
STARTCHAR 029C
ENCODING 668
SWIDTH 565 0
DWIDTH 11 0
BBX 9 11 1 0
BITMAP
E180
E180
E180
E180
FF80
FF80
E180
E180
E180
E180
E180
ENDCHAR
STARTCHAR 029D
ENCODING 669
SWIDTH 462 0
DWIDTH 9 0
BBX 9 18 0 -4
BITMAP
0600
0600
0000
0600
0600
0600
0600
0600
0600
0600
0600
0600
3F80
7F80
E600
E600
7E00
3C00
ENDCHAR
STARTCHAR 029E
ENCODING 670
SWIDTH 565 0
DWIDTH 11 0
BBX 9 15 0 -4
BITMAP
E180
7180
7180
3980
1B80
1F80
0F80
1D80
1980
3980
7180
0180
0180
0180
0180
ENDCHAR
STARTCHAR 029F
ENCODING 671
SWIDTH 462 0
DWIDTH 9 0
BBX 7 11 1 0
BITMAP
E0
E0
E0
E0
E0
E0
E0
E0
E0
FE
FE
ENDCHAR
STARTCHAR 02A0
ENCODING 672
SWIDTH 617 0
DWIDTH 12 0
BBX 12 18 1 -4
BITMAP
00F0
01F0
01C0
3D80
7F80
E380
E180
E180
E180
E180
E180
E380
7F80
3D80
0180
0180
0180
0180
ENDCHAR
STARTCHAR 02A1
ENCODING 673
SWIDTH 565 0
DWIDTH 11 0
BBX 9 14 1 0
BITMAP
3C00
7F00
E700
C380
0380
0380
0380
0700
1F00
1E00
1800
FF00
FF00
1800
ENDCHAR
STARTCHAR 02A2
ENCODING 674
SWIDTH 565 0
DWIDTH 11 0
BBX 9 14 1 0
BITMAP
3E00
7F00
E380
E380
C000
C000
E000
E000
7C00
3C00
1C00
FF80
FF80
1C00
ENDCHAR
STARTCHAR 02A3
ENCODING 675
SWIDTH 1028 0
DWIDTH 20 0
BBX 18 14 1 0
BITMAP
018000
018000
018000
3DFFC0
7FFFC0
E38380
E18780
C18700
C18E00
E19E00
E19C00
E3B800
7FFFC0
3DFFC0
ENDCHAR
STARTCHAR 02A4
ENCODING 676
SWIDTH 925 0
DWIDTH 18 0
BBX 16 18 1 -4
BITMAP
0180
0180
0180
3DFF
7FFF
E387
E18E
C19C
C1BE
E1BF
E187
E383
7F83
3D83
0003
01C7
01FE
007C
ENDCHAR
STARTCHAR 02A5
ENCODING 677
SWIDTH 1182 0
DWIDTH 23 0
BBX 22 16 1 -2
BITMAP
018000
018000
018000
3DFFC0
7FFFC0
E38380
E18700
C18700
C18E78
E19CF8
E19DDC
E3BB9C
7FFFF8
3DFFF0
000E00
000600
ENDCHAR
STARTCHAR 02A6
ENCODING 678
SWIDTH 771 0
DWIDTH 15 0
BBX 15 14 0 0
BITMAP
1000
3000
7000
FFF8
FFFC
731C
7300
73E0
71FC
707C
700E
300C
3FFC
3FF8
ENDCHAR
STARTCHAR 02A7
ENCODING 679
SWIDTH 514 0
DWIDTH 10 0
BBX 11 18 0 -4
BITMAP
11E0
33E0
7380
FF00
FF00
7300
7300
7300
7300
7300
7300
3300
3F00
3F00
0300
0300
1F00
1E00
ENDCHAR
STARTCHAR 02A8
ENCODING 680
SWIDTH 822 0
DWIDTH 16 0
BBX 15 14 0 0
BITMAP
1000
3000
7000
FCF8
FDFC
738E
738E
7380
73BC
73FE
73C6
33CE
3FFE
3C78
ENDCHAR
STARTCHAR 02A9
ENCODING 681
SWIDTH 874 0
DWIDTH 17 0
BBX 15 18 0 -4
BITMAP
1E00
3E00
3000
FFBC
FFFE
33CE
3386
3386
3386
3386
3386
3386
3386
3386
0006
000E
001E
003C
ENDCHAR
STARTCHAR 02AA
ENCODING 682
SWIDTH 771 0
DWIDTH 15 0
BBX 13 14 1 0
BITMAP
E000
E000
E000
E3E0
EFF0
EE30
EE00
EFC0
E7F0
E1F8
E038
F838
FFF0
EFE0
ENDCHAR
STARTCHAR 02AB
ENCODING 683
SWIDTH 668 0
DWIDTH 13 0
BBX 12 14 1 0
BITMAP
E000
E000
E000
FFE0
FFE0
E0E0
E1C0
E380
E380
E700
EE00
EE00
FFF0
FFF0
ENDCHAR
STARTCHAR 02AC
ENCODING 684
SWIDTH 514 0
DWIDTH 10 0
BBX 10 14 0 0
BITMAP
CCC0
4C80
6F80
7F80
3300
3300
0000
0000
CCC0
4C80
6F80
7F80
3300
3300
ENDCHAR
STARTCHAR 02AD
ENCODING 685
SWIDTH 565 0
DWIDTH 11 0
BBX 8 14 1 0
BITMAP
FF
FF
FF
E3
E3
00
00
00
00
FF
FF
FF
E3
E3
ENDCHAR
STARTCHAR 02AE
ENCODING 686
SWIDTH 720 0
DWIDTH 14 0
BBX 13 15 0 -4
BITMAP
F038
F838
1C38
1C38
0C38
0C38
0C38
0C38
0E78
0FF8
07B8
0038
0038
0038
0038
ENDCHAR
STARTCHAR 02AF
ENCODING 687
SWIDTH 720 0
DWIDTH 14 0
BBX 16 15 0 -4
BITMAP
F038
F838
1C38
1C38
0C38
0C38
0C38
0C38
0E78
0FF8
07B8
0038
0038
001F
000F
ENDCHAR
STARTCHAR 02B0
ENCODING 688
SWIDTH 360 0
DWIDTH 7 0
BBX 7 10 0 4
BITMAP
C0
C0
C0
DC
FC
E6
C6
C6
C6
C6
ENDCHAR
STARTCHAR 02B1
ENCODING 689
SWIDTH 360 0
DWIDTH 7 0
BBX 7 10 0 4
BITMAP
70
70
C0
DC
FC
E6
C6
C6
C6
C6
ENDCHAR
STARTCHAR 02B2
ENCODING 690
SWIDTH 205 0
DWIDTH 4 0
BBX 3 12 0 2
BITMAP
60
60
00
60
60
60
60
60
60
60
E0
C0
ENDCHAR
STARTCHAR 02B3
ENCODING 691
SWIDTH 257 0
DWIDTH 5 0
BBX 5 7 0 4
BITMAP
F8
F0
E0
C0
C0
C0
C0
ENDCHAR
STARTCHAR 02B4
ENCODING 692
SWIDTH 257 0
DWIDTH 5 0
BBX 4 7 0 4
BITMAP
10
10
10
10
30
F0
D0
ENDCHAR
STARTCHAR 02B5
ENCODING 693
SWIDTH 257 0
DWIDTH 5 0
BBX 6 9 0 2
BITMAP
10
10
10
10
30
F0
D0
1C
1C
ENDCHAR
STARTCHAR 02B6
ENCODING 694
SWIDTH 360 0
DWIDTH 7 0
BBX 7 7 0 4
BITMAP
C6
CC
CC
FC
C6
C6
FC
ENDCHAR
STARTCHAR 02B7
ENCODING 695
SWIDTH 514 0
DWIDTH 10 0
BBX 10 7 0 4
BITMAP
CCC0
CC80
5D80
7F80
7780
3300
3300
ENDCHAR
STARTCHAR 02B8
ENCODING 696
SWIDTH 360 0
DWIDTH 7 0
BBX 7 9 0 2
BITMAP
C6
4C
6C
2C
38
38
30
F0
60
ENDCHAR
STARTCHAR 02B9
ENCODING 697
SWIDTH 257 0
DWIDTH 5 0
BBX 3 5 1 9
BITMAP
E0
E0
E0
E0
C0
ENDCHAR
STARTCHAR 02BA
ENCODING 698
SWIDTH 462 0
DWIDTH 9 0
BBX 7 5 1 9
BITMAP
EE
EE
EE
EE
E6
ENDCHAR
STARTCHAR 02BB
ENCODING 699
SWIDTH 257 0
DWIDTH 5 0
BBX 3 6 1 8
BITMAP
20
40
40
E0
E0
E0
ENDCHAR
STARTCHAR 02BC
ENCODING 700
SWIDTH 257 0
DWIDTH 5 0
BBX 3 6 1 8
BITMAP
E0
E0
E0
60
40
C0
ENDCHAR
STARTCHAR 02BD
ENCODING 701
SWIDTH 257 0
DWIDTH 5 0
BBX 3 6 1 8
BITMAP
E0
E0
E0
C0
40
20
ENDCHAR
STARTCHAR 02BE
ENCODING 702
SWIDTH 308 0
DWIDTH 6 0
BBX 2 4 2 12
BITMAP
80
40
40
80
ENDCHAR
STARTCHAR 02BF
ENCODING 703
SWIDTH 308 0
DWIDTH 6 0
BBX 2 4 2 12
BITMAP
40
80
80
40
ENDCHAR
STARTCHAR 02C0
ENCODING 704
SWIDTH 360 0
DWIDTH 7 0
BBX 7 10 0 4
BITMAP
38
7C
C6
06
06
1C
18
10
10
10
ENDCHAR
STARTCHAR 02C1
ENCODING 705
SWIDTH 360 0
DWIDTH 7 0
BBX 7 10 0 4
BITMAP
38
7C
66
C0
60
78
38
18
18
18
ENDCHAR
STARTCHAR 02C2
ENCODING 706
SWIDTH 565 0
DWIDTH 11 0
BBX 9 10 1 2
BITMAP
0080
0380
1F80
7F00
F000
F000
7F00
1F80
0380
0080
ENDCHAR
STARTCHAR 02C3
ENCODING 707
SWIDTH 565 0
DWIDTH 11 0
BBX 9 10 1 2
BITMAP
8000
E000
FC00
3F00
0780
0780
7F00
FC00
E000
8000
ENDCHAR
STARTCHAR 02C4
ENCODING 708
SWIDTH 565 0
DWIDTH 11 0
BBX 9 9 1 2
BITMAP
1C00
1C00
3E00
3600
7700
6300
6380
E180
C180
ENDCHAR
STARTCHAR 02C5
ENCODING 709
SWIDTH 565 0
DWIDTH 11 0
BBX 9 9 1 2
BITMAP
C180
E180
6380
6300
7700
3600
3E00
1C00
1C00
ENDCHAR
STARTCHAR 02C6
ENCODING 710
SWIDTH 308 0
DWIDTH 6 0
BBX 5 2 1 12
BITMAP
F0
D8
ENDCHAR
STARTCHAR 02C7
ENCODING 711
SWIDTH 308 0
DWIDTH 6 0
BBX 5 2 1 12
BITMAP
D8
F0
ENDCHAR
STARTCHAR 02C8
ENCODING 712
SWIDTH 308 0
DWIDTH 6 0
BBX 1 3 3 12
BITMAP
80
80
80
ENDCHAR
STARTCHAR 02C9
ENCODING 713
SWIDTH 308 0
DWIDTH 6 0
BBX 6 2 0 12
BITMAP
FC
FC
ENDCHAR
STARTCHAR 02CA
ENCODING 714
SWIDTH 308 0
DWIDTH 6 0
BBX 4 3 2 12
BITMAP
70
E0
C0
ENDCHAR
STARTCHAR 02CB
ENCODING 715
SWIDTH 308 0
DWIDTH 6 0
BBX 3 3 1 12
BITMAP
E0
60
20
ENDCHAR
STARTCHAR 02CC
ENCODING 716
SWIDTH 308 0
DWIDTH 6 0
BBX 1 3 3 -4
BITMAP
80
80
80
ENDCHAR
STARTCHAR 02CD
ENCODING 717
SWIDTH 308 0
DWIDTH 6 0
BBX 6 2 0 -3
BITMAP
FC
FC
ENDCHAR
STARTCHAR 02CE
ENCODING 718
SWIDTH 308 0
DWIDTH 6 0
BBX 3 3 1 -4
BITMAP
E0
60
20
ENDCHAR
STARTCHAR 02CF
ENCODING 719
SWIDTH 308 0
DWIDTH 6 0
BBX 4 3 2 -4
BITMAP
70
E0
C0
ENDCHAR
STARTCHAR 02D0
ENCODING 720
SWIDTH 308 0
DWIDTH 6 0
BBX 2 11 2 0
BITMAP
C0
C0
40
00
00
00
00
00
40
C0
C0
ENDCHAR
STARTCHAR 02D1
ENCODING 721
SWIDTH 308 0
DWIDTH 6 0
BBX 2 3 2 8
BITMAP
C0
C0
40
ENDCHAR
STARTCHAR 02D2
ENCODING 722
SWIDTH 308 0
DWIDTH 6 0
BBX 2 4 2 1
BITMAP
80
40
40
80
ENDCHAR
STARTCHAR 02D3
ENCODING 723
SWIDTH 308 0
DWIDTH 6 0
BBX 2 4 2 1
BITMAP
40
80
80
40
ENDCHAR
STARTCHAR 02D4
ENCODING 724
SWIDTH 308 0
DWIDTH 6 0
BBX 3 3 2 2
BITMAP
40
40
E0
ENDCHAR
STARTCHAR 02D5
ENCODING 725
SWIDTH 308 0
DWIDTH 6 0
BBX 3 3 2 2
BITMAP
E0
40
40
ENDCHAR
STARTCHAR 02D6
ENCODING 726
SWIDTH 308 0
DWIDTH 6 0
BBX 3 3 2 2
BITMAP
40
E0
40
ENDCHAR
STARTCHAR 02D7
ENCODING 727
SWIDTH 308 0
DWIDTH 6 0
BBX 6 2 0 3
BITMAP
FC
FC
ENDCHAR
STARTCHAR 02D8
ENCODING 728
SWIDTH 308 0
DWIDTH 6 0
BBX 6 2 0 12
BITMAP
C4
78
ENDCHAR
STARTCHAR 02D9
ENCODING 729
SWIDTH 308 0
DWIDTH 6 0
BBX 2 3 2 11
BITMAP
C0
C0
C0
ENDCHAR
STARTCHAR 02DA
ENCODING 730
SWIDTH 308 0
DWIDTH 6 0
BBX 4 4 1 10
BITMAP
60
90
90
60
ENDCHAR
STARTCHAR 02DB
ENCODING 731
SWIDTH 308 0
DWIDTH 6 0
BBX 3 4 1 -4
BITMAP
C0
C0
C0
E0
ENDCHAR
STARTCHAR 02DC
ENCODING 732
SWIDTH 308 0
DWIDTH 6 0
BBX 6 3 0 11
BITMAP
E4
FC
9C
ENDCHAR
STARTCHAR 02DD
ENCODING 733
SWIDTH 308 0
DWIDTH 6 0
BBX 7 3 1 11
BITMAP
7E
6C
C8
ENDCHAR
STARTCHAR 02DE
ENCODING 734
SWIDTH 308 0
DWIDTH 6 0
BBX 5 4 0 3
BITMAP
C0
C0
78
78
ENDCHAR
STARTCHAR 02DF
ENCODING 735
SWIDTH 308 0
DWIDTH 6 0
BBX 6 6 0 8
BITMAP
84
4C
38
38
4C
84
ENDCHAR
STARTCHAR 02E0
ENCODING 736
SWIDTH 360 0
DWIDTH 7 0
BBX 7 9 0 2
BITMAP
C6
6C
6C
38
38
38
38
28
38
ENDCHAR
STARTCHAR 02E1
ENCODING 737
SWIDTH 154 0
DWIDTH 3 0
BBX 2 10 0 4
BITMAP
C0
C0
C0
C0
C0
C0
C0
C0
C0
C0
ENDCHAR
STARTCHAR 02E2
ENCODING 738
SWIDTH 360 0
DWIDTH 7 0
BBX 6 7 1 4
BITMAP
78
88
C0
F8
1C
8C
F8
ENDCHAR
STARTCHAR 02E3
ENCODING 739
SWIDTH 360 0
DWIDTH 7 0
BBX 7 7 0 4
BITMAP
EC
6C
38
38
38
6C
CE
ENDCHAR
STARTCHAR 02E4
ENCODING 740
SWIDTH 360 0
DWIDTH 7 0
BBX 7 10 0 4
BITMAP
38
7C
66
C0
60
78
38
18
18
18
ENDCHAR
STARTCHAR 02E5
ENCODING 741
SWIDTH 360 0
DWIDTH 7 0
BBX 5 14 1 0
BITMAP
F8
18
18
18
18
18
18
18
18
18
18
18
18
18
ENDCHAR
STARTCHAR 02E6
ENCODING 742
SWIDTH 360 0
DWIDTH 7 0
BBX 5 14 1 0
BITMAP
18
18
18
18
F8
18
18
18
18
18
18
18
18
18
ENDCHAR
STARTCHAR 02E7
ENCODING 743
SWIDTH 360 0
DWIDTH 7 0
BBX 5 14 1 0
BITMAP
18
18
18
18
18
18
18
F8
18
18
18
18
18
18
ENDCHAR
STARTCHAR 02E8
ENCODING 744
SWIDTH 360 0
DWIDTH 7 0
BBX 5 14 1 0
BITMAP
18
18
18
18
18
18
18
18
18
18
F8
18
18
18
ENDCHAR
STARTCHAR 02E9
ENCODING 745
SWIDTH 360 0
DWIDTH 7 0
BBX 5 14 1 0
BITMAP
18
18
18
18
18
18
18
18
18
18
18
18
18
F8
ENDCHAR
STARTCHAR 02EA
ENCODING 746
SWIDTH 308 0
DWIDTH 6 0
BBX 4 8 1 0
BITMAP
80
80
80
80
80
80
80
F0
ENDCHAR
STARTCHAR 02EB
ENCODING 747
SWIDTH 308 0
DWIDTH 6 0
BBX 4 8 1 0
BITMAP
80
80
80
F0
80
80
80
80
ENDCHAR
STARTCHAR 02EC
ENCODING 748
SWIDTH 308 0
DWIDTH 6 0
BBX 5 2 1 -4
BITMAP
D8
F0
ENDCHAR
STARTCHAR 02ED
ENCODING 749
SWIDTH 308 0
DWIDTH 6 0
BBX 6 3 0 12
BITMAP
FC
00
FC
ENDCHAR
STARTCHAR 02EE
ENCODING 750
SWIDTH 514 0
DWIDTH 10 0
BBX 7 6 1 8
BITMAP
E6
E6
E6
62
46
84
ENDCHAR
STARTCHAR 02EF
ENCODING 751
SWIDTH 308 0
DWIDTH 6 0
BBX 4 3 1 -4
BITMAP
D0
60
20
ENDCHAR
STARTCHAR 02F0
ENCODING 752
SWIDTH 308 0
DWIDTH 6 0
BBX 4 3 1 -4
BITMAP
20
60
D0
ENDCHAR
STARTCHAR 02F1
ENCODING 753
SWIDTH 308 0
DWIDTH 6 0
BBX 2 4 2 -4
BITMAP
40
C0
C0
40
ENDCHAR
STARTCHAR 02F2
ENCODING 754
SWIDTH 308 0
DWIDTH 6 0
BBX 2 4 2 -4
BITMAP
80
40
40
80
ENDCHAR
STARTCHAR 02F3
ENCODING 755
SWIDTH 308 0
DWIDTH 6 0
BBX 4 4 1 -4
BITMAP
60
90
90
60
ENDCHAR
STARTCHAR 02F4
ENCODING 756
SWIDTH 308 0
DWIDTH 6 0
BBX 3 3 1 2
BITMAP
E0
60
20
ENDCHAR
STARTCHAR 02F5
ENCODING 757
SWIDTH 308 0
DWIDTH 6 0
BBX 7 3 0 2
BITMAP
DC
6C
66
ENDCHAR
STARTCHAR 02F6
ENCODING 758
SWIDTH 308 0
DWIDTH 6 0
BBX 7 3 0 2
BITMAP
6E
CC
98
ENDCHAR
STARTCHAR 02F7
ENCODING 759
SWIDTH 308 0
DWIDTH 6 0
BBX 6 3 0 -4
BITMAP
E4
FC
9C
ENDCHAR
STARTCHAR 02F8
ENCODING 760
SWIDTH 308 0
DWIDTH 6 0
BBX 2 10 2 4
BITMAP
C0
C0
C0
00
00
00
00
C0
C0
C0
ENDCHAR
STARTCHAR 02F9
ENCODING 761
SWIDTH 308 0
DWIDTH 6 0
BBX 3 3 2 11
BITMAP
E0
80
80
ENDCHAR
STARTCHAR 02FA
ENCODING 762
SWIDTH 308 0
DWIDTH 6 0
BBX 3 3 2 11
BITMAP
E0
20
20
ENDCHAR
STARTCHAR 02FB
ENCODING 763
SWIDTH 308 0
DWIDTH 6 0
BBX 3 3 2 -4
BITMAP
80
80
E0
ENDCHAR
STARTCHAR 02FC
ENCODING 764
SWIDTH 308 0
DWIDTH 6 0
BBX 3 3 2 -4
BITMAP
20
20
E0
ENDCHAR
STARTCHAR 02FD
ENCODING 765
SWIDTH 411 0
DWIDTH 8 0
BBX 7 3 0 -4
BITMAP
C2
C2
FE
ENDCHAR
STARTCHAR 02FE
ENCODING 766
SWIDTH 411 0
DWIDTH 8 0
BBX 7 3 0 -4
BITMAP
C0
C0
FE
ENDCHAR
STARTCHAR 02FF
ENCODING 767
SWIDTH 308 0
DWIDTH 6 0
BBX 5 5 1 -4
BITMAP
40
80
F8
80
40
ENDCHAR
STARTCHAR 0300
ENCODING 768
SWIDTH 0 0
DWIDTH 0 0
BBX 3 3 -5 15
BITMAP
E0
60
20
ENDCHAR
STARTCHAR 0301
ENCODING 769
SWIDTH 0 0
DWIDTH 0 0
BBX 4 3 -4 15
BITMAP
70
60
C0
ENDCHAR
STARTCHAR 0302
ENCODING 770
SWIDTH 0 0
DWIDTH 0 0
BBX 6 2 -3 12
BITMAP
78
CC
ENDCHAR
STARTCHAR 0303
ENCODING 771
SWIDTH 0 0
DWIDTH 0 0
BBX 6 2 -8 15
BITMAP
EC
98
ENDCHAR
STARTCHAR 0304
ENCODING 772
SWIDTH 0 0
DWIDTH 0 0
BBX 6 2 -3 12
BITMAP
FC
FC
ENDCHAR
STARTCHAR 0305
ENCODING 773
SWIDTH 0 0
DWIDTH 0 0
BBX 10 2 -5 15
BITMAP
FFC0
FFC0
ENDCHAR
STARTCHAR 0306
ENCODING 774
SWIDTH 0 0
DWIDTH 0 0
BBX 6 2 -3 12
BITMAP
CC
78
ENDCHAR
STARTCHAR 0307
ENCODING 775
SWIDTH 0 0
DWIDTH 0 0
BBX 2 3 -1 12
BITMAP
C0
C0
C0
ENDCHAR
STARTCHAR 0308
ENCODING 776
SWIDTH 0 0
DWIDTH 0 0
BBX 6 2 -3 12
BITMAP
CC
CC
ENDCHAR
STARTCHAR 0309
ENCODING 777
SWIDTH 0 0
DWIDTH 0 0
BBX 3 3 -4 15
BITMAP
E0
20
40
ENDCHAR
STARTCHAR 030A
ENCODING 778
SWIDTH 0 0
DWIDTH 0 0
BBX 4 4 -2 12
BITMAP
60
90
90
60
ENDCHAR
STARTCHAR 030B
ENCODING 779
SWIDTH 0 0
DWIDTH 0 0
BBX 7 3 -4 12
BITMAP
76
6E
CC
ENDCHAR
STARTCHAR 030C
ENCODING 780
SWIDTH 0 0
DWIDTH 0 0
BBX 6 2 -3 12
BITMAP
CC
78
ENDCHAR
STARTCHAR 030D
ENCODING 781
SWIDTH 0 0
DWIDTH 0 0
BBX 1 3 0 12
BITMAP
80
80
80
ENDCHAR
STARTCHAR 030E
ENCODING 782
SWIDTH 0 0
DWIDTH 0 0
BBX 2 3 -1 12
BITMAP
C0
C0
C0
ENDCHAR
STARTCHAR 030F
ENCODING 783
SWIDTH 0 0
DWIDTH 0 0
BBX 7 3 -3 12
BITMAP
DC
EC
66
ENDCHAR
STARTCHAR 0310
ENCODING 784
SWIDTH 0 0
DWIDTH 0 0
BBX 6 5 -3 12
BITMAP
30
30
30
CC
78
ENDCHAR
STARTCHAR 0311
ENCODING 785
SWIDTH 0 0
DWIDTH 0 0
BBX 6 2 -3 12
BITMAP
78
CC
ENDCHAR
STARTCHAR 0312
ENCODING 786
SWIDTH 0 0
DWIDTH 0 0
BBX 2 6 -1 8
BITMAP
40
C0
80
C0
C0
C0
ENDCHAR
STARTCHAR 0313
ENCODING 787
SWIDTH 0 0
DWIDTH 0 0
BBX 2 6 -1 8
BITMAP
C0
C0
C0
40
C0
80
ENDCHAR
STARTCHAR 0314
ENCODING 788
SWIDTH 0 0
DWIDTH 0 0
BBX 2 6 -1 8
BITMAP
C0
C0
C0
80
C0
40
ENDCHAR
STARTCHAR 0315
ENCODING 789
SWIDTH 0 0
DWIDTH 0 0
BBX 3 6 0 8
BITMAP
E0
E0
E0
60
40
80
ENDCHAR
STARTCHAR 0316
ENCODING 790
SWIDTH 0 0
DWIDTH 0 0
BBX 4 3 -2 -4
BITMAP
E0
60
30
ENDCHAR
STARTCHAR 0317
ENCODING 791
SWIDTH 0 0
DWIDTH 0 0
BBX 4 3 -2 -4
BITMAP
70
60
C0
ENDCHAR
STARTCHAR 0318
ENCODING 792
SWIDTH 0 0
DWIDTH 0 0
BBX 4 3 -2 -4
BITMAP
10
F0
10
ENDCHAR
STARTCHAR 0319
ENCODING 793
SWIDTH 0 0
DWIDTH 0 0
BBX 4 3 -2 -4
BITMAP
80
F0
80
ENDCHAR
STARTCHAR 031A
ENCODING 794
SWIDTH 0 0
DWIDTH 0 0
BBX 8 4 -4 12
BITMAP
FF
03
03
03
ENDCHAR
STARTCHAR 031B
ENCODING 795
SWIDTH 0 0
DWIDTH 0 0
BBX 3 6 0 8
BITMAP
60
60
60
20
60
C0
ENDCHAR
STARTCHAR 031C
ENCODING 796
SWIDTH 0 0
DWIDTH 0 0
BBX 2 3 -1 -4
BITMAP
40
80
40
ENDCHAR
STARTCHAR 031D
ENCODING 797
SWIDTH 0 0
DWIDTH 0 0
BBX 4 3 -2 -4
BITMAP
40
40
F0
ENDCHAR
STARTCHAR 031E
ENCODING 798
SWIDTH 0 0
DWIDTH 0 0
BBX 4 3 -2 -4
BITMAP
F0
40
40
ENDCHAR
STARTCHAR 031F
ENCODING 799
SWIDTH 0 0
DWIDTH 0 0
BBX 4 3 -2 -4
BITMAP
40
F0
40
ENDCHAR
STARTCHAR 0320
ENCODING 800
SWIDTH 0 0
DWIDTH 0 0
BBX 6 2 -3 -3
BITMAP
FC
FC
ENDCHAR
STARTCHAR 0321
ENCODING 801
SWIDTH 0 0
DWIDTH 0 0
BBX 5 5 -2 -4
BITMAP
38
38
38
F0
F0
ENDCHAR
STARTCHAR 0322
ENCODING 802
SWIDTH 0 0
DWIDTH 0 0
BBX 5 5 0 -4
BITMAP
E0
E0
E0
F0
78
ENDCHAR
STARTCHAR 0323
ENCODING 803
SWIDTH 0 0
DWIDTH 0 0
BBX 2 3 -8 -4
BITMAP
C0
C0
C0
ENDCHAR
STARTCHAR 0324
ENCODING 804
SWIDTH 0 0
DWIDTH 0 0
BBX 6 2 -3 -4
BITMAP
CC
CC
ENDCHAR
STARTCHAR 0325
ENCODING 805
SWIDTH 0 0
DWIDTH 0 0
BBX 4 4 -2 -4
BITMAP
60
90
90
60
ENDCHAR
STARTCHAR 0326
ENCODING 806
SWIDTH 0 0
DWIDTH 0 0
BBX 2 3 -1 -4
BITMAP
C0
40
80
ENDCHAR
STARTCHAR 0327
ENCODING 807
SWIDTH 0 0
DWIDTH 0 0
BBX 6 3 -3 -3
BITMAP
38
0C
F8
ENDCHAR
STARTCHAR 0328
ENCODING 808
SWIDTH 0 0
DWIDTH 0 0
BBX 4 4 -2 -4
BITMAP
60
C0
C0
70
ENDCHAR
STARTCHAR 0329
ENCODING 809
SWIDTH 0 0
DWIDTH 0 0
BBX 1 3 0 -4
BITMAP
80
80
80
ENDCHAR
STARTCHAR 032A
ENCODING 810
SWIDTH 0 0
DWIDTH 0 0
BBX 8 3 -4 -4
BITMAP
FF
C3
C3
ENDCHAR
STARTCHAR 032B
ENCODING 811
SWIDTH 0 0
DWIDTH 0 0
BBX 6 2 -3 -3
BITMAP
A4
FC
ENDCHAR
STARTCHAR 032C
ENCODING 812
SWIDTH 0 0
DWIDTH 0 0
BBX 6 2 -3 -4
BITMAP
CC
78
ENDCHAR
STARTCHAR 032D
ENCODING 813
SWIDTH 0 0
DWIDTH 0 0
BBX 6 2 -3 -4
BITMAP
78
CC
ENDCHAR
STARTCHAR 032E
ENCODING 814
SWIDTH 0 0
DWIDTH 0 0
BBX 6 2 -3 -4
BITMAP
CC
78
ENDCHAR
STARTCHAR 032F
ENCODING 815
SWIDTH 0 0
DWIDTH 0 0
BBX 6 2 -3 -4
BITMAP
78
CC
ENDCHAR
STARTCHAR 0330
ENCODING 816
SWIDTH 0 0
DWIDTH 0 0
BBX 6 3 -3 -4
BITMAP
E4
FC
9C
ENDCHAR
STARTCHAR 0331
ENCODING 817
SWIDTH 0 0
DWIDTH 0 0
BBX 6 2 -3 -3
BITMAP
FC
FC
ENDCHAR
STARTCHAR 0332
ENCODING 818
SWIDTH 0 0
DWIDTH 0 0
BBX 10 2 -5 -4
BITMAP
FFC0
FFC0
ENDCHAR
STARTCHAR 0333
ENCODING 819
SWIDTH 0 0
DWIDTH 0 0
BBX 6 6 -3 -7
BITMAP
FC
FC
00
00
FC
FC
ENDCHAR
STARTCHAR 0334
ENCODING 820
SWIDTH 0 0
DWIDTH 0 0
BBX 6 3 -3 2
BITMAP
E4
FC
9C
ENDCHAR
STARTCHAR 0335
ENCODING 821
SWIDTH 0 0
DWIDTH 0 0
BBX 6 2 -3 3
BITMAP
FC
FC
ENDCHAR
STARTCHAR 0336
ENCODING 822
SWIDTH 0 0
DWIDTH 0 0
BBX 10 2 -5 3
BITMAP
FFC0
FFC0
ENDCHAR
STARTCHAR 0337
ENCODING 823
SWIDTH 0 0
DWIDTH 0 0
BBX 8 9 -4 0
BITMAP
01
03
06
0C
18
30
60
C0
80
ENDCHAR
STARTCHAR 0338
ENCODING 824
SWIDTH 0 0
DWIDTH 0 0
BBX 6 14 -3 0
BITMAP
0C
18
18
18
18
30
30
30
30
60
60
60
60
C0
ENDCHAR
STARTCHAR 0339
ENCODING 825
SWIDTH 0 0
DWIDTH 0 0
BBX 2 3 -1 -4
BITMAP
80
40
80
ENDCHAR
STARTCHAR 033A
ENCODING 826
SWIDTH 0 0
DWIDTH 0 0
BBX 8 3 -4 -4
BITMAP
C3
C3
FF
ENDCHAR
STARTCHAR 033B
ENCODING 827
SWIDTH 0 0
DWIDTH 0 0
BBX 4 3 -2 -4
BITMAP
F0
90
F0
ENDCHAR
STARTCHAR 033C
ENCODING 828
SWIDTH 0 0
DWIDTH 0 0
BBX 6 2 -3 -3
BITMAP
FC
A4
ENDCHAR
STARTCHAR 033D
ENCODING 829
SWIDTH 0 0
DWIDTH 0 0
BBX 4 4 -2 12
BITMAP
90
60
60
90
ENDCHAR
STARTCHAR 033E
ENCODING 830
SWIDTH 0 0
DWIDTH 0 0
BBX 2 5 -1 12
BITMAP
C0
80
C0
40
C0
ENDCHAR
STARTCHAR 033F
ENCODING 831
SWIDTH 0 0
DWIDTH 0 0
BBX 10 3 -5 15
BITMAP
FFC0
0000
FFC0
ENDCHAR
STARTCHAR 0340
ENCODING 832
SWIDTH 0 0
DWIDTH 0 0
BBX 4 3 -4 12
BITMAP
E0
60
30
ENDCHAR
STARTCHAR 0341
ENCODING 833
SWIDTH 0 0
DWIDTH 0 0
BBX 4 3 0 12
BITMAP
70
60
C0
ENDCHAR
STARTCHAR 0342
ENCODING 834
SWIDTH 0 0
DWIDTH 0 0
BBX 6 3 -3 12
BITMAP
E4
FC
9C
ENDCHAR
STARTCHAR 0343
ENCODING 835
SWIDTH 0 0
DWIDTH 0 0
BBX 2 6 -1 8
BITMAP
C0
C0
C0
40
C0
80
ENDCHAR
STARTCHAR 0344
ENCODING 836
SWIDTH 0 0
DWIDTH 0 0
BBX 10 3 -5 12
BITMAP
0E00
EDC0
F9C0
ENDCHAR
STARTCHAR 0345
ENCODING 837
SWIDTH 0 0
DWIDTH 0 0
BBX 2 3 -1 -4
BITMAP
C0
C0
C0
ENDCHAR
STARTCHAR 0346
ENCODING 838
SWIDTH 0 0
DWIDTH 0 0
BBX 8 3 -4 12
BITMAP
FF
C3
C3
ENDCHAR
STARTCHAR 0347
ENCODING 839
SWIDTH 0 0
DWIDTH 0 0
BBX 10 6 -5 -7
BITMAP
FFC0
FFC0
0000
0000
FFC0
FFC0
ENDCHAR
STARTCHAR 0348
ENCODING 840
SWIDTH 0 0
DWIDTH 0 0
BBX 2 3 -1 -4
BITMAP
C0
C0
C0
ENDCHAR
STARTCHAR 0349
ENCODING 841
SWIDTH 0 0
DWIDTH 0 0
BBX 4 3 -2 -4
BITMAP
F0
10
10
ENDCHAR
STARTCHAR 034A
ENCODING 842
SWIDTH 0 0
DWIDTH 0 0
BBX 6 3 -3 12
BITMAP
F4
FC
BC
ENDCHAR
STARTCHAR 034B
ENCODING 843
SWIDTH 0 0
DWIDTH 0 0
BBX 6 5 -3 12
BITMAP
30
E4
FC
9C
30
ENDCHAR
STARTCHAR 034C
ENCODING 844
SWIDTH 0 0
DWIDTH 0 0
BBX 6 6 -3 12
BITMAP
E4
FC
9C
E4
FC
9C
ENDCHAR
STARTCHAR 034D
ENCODING 845
SWIDTH 0 0
DWIDTH 0 0
BBX 4 3 -2 -4
BITMAP
90
F0
90
ENDCHAR
STARTCHAR 034E
ENCODING 846
SWIDTH 0 0
DWIDTH 0 0
BBX 2 3 -1 -4
BITMAP
80
C0
80
ENDCHAR
STARTCHAR 034F
ENCODING 847
SWIDTH 0 0
DWIDTH 0 0
BBX 14 14 -7 0
BITMAP
E79C
8004
8684
1040
1020
8004
A014
8004
9024
0000
1040
8684
8004
E79C
ENDCHAR
STARTCHAR 0350
ENCODING 848
SWIDTH 0 0
DWIDTH 0 0
BBX 2 4 -1 12
BITMAP
80
C0
C0
80
ENDCHAR
STARTCHAR 0351
ENCODING 849
SWIDTH 0 0
DWIDTH 0 0
BBX 2 4 -1 12
BITMAP
40
80
80
40
ENDCHAR
STARTCHAR 0352
ENCODING 850
SWIDTH 0 0
DWIDTH 0 0
BBX 6 5 -3 12
BITMAP
78
CC
30
30
30
ENDCHAR
STARTCHAR 0353
ENCODING 851
SWIDTH 0 0
DWIDTH 0 0
BBX 4 4 -2 -4
BITMAP
90
60
60
90
ENDCHAR
STARTCHAR 0354
ENCODING 852
SWIDTH 0 0
DWIDTH 0 0
BBX 2 4 -1 -4
BITMAP
40
C0
C0
40
ENDCHAR
STARTCHAR 0355
ENCODING 853
SWIDTH 0 0
DWIDTH 0 0
BBX 2 4 -1 -4
BITMAP
80
C0
C0
80
ENDCHAR
STARTCHAR 0356
ENCODING 854
SWIDTH 0 0
DWIDTH 0 0
BBX 7 4 -3 -4
BITMAP
80
68
6C
92
ENDCHAR
STARTCHAR 0357
ENCODING 855
SWIDTH 0 0
DWIDTH 0 0
BBX 2 4 -1 12
BITMAP
80
40
40
80
ENDCHAR
STARTCHAR 0358
ENCODING 856
SWIDTH 0 0
DWIDTH 0 0
BBX 2 1 2 12
BITMAP
C0
ENDCHAR
STARTCHAR 0359
ENCODING 857
SWIDTH 0 0
DWIDTH 0 0
BBX 4 4 -2 -4
BITMAP
40
F0
60
60
ENDCHAR
STARTCHAR 035A
ENCODING 858
SWIDTH 0 0
DWIDTH 0 0
BBX 6 4 -3 -4
BITMAP
FC
B4
B4
FC
ENDCHAR
STARTCHAR 035B
ENCODING 859
SWIDTH 0 0
DWIDTH 0 0
BBX 4 5 -2 12
BITMAP
40
40
F0
20
20
ENDCHAR
STARTCHAR 035C
ENCODING 860
SWIDTH 0 0
DWIDTH 0 0
BBX 14 3 -1 -4
BITMAP
800C
6038
1FC0
ENDCHAR
STARTCHAR 035D
ENCODING 861
SWIDTH 0 0
DWIDTH 0 0
BBX 14 4 -1 12
BITMAP
800C
C018
3030
1FC0
ENDCHAR
STARTCHAR 035E
ENCODING 862
SWIDTH 0 0
DWIDTH 0 0
BBX 11 2 -2 12
BITMAP
FFE0
FFE0
ENDCHAR
STARTCHAR 035F
ENCODING 863
SWIDTH 0 0
DWIDTH 0 0
BBX 11 2 -2 -3
BITMAP
FFE0
FFE0
ENDCHAR
STARTCHAR 0360
ENCODING 864
SWIDTH 0 0
DWIDTH 0 0
BBX 14 3 -1 12
BITMAP
7E0C
FFF8
81F0
ENDCHAR
STARTCHAR 0361
ENCODING 865
SWIDTH 0 0
DWIDTH 0 0
BBX 14 4 -1 12
BITMAP
1FC0
3030
C018
800C
ENDCHAR
STARTCHAR 0362
ENCODING 866
SWIDTH 0 0
DWIDTH 0 0
BBX 11 1 -2 -3
BITMAP
FFE0
ENDCHAR
STARTCHAR 0363
ENCODING 867
SWIDTH 0 0
DWIDTH 0 0
BBX 6 7 -3 4
BITMAP
78
CC
3C
EC
CC
CC
7C
ENDCHAR
STARTCHAR 0364
ENCODING 868
SWIDTH 0 0
DWIDTH 0 0
BBX 6 7 -3 4
BITMAP
78
CC
CC
FC
C0
CC
78
ENDCHAR
STARTCHAR 0365
ENCODING 869
SWIDTH 0 0
DWIDTH 0 0
BBX 2 10 -1 4
BITMAP
C0
C0
00
C0
C0
C0
C0
C0
C0
C0
ENDCHAR
STARTCHAR 0366
ENCODING 870
SWIDTH 0 0
DWIDTH 0 0
BBX 6 7 -3 4
BITMAP
78
FC
CC
84
CC
FC
78
ENDCHAR
STARTCHAR 0367
ENCODING 871
SWIDTH 0 0
DWIDTH 0 0
BBX 6 7 -3 4
BITMAP
CC
CC
CC
CC
CC
FC
6C
ENDCHAR
STARTCHAR 0368
ENCODING 872
SWIDTH 0 0
DWIDTH 0 0
BBX 6 7 -3 4
BITMAP
78
FC
CC
C0
CC
FC
78
ENDCHAR
STARTCHAR 0369
ENCODING 873
SWIDTH 0 0
DWIDTH 0 0
BBX 6 10 -3 4
BITMAP
0C
0C
0C
7C
FC
CC
CC
CC
FC
74
ENDCHAR
STARTCHAR 036A
ENCODING 874
SWIDTH 0 0
DWIDTH 0 0
BBX 6 10 -3 4
BITMAP
C0
C0
C0
D8
FC
CC
CC
CC
CC
CC
ENDCHAR
STARTCHAR 036B
ENCODING 875
SWIDTH 0 0
DWIDTH 0 0
BBX 10 7 -5 4
BITMAP
D980
FFC0
CCC0
CCC0
CCC0
CCC0
CCC0
ENDCHAR
STARTCHAR 036C
ENCODING 876
SWIDTH 0 0
DWIDTH 0 0
BBX 4 7 -2 4
BITMAP
F0
F0
C0
C0
C0
C0
C0
ENDCHAR
STARTCHAR 036D
ENCODING 877
SWIDTH 0 0
DWIDTH 0 0
BBX 4 9 -2 4
BITMAP
20
60
F0
F0
60
60
60
70
70
ENDCHAR
STARTCHAR 036E
ENCODING 878
SWIDTH 0 0
DWIDTH 0 0
BBX 6 7 -3 4
BITMAP
CC
CC
4C
78
78
30
30
ENDCHAR
STARTCHAR 036F
ENCODING 879
SWIDTH 0 0
DWIDTH 0 0
BBX 6 7 -3 4
BITMAP
CC
78
78
30
78
78
CC
ENDCHAR
STARTCHAR 0374
ENCODING 884
SWIDTH 308 0
DWIDTH 6 0
BBX 4 3 2 12
BITMAP
70
E0
C0
ENDCHAR
STARTCHAR 0375
ENCODING 885
SWIDTH 308 0
DWIDTH 6 0
BBX 3 3 1 -4
BITMAP
20
60
E0
ENDCHAR
STARTCHAR 037A
ENCODING 890
SWIDTH 308 0
DWIDTH 6 0
BBX 2 3 2 -4
BITMAP
C0
C0
C0
ENDCHAR
STARTCHAR 037B
ENCODING 891
SWIDTH 565 0
DWIDTH 11 0
BBX 10 11 0 0
BITMAP
1E00
3F80
7380
61C0
01C0
01C0
01C0
E1C0
7380
7F80
1E00
ENDCHAR
STARTCHAR 037C
ENCODING 892
SWIDTH 565 0
DWIDTH 11 0
BBX 9 11 1 0
BITMAP
3E00
7F00
E380
E380
FC00
DC00
FC00
E380
E380
7F00
3E00
ENDCHAR
STARTCHAR 037D
ENCODING 893
SWIDTH 565 0
DWIDTH 11 0
BBX 10 11 0 0
BITMAP
1E00
3F80
7380
61C0
0DC0
0DC0
0DC0
E1C0
7380
7F80
1E00
ENDCHAR
STARTCHAR 037E
ENCODING 894
SWIDTH 308 0
DWIDTH 6 0
BBX 2 14 2 -3
BITMAP
C0
C0
C0
00
00
00
00
00
C0
C0
C0
40
C0
80
ENDCHAR
STARTCHAR 0384
ENCODING 900
SWIDTH 308 0
DWIDTH 6 0
BBX 4 3 2 11
BITMAP
70
E0
C0
ENDCHAR
STARTCHAR 0385
ENCODING 901
SWIDTH 462 0
DWIDTH 9 0
BBX 9 3 0 11
BITMAP
0C00
D980
D980
ENDCHAR
STARTCHAR 0386
ENCODING 902
SWIDTH 720 0
DWIDTH 14 0
BBX 13 14 0 0
BITMAP
7700
C780
0F80
0FC0
0DC0
1CC0
18E0
38E0
3FF0
3FF0
7FF0
7038
7038
E018
ENDCHAR
STARTCHAR 0387
ENCODING 903
SWIDTH 308 0
DWIDTH 6 0
BBX 2 3 2 8
BITMAP
C0
C0
C0
ENDCHAR
STARTCHAR 0388
ENCODING 904
SWIDTH 822 0
DWIDTH 16 0
BBX 15 14 0 0
BITMAP
F7FE
C7FE
07FE
0700
0700
07FC
07FC
07FC
0700
0700
0700
07FE
07FE
07FE
ENDCHAR
STARTCHAR 0389
ENCODING 905
SWIDTH 874 0
DWIDTH 17 0
BBX 16 14 0 0
BITMAP
F707
C707
0707
0707
0707
07FF
07FF
07FF
0707
0707
0707
0707
0707
0707
ENDCHAR
STARTCHAR 038A
ENCODING 906
SWIDTH 462 0
DWIDTH 9 0
BBX 8 14 0 0
BITMAP
F7
C7
07
07
07
07
07
07
07
07
07
07
07
07
ENDCHAR
STARTCHAR 038C
ENCODING 908
SWIDTH 822 0
DWIDTH 16 0
BBX 15 14 0 0
BITMAP
E7E0
CFF8
1FFC
3C3C
381E
380E
380E
380E
380E
381E
3C3C
1FFC
0FF8
07E0
ENDCHAR
STARTCHAR 038E
ENCODING 910
SWIDTH 925 0
DWIDTH 18 0
BBX 17 14 0 0
BITMAP
770380
C38380
03C700
01CE00
00EE00
00FC00
007C00
003800
003800
003800
003800
003800
003800
003800
ENDCHAR
STARTCHAR 038F
ENCODING 911
SWIDTH 822 0
DWIDTH 16 0
BBX 16 14 -1 0
BITMAP
73F0
E7FC
0FFE
1E1E
1C0F
1C07
1C07
1C07
1C06
0E0E
071C
1FBF
1FBF
1FBF
ENDCHAR
STARTCHAR 0390
ENCODING 912
SWIDTH 257 0
DWIDTH 5 0
BBX 9 15 -2 0
BITMAP
0C00
DD80
D980
0000
1C00
1C00
1C00
1C00
1C00
1C00
1C00
1C00
1C00
1C00
1C00
ENDCHAR
STARTCHAR 0391
ENCODING 913
SWIDTH 720 0
DWIDTH 14 0
BBX 13 14 0 0
BITMAP
0700
0780
0F80
0FC0
0DC0
1CC0
18E0
38E0
3FF0
3FF0
7FF0
7038
6038
E038
ENDCHAR
STARTCHAR 0392
ENCODING 914
SWIDTH 720 0
DWIDTH 14 0
BBX 12 14 1 0
BITMAP
FF80
FFC0
FFE0
E0E0
E0E0
FFC0
FFC0
FFE0
E0F0
E070
E070
FFE0
FFE0
FFC0
ENDCHAR
STARTCHAR 0393
ENCODING 915
SWIDTH 565 0
DWIDTH 11 0
BBX 10 14 1 0
BITMAP
FFC0
FFC0
FFC0
E000
E000
E000
E000
E000
E000
E000
E000
E000
E000
E000
ENDCHAR
STARTCHAR 0394
ENCODING 916
SWIDTH 720 0
DWIDTH 14 0
BBX 13 14 0 0
BITMAP
0700
0780
0F80
0FC0
0DC0
1CC0
18E0
38E0
3870
3070
7030
7FF8
7FF8
FFF8
ENDCHAR
STARTCHAR 0395
ENCODING 917
SWIDTH 668 0
DWIDTH 13 0
BBX 11 14 1 0
BITMAP
FFC0
FFC0
FFC0
E000
E000
FFC0
FFC0
FFC0
E000
E000
E000
FFE0
FFE0
FFE0
ENDCHAR
STARTCHAR 0396
ENCODING 918
SWIDTH 617 0
DWIDTH 12 0
BBX 11 14 0 0
BITMAP
7FE0
7FE0
7FE0
01E0
03C0
0780
0F00
1E00
3C00
3800
7000
FFE0
FFE0
FFE0
ENDCHAR
STARTCHAR 0397
ENCODING 919
SWIDTH 720 0
DWIDTH 14 0
BBX 11 14 1 0
BITMAP
E060
E060
E060
E060
E060
FFE0
FFE0
FFE0
E060
E060
E060
E060
E060
E060
ENDCHAR
STARTCHAR 0398
ENCODING 920
SWIDTH 771 0
DWIDTH 15 0
BBX 13 14 1 0
BITMAP
0F80
3FE0
7FF0
F0F0
E038
EFB8
EFB8
EFB8
E038
E038
F0F0
7FF0
3FE0
0F80
ENDCHAR
STARTCHAR 0399
ENCODING 921
SWIDTH 257 0
DWIDTH 5 0
BBX 3 14 1 0
BITMAP
E0
E0
E0
E0
E0
E0
E0
E0
E0
E0
E0
E0
E0
E0
ENDCHAR
STARTCHAR 039A
ENCODING 922
SWIDTH 720 0
DWIDTH 14 0
BBX 12 14 1 0
BITMAP
E0F0
E1E0
E3C0
E780
EF00
EE00
FF00
FF80
F380
E1C0
E1C0
E0E0
E0F0
E070
ENDCHAR
STARTCHAR 039B
ENCODING 923
SWIDTH 668 0
DWIDTH 13 0
BBX 12 14 0 0
BITMAP
0700
0F00
0F80
0F80
1F80
1DC0
19C0
39C0
38E0
30E0
70E0
7070
6070
E030
ENDCHAR
STARTCHAR 039C
ENCODING 924
SWIDTH 822 0
DWIDTH 16 0
BBX 13 14 1 0
BITMAP
F878
F878
F878
F8F8
FCF8
ECD8
ECD8
EDD8
EFD8
EF98
E798
E798
E798
E718
ENDCHAR
STARTCHAR 039D
ENCODING 925
SWIDTH 720 0
DWIDTH 14 0
BBX 11 14 1 0
BITMAP
E060
F060
F860
F860
FC60
FC60
EE60
E760
E760
E3E0
E3E0
E1E0
E0E0
E0E0
ENDCHAR
STARTCHAR 039E
ENCODING 926
SWIDTH 617 0
DWIDTH 12 0
BBX 10 14 1 0
BITMAP
FFC0
FFC0
FFC0
0000
0000
7FC0
7FC0
7FC0
0000
0000
0000
FFC0
FFC0
FFC0
ENDCHAR
STARTCHAR 039F
ENCODING 927
SWIDTH 771 0
DWIDTH 15 0
BBX 13 14 1 0
BITMAP
0F80
3FE0
7FF0
7070
E038
E038
E038
E038
E038
E038
F0F0
7FF0
3FE0
0F80
ENDCHAR
STARTCHAR 03A0
ENCODING 928
SWIDTH 720 0
DWIDTH 14 0
BBX 11 14 1 0
BITMAP
FFE0
FFE0
FFE0
E060
E060
E060
E060
E060
E060
E060
E060
E060
E060
E060
ENDCHAR
STARTCHAR 03A1
ENCODING 929
SWIDTH 668 0
DWIDTH 13 0
BBX 11 14 1 0
BITMAP
FF80
FFC0
FFC0
E1E0
E0E0
E1E0
FFC0
FFC0
FF80
E000
E000
E000
E000
E000
ENDCHAR
STARTCHAR 03A3
ENCODING 931
SWIDTH 565 0
DWIDTH 11 0
BBX 10 14 1 0
BITMAP
FF80
FF80
FF80
F000
7800
3C00
1E00
1C00
3800
7000
E000
FFC0
FFC0
FFC0
ENDCHAR
STARTCHAR 03A4
ENCODING 932
SWIDTH 617 0
DWIDTH 12 0
BBX 11 14 0 0
BITMAP
FFE0
FFE0
FFE0
0E00
0E00
0E00
0E00
0E00
0E00
0E00
0E00
0E00
0E00
0E00
ENDCHAR
STARTCHAR 03A5
ENCODING 933
SWIDTH 668 0
DWIDTH 13 0
BBX 12 14 0 0
BITMAP
E070
7070
38E0
38E0
1DC0
1F80
0F80
0700
0700
0700
0700
0700
0700
0700
ENDCHAR
STARTCHAR 03A6
ENCODING 934
SWIDTH 822 0
DWIDTH 16 0
BBX 14 14 1 0
BITMAP
0700
0700
1FE0
7FF0
FFF8
F73C
E71C
E71C
F73C
7FF8
7FF0
1FE0
0700
0700
ENDCHAR
STARTCHAR 03A7
ENCODING 935
SWIDTH 668 0
DWIDTH 13 0
BBX 12 14 0 0
BITMAP
7070
78E0
39E0
1DC0
1F80
0F80
0700
0F00
0F80
1FC0
3DC0
38E0
70F0
F070
ENDCHAR
STARTCHAR 03A8
ENCODING 936
SWIDTH 771 0
DWIDTH 15 0
BBX 14 14 1 0
BITMAP
E71C
E71C
E71C
E71C
E71C
E718
E738
FFF8
7FF0
1FE0
0700
0700
0700
0700
ENDCHAR
STARTCHAR 03A9
ENCODING 937
SWIDTH 771 0
DWIDTH 15 0
BBX 13 14 1 0
BITMAP
0FC0
3FE0
7FF0
7878
F038
E038
E038
E038
6030
7070
38E0
FDF8
FDF8
FDF8
ENDCHAR
STARTCHAR 03AA
ENCODING 938
SWIDTH 257 0
DWIDTH 5 0
BBX 6 17 0 0
BITMAP
DC
DC
00
70
70
70
70
70
70
70
70
70
70
70
70
70
70
ENDCHAR
STARTCHAR 03AB
ENCODING 939
SWIDTH 668 0
DWIDTH 13 0
BBX 12 17 0 0
BITMAP
1980
1980
0000
E070
7070
38E0
38E0
1DC0
1F80
0F80
0700
0700
0700
0700
0700
0700
0700
ENDCHAR
STARTCHAR 03AC
ENCODING 940
SWIDTH 617 0
DWIDTH 12 0
BBX 10 15 1 0
BITMAP
0700
0E00
0C00
0000
3CC0
7FC0
E380
E380
C380
C380
C380
E380
E380
7F80
3CC0
ENDCHAR
STARTCHAR 03AD
ENCODING 941
SWIDTH 462 0
DWIDTH 9 0
BBX 8 15 1 0
BITMAP
1C
18
30
00
7C
FE
E4
E0
78
78
E0
C0
E6
FF
7C
ENDCHAR
STARTCHAR 03AE
ENCODING 942
SWIDTH 617 0
DWIDTH 12 0
BBX 9 19 1 -4
BITMAP
0E00
0C00
0800
0000
EF00
FF80
F380
E180
E180
E180
E180
E180
E180
E180
E180
0180
0180
0180
0180
ENDCHAR
STARTCHAR 03AF
ENCODING 943
SWIDTH 257 0
DWIDTH 5 0
BBX 4 15 1 0
BITMAP
70
60
C0
00
E0
E0
E0
E0
E0
E0
E0
E0
E0
E0
E0
ENDCHAR
STARTCHAR 03B0
ENCODING 944
SWIDTH 565 0
DWIDTH 11 0
BBX 9 15 1 0
BITMAP
0C00
DD80
D980
0000
E380
E380
E380
E380
E380
E380
E380
E380
6380
7F00
3E00
ENDCHAR
STARTCHAR 03B1
ENCODING 945
SWIDTH 617 0
DWIDTH 12 0
BBX 10 11 1 0
BITMAP
3CC0
7FC0
E380
E380
C380
C380
C380
E380
E380
7F80
3CC0
ENDCHAR
STARTCHAR 03B2
ENCODING 946
SWIDTH 617 0
DWIDTH 12 0
BBX 10 18 1 -4
BITMAP
1E00
7F00
7380
E180
E180
E300
EE00
E380
E1C0
E1C0
E1C0
F1C0
FF80
EF00
E000
E000
E000
E000
ENDCHAR
STARTCHAR 03B3
ENCODING 947
SWIDTH 565 0
DWIDTH 11 0
BBX 10 15 0 -4
BITMAP
E0C0
61C0
71C0
7180
3380
3300
3B00
1B00
1E00
1E00
0E00
0E00
0E00
0E00
0E00
ENDCHAR
STARTCHAR 03B4
ENCODING 948
SWIDTH 617 0
DWIDTH 12 0
BBX 10 14 1 0
BITMAP
7F80
7F80
3800
3C00
7F00
E380
E180
C1C0
C1C0
C1C0
E1C0
6380
7F00
3E00
ENDCHAR
STARTCHAR 03B5
ENCODING 949
SWIDTH 462 0
DWIDTH 9 0
BBX 8 11 1 0
BITMAP
7C
FE
E4
E0
78
78
E0
C0
E6
FF
7C
ENDCHAR
STARTCHAR 03B6
ENCODING 950
SWIDTH 462 0
DWIDTH 9 0
BBX 8 18 1 -4
BITMAP
7F
7F
0C
18
30
70
60
E0
C0
C0
E0
FC
FE
7E
06
06
1E
18
ENDCHAR
STARTCHAR 03B7
ENCODING 951
SWIDTH 617 0
DWIDTH 12 0
BBX 9 15 1 -4
BITMAP
EF00
FF80
F380
E180
E180
E180
E180
E180
E180
E180
E180
0180
0180
0180
0180
ENDCHAR
STARTCHAR 03B8
ENCODING 952
SWIDTH 514 0
DWIDTH 10 0
BBX 9 14 1 0
BITMAP
3C00
7E00
E700
E300
E300
C380
FF80
FF80
C380
E300
E300
E700
7E00
3C00
ENDCHAR
STARTCHAR 03B9
ENCODING 953
SWIDTH 257 0
DWIDTH 5 0
BBX 3 11 1 0
BITMAP
E0
E0
E0
E0
E0
E0
E0
E0
E0
E0
E0
ENDCHAR
STARTCHAR 03BA
ENCODING 954
SWIDTH 565 0
DWIDTH 11 0
BBX 9 11 1 0
BITMAP
E380
E700
EE00
FC00
F800
FC00
FC00
EE00
E700
E700
E380
ENDCHAR
STARTCHAR 03BB
ENCODING 955
SWIDTH 565 0
DWIDTH 11 0
BBX 10 14 0 0
BITMAP
1800
1C00
0C00
0E00
1E00
1E00
1B00
3B00
3300
3380
7180
71C0
61C0
E0C0
ENDCHAR
STARTCHAR 03BC
ENCODING 956
SWIDTH 617 0
DWIDTH 12 0
BBX 9 15 1 -4
BITMAP
E180
E180
E180
E180
E180
E180
E180
E380
F380
FF80
ED80
E000
E000
E000
E000
ENDCHAR
STARTCHAR 03BD
ENCODING 957
SWIDTH 565 0
DWIDTH 11 0
BBX 10 11 0 0
BITMAP
E1C0
61C0
7180
7380
3380
3B00
3B00
1F00
1E00
0E00
0E00
ENDCHAR
STARTCHAR 03BE
ENCODING 958
SWIDTH 411 0
DWIDTH 8 0
BBX 7 18 1 -4
BITMAP
3C
7C
E0
E0
E0
7C
3C
70
E0
C0
C0
E0
FC
3E
06
06
1E
1C
ENDCHAR
STARTCHAR 03BF
ENCODING 959
SWIDTH 617 0
DWIDTH 12 0
BBX 10 11 1 0
BITMAP
1E00
7F00
F380
E1C0
E1C0
C1C0
E1C0
E1C0
F380
7F00
1E00
ENDCHAR
STARTCHAR 03C0
ENCODING 960
SWIDTH 771 0
DWIDTH 15 0
BBX 14 11 0 0
BITMAP
FFFC
FFFC
1C60
1C60
1C60
1C60
1C60
1C60
1C60
1C60
1C60
ENDCHAR
STARTCHAR 03C1
ENCODING 961
SWIDTH 617 0
DWIDTH 12 0
BBX 10 15 1 -4
BITMAP
1E00
7F00
7380
E1C0
E1C0
E1C0
E1C0
E1C0
F380
FF80
FE00
E000
E000
E000
E000
ENDCHAR
STARTCHAR 03C2
ENCODING 962
SWIDTH 514 0
DWIDTH 10 0
BBX 9 15 1 -4
BITMAP
1F80
3F00
7000
E000
C000
C000
C000
C000
F000
7C00
1F00
0700
0300
1F00
1E00
ENDCHAR
STARTCHAR 03C3
ENCODING 963
SWIDTH 668 0
DWIDTH 13 0
BBX 12 11 1 0
BITMAP
3FF0
7FF0
E380
E1C0
C1C0
C1C0
C1C0
E180
E380
7F00
3E00
ENDCHAR
STARTCHAR 03C4
ENCODING 964
SWIDTH 411 0
DWIDTH 8 0
BBX 8 11 0 0
BITMAP
FF
FF
1C
1C
1C
1C
1C
1C
1C
1C
1C
ENDCHAR
STARTCHAR 03C5
ENCODING 965
SWIDTH 565 0
DWIDTH 11 0
BBX 9 11 1 0
BITMAP
E380
E380
E380
E380
E380
E380
E380
E380
6380
7F00
3E00
ENDCHAR
STARTCHAR 03C6
ENCODING 966
SWIDTH 720 0
DWIDTH 14 0
BBX 12 15 1 -4
BITMAP
3380
77E0
E660
E670
C670
C670
E670
E660
76E0
7FC0
1F80
0600
0600
0600
0600
ENDCHAR
STARTCHAR 03C7
ENCODING 967
SWIDTH 565 0
DWIDTH 11 0
BBX 11 15 0 -4
BITMAP
60C0
71C0
3180
3B80
1B00
1F00
1E00
0E00
1F00
1F00
3B80
3B80
71C0
71C0
E0E0
ENDCHAR
STARTCHAR 03C8
ENCODING 968
SWIDTH 720 0
DWIDTH 14 0
BBX 12 15 1 -4
BITMAP
E630
E630
E630
E630
E630
E630
E630
E670
7670
7FE0
1FC0
0600
0600
0600
0600
ENDCHAR
STARTCHAR 03C9
ENCODING 969
SWIDTH 822 0
DWIDTH 16 0
BBX 14 11 1 0
BITMAP
6018
E01C
E01C
E31C
C30C
C30C
C30C
E31C
E79C
7FF8
3CF0
ENDCHAR
STARTCHAR 03CA
ENCODING 970
SWIDTH 257 0
DWIDTH 5 0
BBX 6 14 0 0
BITMAP
CC
CC
00
70
70
70
70
70
70
70
70
70
70
70
ENDCHAR
STARTCHAR 03CB
ENCODING 971
SWIDTH 565 0
DWIDTH 11 0
BBX 9 14 1 0
BITMAP
7700
7700
0000
E380
E380
E380
E380
E380
E380
E380
E380
6380
7F00
3E00
ENDCHAR
STARTCHAR 03CC
ENCODING 972
SWIDTH 617 0
DWIDTH 12 0
BBX 10 15 1 0
BITMAP
0E00
0C00
0800
0000
1E00
7F00
F380
E1C0
E1C0
C1C0
E1C0
E1C0
F380
7F00
1E00
ENDCHAR
STARTCHAR 03CD
ENCODING 973
SWIDTH 565 0
DWIDTH 11 0
BBX 9 15 1 0
BITMAP
0E00
0C00
1800
0000
E380
E380
E380
E380
E380
E380
E380
E380
6380
7F00
3E00
ENDCHAR
STARTCHAR 03CE
ENCODING 974
SWIDTH 822 0
DWIDTH 16 0
BBX 14 15 1 0
BITMAP
0380
0300
0600
0000
6018
E01C
E01C
E31C
C30C
C30C
C30C
E31C
E79C
7FF8
3CF0
ENDCHAR
STARTCHAR 03D0
ENCODING 976
SWIDTH 617 0
DWIDTH 12 0
BBX 10 14 1 0
BITMAP
1E00
3F00
7380
FF00
FE00
E000
FF00
FF80
F380
E1C0
E1C0
7380
7F80
1E00
ENDCHAR
STARTCHAR 03D1
ENCODING 977
SWIDTH 565 0
DWIDTH 11 0
BBX 11 14 0 0
BITMAP
0F00
1F80
39C0
39C0
19C0
1FE0
07E0
F1C0
F1C0
31C0
3180
7380
3F00
1E00
ENDCHAR
STARTCHAR 03D2
ENCODING 978
SWIDTH 771 0
DWIDTH 15 0
BBX 15 14 0 0
BITMAP
E038
707C
38FE
38E4
1DC0
1FC0
0F80
0700
0700
0700
0700
0700
0700
0700
ENDCHAR
STARTCHAR 03D3
ENCODING 979
SWIDTH 977 0
DWIDTH 19 0
BBX 19 14 0 0
BITMAP
770380
6707C0
C387E0
018E40
01DE00
00FC00
00F800
007800
007000
007000
007000
007000
007000
007000
ENDCHAR
STARTCHAR 03D4
ENCODING 980
SWIDTH 771 0
DWIDTH 15 0
BBX 15 17 0 0
BITMAP
1DC0
1DC0
0000
E038
707C
38FE
38E4
1DC0
1FC0
0F80
0700
0700
0700
0700
0700
0700
0700
ENDCHAR
STARTCHAR 03D5
ENCODING 981
SWIDTH 720 0
DWIDTH 14 0
BBX 12 18 1 -4
BITMAP
0600
0600
0600
1FC0
7FE0
E670
E670
E630
C630
E630
E670
E670
7FE0
1FC0
0600
0600
0600
0600
ENDCHAR
STARTCHAR 03D6
ENCODING 982
SWIDTH 822 0
DWIDTH 16 0
BBX 14 11 1 0
BITMAP
FFFC
FFFC
E01C
E00C
C30C
C30C
C30C
E31C
E79C
7FF8
3CF0
ENDCHAR
STARTCHAR 03D7
ENCODING 983
SWIDTH 668 0
DWIDTH 13 0
BBX 13 15 0 -4
BITMAP
E070
F0E0
39E0
3BE0
3FE0
3FE0
3EE0
3EE0
3CE0
78F8
7078
0038
0038
00F0
00F0
ENDCHAR
STARTCHAR 03D8
ENCODING 984
SWIDTH 771 0
DWIDTH 15 0
BBX 13 18 1 -4
BITMAP
0F80
3FE0
7FF0
7070
E038
E038
E038
E038
E038
E038
F0F0
7FF0
3FE0
1F80
0700
0700
0700
0700
ENDCHAR
STARTCHAR 03D9
ENCODING 985
SWIDTH 617 0
DWIDTH 12 0
BBX 10 15 1 -4
BITMAP
1E00
7F00
6380
E1C0
E1C0
C1C0
E1C0
E1C0
E380
7F80
3E00
0C00
0C00
0C00
0C00
ENDCHAR
STARTCHAR 03DA
ENCODING 986
SWIDTH 720 0
DWIDTH 14 0
BBX 12 14 1 0
BITMAP
1F80
3FC0
7FE0
70F0
E060
E000
E000
E000
F000
7F00
3F00
1F00
0700
0700
ENDCHAR
STARTCHAR 03DB
ENCODING 987
SWIDTH 565 0
DWIDTH 11 0
BBX 9 15 1 -4
BITMAP
3E00
7F00
E380
E380
E000
C000
E000
E000
7C00
7F00
0F80
0380
4380
7F00
3E00
ENDCHAR
STARTCHAR 03DC
ENCODING 988
SWIDTH 617 0
DWIDTH 12 0
BBX 10 14 1 0
BITMAP
FFC0
FFC0
FFC0
E000
E000
E000
FF80
FF80
FF80
E380
E380
E000
E000
E000
ENDCHAR
STARTCHAR 03DD
ENCODING 989
SWIDTH 462 0
DWIDTH 9 0
BBX 7 15 1 -4
BITMAP
FE
FE
E0
E0
E0
E0
FE
FE
E6
E0
E0
E0
E0
E0
E0
ENDCHAR
STARTCHAR 03DE
ENCODING 990
SWIDTH 720 0
DWIDTH 14 0
BBX 14 14 0 0
BITMAP
F000
F800
F800
3808
3878
39F8
3FF0
3FF0
3F30
3870
4070
007C
003C
001C
ENDCHAR
STARTCHAR 03DF
ENCODING 991
SWIDTH 514 0
DWIDTH 10 0
BBX 10 14 0 0
BITMAP
1800
3000
3000
2000
6000
7FC0
7F80
FF80
0180
0100
0300
0300
0300
0600
ENDCHAR
STARTCHAR 03E0
ENCODING 992
SWIDTH 771 0
DWIDTH 15 0
BBX 15 18 0 -4
BITMAP
1F00
3FC0
FCE0
DC70
9C38
1C78
1CFC
01DC
019C
018E
018E
018E
018E
018C
001C
0038
03F8
03C0
ENDCHAR
STARTCHAR 03E1
ENCODING 993
SWIDTH 617 0
DWIDTH 12 0
BBX 11 18 0 -4
BITMAP
6000
F800
3E00
0F00
0780
0F80
3FC0
11C0
01C0
07E0
0FE0
04E0
00E0
00E0
00E0
00E0
00E0
0080
ENDCHAR
STARTCHAR 03E2
ENCODING 994
SWIDTH 977 0
DWIDTH 19 0
BBX 16 18 1 -4
BITMAP
E1C3
E1C3
E1C3
E1C3
E1C3
E1C3
E1C3
E1C3
E1C3
E1C3
F3C7
7FFF
7EFF
3C7B
0003
FFFF
FFFF
FFFE
ENDCHAR
STARTCHAR 03E3
ENCODING 995
SWIDTH 874 0
DWIDTH 17 0
BBX 15 15 1 -4
BITMAP
E38E
E38E
E38E
E38E
E38E
E38E
E38E
E38E
E79E
7DFE
39EE
000E
FFFE
FFFC
FFFC
ENDCHAR
STARTCHAR 03E4
ENCODING 996
SWIDTH 668 0
DWIDTH 13 0
BBX 11 14 1 0
BITMAP
3EE0
7EE0
7CE0
E0E0
E0E0
E0E0
7FE0
7FE0
3FE0
00E0
00E0
00E0
00E0
00E0
ENDCHAR
STARTCHAR 03E5
ENCODING 997
SWIDTH 617 0
DWIDTH 12 0
BBX 9 14 1 0
BITMAP
7980
F980
E180
E180
E180
E180
E380
E380
7F80
3D80
0180
0180
0180
0180
ENDCHAR
STARTCHAR 03E6
ENCODING 998
SWIDTH 668 0
DWIDTH 13 0
BBX 11 18 1 -4
BITMAP
E000
E000
E000
E000
E000
EF80
FFC0
FFE0
F1E0
E0E0
E0E0
E0E0
E0E0
E0E0
01E0
FFC0
FF80
FF00
ENDCHAR
STARTCHAR 03E7
ENCODING 999
SWIDTH 617 0
DWIDTH 12 0
BBX 11 11 0 0
BITMAP
1E40
3FE0
73C0
63C0
7FC0
3EC0
00C0
01C0
71C0
FF80
CF00
ENDCHAR
STARTCHAR 03E8
ENCODING 1000
SWIDTH 668 0
DWIDTH 13 0
BBX 10 14 1 0
BITMAP
1F00
3FC0
7FC0
F0C0
E0C0
07C0
3F80
7F00
F0C0
E0C0
E1C0
FFC0
7FC0
3F00
ENDCHAR
STARTCHAR 03E9
ENCODING 1001
SWIDTH 668 0
DWIDTH 13 0
BBX 10 14 1 0
BITMAP
1F00
3FC0
7FC0
F0C0
E0C0
07C0
3F80
7F00
F000
E000
E0C0
FFC0
7FC0
3F80
ENDCHAR
STARTCHAR 03EA
ENCODING 1002
SWIDTH 617 0
DWIDTH 12 0
BBX 12 14 0 0
BITMAP
79E0
FFF0
7FF0
1F80
0F00
0F00
0F00
1F80
1F80
39C0
39C0
3FE0
3FE0
3FE0
ENDCHAR
STARTCHAR 03EB
ENCODING 1003
SWIDTH 565 0
DWIDTH 11 0
BBX 11 11 0 0
BITMAP
F9E0
FBE0
1F80
0F00
0E00
0F00
1F80
3B80
39C0
7FC0
7FC0
ENDCHAR
STARTCHAR 03EC
ENCODING 1004
SWIDTH 720 0
DWIDTH 14 0
BBX 12 14 1 0
BITMAP
07E0
1FE0
3FE0
7800
EF80
FFE0
FFF0
F0F0
E070
E070
F0F0
7FF0
3FE0
1F80
ENDCHAR
STARTCHAR 03ED
ENCODING 1005
SWIDTH 565 0
DWIDTH 11 0
BBX 9 11 1 0
BITMAP
1F80
7F80
7000
FF00
FF80
C380
C180
E180
E380
7F00
3E00
ENDCHAR
STARTCHAR 03EE
ENCODING 1006
SWIDTH 514 0
DWIDTH 10 0
BBX 9 14 0 0
BITMAP
1C00
1C00
1C00
7F80
FF80
DC80
DC80
1C00
1C00
1C00
1C00
1C00
1C00
1C00
ENDCHAR
STARTCHAR 03EF
ENCODING 1007
SWIDTH 411 0
DWIDTH 8 0
BBX 8 14 0 0
BITMAP
18
1C
1C
FF
FF
9C
1C
1C
1C
1C
1C
1C
3C
0C
ENDCHAR
STARTCHAR 03F0
ENCODING 1008
SWIDTH 668 0
DWIDTH 13 0
BBX 13 11 0 0
BITMAP
E070
F0E0
39E0
3BE0
3FE0
3FE0
3EE0
3EE0
3CE0
7870
7038
ENDCHAR
STARTCHAR 03F1
ENCODING 1009
SWIDTH 617 0
DWIDTH 12 0
BBX 10 15 1 -4
BITMAP
1E00
7F00
7380
E1C0
E1C0
E1C0
E1C0
E1C0
F380
FF00
DE00
6000
7F80
1F80
0080
ENDCHAR
STARTCHAR 03F2
ENCODING 1010
SWIDTH 565 0
DWIDTH 11 0
BBX 9 11 1 0
BITMAP
3E00
7F00
E380
E300
E000
C000
E000
E300
E380
7F00
3E00
ENDCHAR
STARTCHAR 03F3
ENCODING 1011
SWIDTH 257 0
DWIDTH 5 0
BBX 5 18 -1 -4
BITMAP
38
38
00
38
38
38
38
38
38
38
38
38
38
38
38
38
F8
F0
ENDCHAR
STARTCHAR 03F4
ENCODING 1012
SWIDTH 771 0
DWIDTH 15 0
BBX 13 14 1 0
BITMAP
0F80
3FE0
7FF0
F070
E038
FFF8
FFF8
FFF8
E038
E038
F0F0
7FF0
3FE0
0F80
ENDCHAR
STARTCHAR 03F5
ENCODING 1013
SWIDTH 462 0
DWIDTH 9 0
BBX 7 11 1 0
BITMAP
3E
7E
E0
E0
F8
F8
E0
E0
E0
7E
3E
ENDCHAR
STARTCHAR 03F6
ENCODING 1014
SWIDTH 462 0
DWIDTH 9 0
BBX 7 11 1 0
BITMAP
F8
FC
0E
06
3E
3E
06
0E
0E
FC
F8
ENDCHAR
STARTCHAR 03F7
ENCODING 1015
SWIDTH 668 0
DWIDTH 13 0
BBX 11 14 1 0
BITMAP
E000
E000
FF80
FFC0
FFC0
E0E0
E0E0
E1E0
FFC0
FFC0
FF80
E000
E000
E000
ENDCHAR
STARTCHAR 03F8
ENCODING 1016
SWIDTH 617 0
DWIDTH 12 0
BBX 10 18 1 -4
BITMAP
E000
E000
E000
EF00
FF80
F380
E1C0
E1C0
E1C0
E1C0
E1C0
F380
FF80
EF00
E000
E000
E000
E000
ENDCHAR
STARTCHAR 03F9
ENCODING 1017
SWIDTH 720 0
DWIDTH 14 0
BBX 12 14 1 0
BITMAP
0F80
3FC0
7FE0
70F0
E040
E000
E000
E000
E000
E040
70F0
7FE0
3FC0
0F80
ENDCHAR
STARTCHAR 03FA
ENCODING 1018
SWIDTH 822 0
DWIDTH 16 0
BBX 13 14 1 0
BITMAP
F038
F878
FCF8
FCD8
EFD8
E798
E718
E018
E018
E018
E018
E018
E018
E018
ENDCHAR
STARTCHAR 03FB
ENCODING 1019
SWIDTH 720 0
DWIDTH 14 0
BBX 12 15 1 -4
BITMAP
F0F0
F0F0
F0F0
F9F0
F9B0
F9B0
EFB0
EF30
EF30
EF30
E630
E000
E000
E000
E000
ENDCHAR
STARTCHAR 03FC
ENCODING 1020
SWIDTH 617 0
DWIDTH 12 0
BBX 11 15 0 -4
BITMAP
0F00
3F80
39C0
70E0
70E0
70E0
70E0
70E0
79C0
7FC0
7F00
7000
FE00
7000
7000
ENDCHAR
STARTCHAR 03FD
ENCODING 1021
SWIDTH 720 0
DWIDTH 14 0
BBX 12 14 1 0
BITMAP
1F00
3FC0
7FE0
F0E0
60E0
0070
0070
0070
0070
60F0
F0E0
7FE0
7FC0
1F00
ENDCHAR
STARTCHAR 03FE
ENCODING 1022
SWIDTH 720 0
DWIDTH 14 0
BBX 12 14 1 0
BITMAP
0F80
3FC0
7FE0
70E0
E060
E600
E600
E600
E000
E060
70F0
7FE0
3FC0
0F80
ENDCHAR
STARTCHAR 03FF
ENCODING 1023
SWIDTH 720 0
DWIDTH 14 0
BBX 12 14 1 0
BITMAP
1F00
3FC0
7FE0
F0E0
60E0
0E70
0E70
0E70
0070
60F0
F0E0
7FE0
7FC0
1F00
ENDCHAR
STARTCHAR 0400
ENCODING 1024
SWIDTH 668 0
DWIDTH 13 0
BBX 11 18 1 0
BITMAP
1C00
0C00
0600
0000
FFC0
FFC0
FFC0
E000
E000
FFC0
FFC0
FFC0
E000
E000
E000
FFE0
FFE0
FFE0
ENDCHAR
STARTCHAR 0401
ENCODING 1025
SWIDTH 668 0
DWIDTH 13 0
BBX 11 17 1 0
BITMAP
3B80
3B80
0000
FFC0
FFC0
FFC0
E000
E000
FFC0
FFC0
FFC0
E000
E000
E000
FFE0
FFE0
FFE0
ENDCHAR
STARTCHAR 0402
ENCODING 1026
SWIDTH 874 0
DWIDTH 17 0
BBX 16 14 0 0
BITMAP
FFE0
FFE0
FFE0
0E00
0E00
0EFC
0FFE
0FFF
0F07
0E07
0E07
0E3F
0E3E
0E3C
ENDCHAR
STARTCHAR 0403
ENCODING 1027
SWIDTH 565 0
DWIDTH 11 0
BBX 10 18 1 0
BITMAP
0600
0E00
0C00
0000
FFC0
FFC0
FFC0
E000
E000
E000
E000
E000
E000
E000
E000
E000
E000
E000
ENDCHAR
STARTCHAR 0404
ENCODING 1028
SWIDTH 720 0
DWIDTH 14 0
BBX 12 14 1 0
BITMAP
1F80
3FC0
7FE0
70F0
E040
FE00
FE00
FE00
E000
E040
F0F0
7FE0
3FC0
1F80
ENDCHAR
STARTCHAR 0405
ENCODING 1029
SWIDTH 668 0
DWIDTH 13 0
BBX 11 14 1 0
BITMAP
3F00
7F80
FFC0
E1C0
E1C0
F000
7F00
1FC0
03C0
E0E0
E1E0
FFC0
7FC0
1F00
ENDCHAR
STARTCHAR 0406
ENCODING 1030
SWIDTH 257 0
DWIDTH 5 0
BBX 3 14 1 0
BITMAP
E0
E0
E0
E0
E0
E0
E0
E0
E0
E0
E0
E0
E0
E0
ENDCHAR
STARTCHAR 0407
ENCODING 1031
SWIDTH 257 0
DWIDTH 5 0
BBX 7 17 -1 0
BITMAP
EE
EE
00
38
38
38
38
38
38
38
38
38
38
38
38
38
38
ENDCHAR
STARTCHAR 0408
ENCODING 1032
SWIDTH 565 0
DWIDTH 11 0
BBX 9 14 0 0
BITMAP
0380
0380
0380
0380
0380
0380
0380
0380
0380
E380
E380
7F80
7F00
3E00
ENDCHAR
STARTCHAR 0409
ENCODING 1033
SWIDTH 1080 0
DWIDTH 21 0
BBX 20 14 0 0
BITMAP
3FE000
3FE000
3FE000
386000
386000
386000
387FC0
387FE0
387FF0
386070
386070
F87FF0
F07FE0
F07FC0
ENDCHAR
STARTCHAR 040A
ENCODING 1034
SWIDTH 1028 0
DWIDTH 20 0
BBX 18 14 1 0
BITMAP
E1C000
E1C000
E1C000
E1C000
E1C000
E1C000
FFFF00
FFFF80
FFFFC0
E1C1C0
E1C1C0
E1FFC0
E1FF80
E1FF00
ENDCHAR
STARTCHAR 040B
ENCODING 1035
SWIDTH 874 0
DWIDTH 17 0
BBX 14 14 1 0
BITMAP
FFC0
FFC0
FFC0
0C00
0C00
0DF0
0FF8
0FFC
0E1C
0C1C
0C1C
0C0C
0C0C
0C0C
ENDCHAR
STARTCHAR 040C
ENCODING 1036
SWIDTH 617 0
DWIDTH 12 0
BBX 10 18 1 0
BITMAP
0E00
0C00
0800
0000
E1C0
E3C0
E300
E700
E600
EE00
FC00
FE00
EF00
E700
E380
E380
E1C0
E1C0
ENDCHAR
STARTCHAR 040D
ENCODING 1037
SWIDTH 720 0
DWIDTH 14 0
BBX 11 18 1 0
BITMAP
1C00
0C00
0600
0000
E0E0
E0E0
E1E0
E3E0
E3E0
E760
E760
EE60
FC60
FC60
F860
F860
F060
E060
ENDCHAR
STARTCHAR 040E
ENCODING 1038
SWIDTH 617 0
DWIDTH 12 0
BBX 12 17 0 0
BITMAP
1880
0F00
0000
E070
70E0
70E0
39C0
39C0
1D80
0F80
0F80
0700
0700
0E00
3E00
3C00
3800
ENDCHAR
STARTCHAR 040F
ENCODING 1039
SWIDTH 720 0
DWIDTH 14 0
BBX 11 18 1 -4
BITMAP
E0E0
E0E0
E0E0
E0E0
E0E0
E0E0
E0E0
E0E0
E0E0
E0E0
E0E0
FFE0
FFE0
FFE0
0600
0600
0600
0600
ENDCHAR
STARTCHAR 0410
ENCODING 1040
SWIDTH 720 0
DWIDTH 14 0
BBX 13 14 0 0
BITMAP
0700
0780
0F80
0FC0
0DC0
1CC0
18E0
38E0
3FF0
3FF0
7FF0
7038
6038
E038
ENDCHAR
STARTCHAR 0411
ENCODING 1041
SWIDTH 720 0
DWIDTH 14 0
BBX 12 14 1 0
BITMAP
FFE0
FFE0
FFE0
E000
E000
E000
FFC0
FFE0
FFF0
E070
E070
FFF0
FFE0
FFC0
ENDCHAR
STARTCHAR 0412
ENCODING 1042
SWIDTH 720 0
DWIDTH 14 0
BBX 12 14 1 0
BITMAP
FF80
FFC0
FFE0
E0E0
E0E0
FFC0
FFC0
FFE0
E0F0
E070
E070
FFE0
FFE0
FFC0
ENDCHAR
STARTCHAR 0413
ENCODING 1043
SWIDTH 565 0
DWIDTH 11 0
BBX 9 14 2 0
BITMAP
FF80
FF80
FF80
C000
C000
C000
C000
C000
C000
C000
C000
C000
C000
C000
ENDCHAR
STARTCHAR 0414
ENCODING 1044
SWIDTH 720 0
DWIDTH 14 0
BBX 13 17 0 -3
BITMAP
3FF0
3FF0
3FF0
3870
3870
3870
3870
3870
3870
3070
7070
FFF8
FFF8
FFF8
C018
C018
C018
ENDCHAR
STARTCHAR 0415
ENCODING 1045
SWIDTH 668 0
DWIDTH 13 0
BBX 11 14 1 0
BITMAP
FFC0
FFC0
FFC0
E000
E000
FFC0
FFC0
FFC0
E000
E000
E000
FFE0
FFE0
FFE0
ENDCHAR
STARTCHAR 0416
ENCODING 1046
SWIDTH 874 0
DWIDTH 17 0
BBX 17 14 0 0
BITMAP
E1C380
F1C780
39CE00
19CC00
1DDC00
0DDC00
0FF800
0FF800
1DDC00
3DCE00
39CE00
79C700
71C700
F1C380
ENDCHAR
STARTCHAR 0417
ENCODING 1047
SWIDTH 617 0
DWIDTH 12 0
BBX 10 14 1 0
BITMAP
3E00
7F80
FF80
E380
4180
0380
0E00
0F80
03C0
41C0
E3C0
FFC0
7F80
3F00
ENDCHAR
STARTCHAR 0418
ENCODING 1048
SWIDTH 720 0
DWIDTH 14 0
BBX 11 14 1 0
BITMAP
E0E0
E0E0
E1E0
E3E0
E3E0
E760
E760
EE60
FC60
FC60
F860
F860
F060
E060
ENDCHAR
STARTCHAR 0419
ENCODING 1049
SWIDTH 720 0
DWIDTH 14 0
BBX 11 17 1 0
BITMAP
1180
0F00
0000
E0E0
E0E0
E1E0
E3E0
E3E0
E760
E760
EE60
FC60
FC60
F860
F860
F060
E060
ENDCHAR
STARTCHAR 041A
ENCODING 1050
SWIDTH 617 0
DWIDTH 12 0
BBX 10 14 1 0
BITMAP
E1C0
E3C0
E300
E700
E600
EE00
FC00
FE00
EF00
E700
E380
E380
E1C0
E1C0
ENDCHAR
STARTCHAR 041B
ENCODING 1051
SWIDTH 668 0
DWIDTH 13 0
BBX 12 14 0 0
BITMAP
3FF0
3FF0
3FF0
3870
3870
3870
3870
3870
3870
3870
3870
F870
F870
F070
ENDCHAR
STARTCHAR 041C
ENCODING 1052
SWIDTH 822 0
DWIDTH 16 0
BBX 13 14 1 0
BITMAP
F878
F878
F878
F8F8
FCF8
ECD8
ECD8
EDD8
EFD8
EF98
E798
E798
E798
E718
ENDCHAR
STARTCHAR 041D
ENCODING 1053
SWIDTH 720 0
DWIDTH 14 0
BBX 11 14 1 0
BITMAP
E060
E060
E060
E060
E060
FFE0
FFE0
FFE0
E060
E060
E060
E060
E060
E060
ENDCHAR
STARTCHAR 041E
ENCODING 1054
SWIDTH 771 0
DWIDTH 15 0
BBX 13 14 1 0
BITMAP
0F80
3FE0
7FF0
7070
E038
E038
E038
E038
E038
E038
F0F0
7FF0
3FE0
0F80
ENDCHAR
STARTCHAR 041F
ENCODING 1055
SWIDTH 720 0
DWIDTH 14 0
BBX 11 14 1 0
BITMAP
FFE0
FFE0
FFE0
E0E0
E0E0
E0E0
E0E0
E0E0
E0E0
E0E0
E0E0
E0E0
E0E0
E0E0
ENDCHAR
STARTCHAR 0420
ENCODING 1056
SWIDTH 668 0
DWIDTH 13 0
BBX 11 14 1 0
BITMAP
FF80
FFC0
FFC0
E1E0
E0E0
E1E0
FFC0
FFC0
FF80
E000
E000
E000
E000
E000
ENDCHAR
STARTCHAR 0421
ENCODING 1057
SWIDTH 720 0
DWIDTH 14 0
BBX 12 14 1 0
BITMAP
0F80
3FC0
7FE0
70F0
E040
E000
E000
E000
E000
E040
70F0
7FE0
3FC0
0F80
ENDCHAR
STARTCHAR 0422
ENCODING 1058
SWIDTH 617 0
DWIDTH 12 0
BBX 11 14 0 0
BITMAP
FFE0
FFE0
FFE0
0E00
0E00
0E00
0E00
0E00
0E00
0E00
0E00
0E00
0E00
0E00
ENDCHAR
STARTCHAR 0423
ENCODING 1059
SWIDTH 617 0
DWIDTH 12 0
BBX 12 14 0 0
BITMAP
E070
70E0
70E0
39C0
39C0
1D80
0F80
0F80
0700
0700
0E00
3E00
3C00
3800
ENDCHAR
STARTCHAR 0424
ENCODING 1060
SWIDTH 822 0
DWIDTH 16 0
BBX 14 14 1 0
BITMAP
0300
0300
1FE0
7FF8
FFFC
E31C
E30C
E30C
E31C
FFFC
7FF8
1FE0
0300
0300
ENDCHAR
STARTCHAR 0425
ENCODING 1061
SWIDTH 668 0
DWIDTH 13 0
BBX 12 14 0 0
BITMAP
7070
78E0
39E0
1DC0
1F80
0F80
0700
0F00
0F80
1FC0
3DC0
38E0
70F0
F070
ENDCHAR
STARTCHAR 0426
ENCODING 1062
SWIDTH 720 0
DWIDTH 14 0
BBX 12 17 1 -3
BITMAP
E0E0
E0E0
E0E0
E0E0
E0E0
E0E0
E0E0
E0E0
E0E0
E0E0
E0E0
FFF0
FFF0
FFF0
0030
0030
0030
ENDCHAR
STARTCHAR 0427
ENCODING 1063
SWIDTH 668 0
DWIDTH 13 0
BBX 11 14 1 0
BITMAP
E0E0
E0E0
E0E0
E0E0
E0E0
E0E0
FFE0
7FE0
3FE0
00E0
00E0
00E0
00E0
00E0
ENDCHAR
STARTCHAR 0428
ENCODING 1064
SWIDTH 977 0
DWIDTH 19 0
BBX 17 14 1 0
BITMAP
E1C380
E1C380
E1C380
E1C380
E1C380
E1C380
E1C380
E1C380
E1C380
E1C380
E1C380
FFFF80
FFFF80
FFFF80
ENDCHAR
STARTCHAR 0429
ENCODING 1065
SWIDTH 977 0
DWIDTH 19 0
BBX 18 17 1 -3
BITMAP
E1C380
E1C380
E1C380
E1C380
E1C380
E1C380
E1C380
E1C380
E1C380
E1C380
E1C380
FFFFC0
FFFFC0
FFFFC0
0000C0
0000C0
0000C0
ENDCHAR
STARTCHAR 042A
ENCODING 1066
SWIDTH 874 0
DWIDTH 17 0
BBX 16 14 0 0
BITMAP
FE00
FE00
FE00
0E00
0E00
0E00
0FFC
0FFE
0FFE
0E07
0E07
0FFE
0FFE
0FFC
ENDCHAR
STARTCHAR 042B
ENCODING 1067
SWIDTH 977 0
DWIDTH 19 0
BBX 16 14 1 0
BITMAP
E007
E007
E007
E007
E007
E007
FFC7
FFE7
FFF7
E077
E077
FFF7
FFE7
FFC7
ENDCHAR
STARTCHAR 042C
ENCODING 1068
SWIDTH 720 0
DWIDTH 14 0
BBX 12 14 1 0
BITMAP
E000
E000
E000
E000
E000
E000
FFC0
FFE0
FFE0
E070
E070
FFF0
FFE0
FFC0
ENDCHAR
STARTCHAR 042D
ENCODING 1069
SWIDTH 720 0
DWIDTH 14 0
BBX 12 14 1 0
BITMAP
1F00
7FC0
FFC0
F0E0
6060
07F0
07F0
07F0
0070
60E0
F1E0
FFC0
7FC0
1F00
ENDCHAR
STARTCHAR 042E
ENCODING 1070
SWIDTH 1028 0
DWIDTH 20 0
BBX 18 14 1 0
BITMAP
E07C00
E1FF00
E3FF80
E3C780
E78380
FF01C0
FF01C0
FF01C0
E701C0
E38380
E3C780
E1FF80
E1FF00
E07C00
ENDCHAR
STARTCHAR 042F
ENCODING 1071
SWIDTH 720 0
DWIDTH 14 0
BBX 12 14 0 0
BITMAP
1FF0
3FF0
7FF0
7030
7030
7030
3FF0
3FF0
0FF0
1E30
1C30
3830
7030
F030
ENDCHAR
STARTCHAR 0430
ENCODING 1072
SWIDTH 565 0
DWIDTH 11 0
BBX 9 11 1 0
BITMAP
3E00
7F00
E300
0F00
7F00
F300
C300
C300
E700
FF00
7B80
ENDCHAR
STARTCHAR 0431
ENCODING 1073
SWIDTH 617 0
DWIDTH 12 0
BBX 10 14 1 0
BITMAP
1F80
7F80
6000
DE00
FF00
F380
E1C0
E1C0
E1C0
E1C0
E1C0
7380
7F00
1E00
ENDCHAR
STARTCHAR 0432
ENCODING 1074
SWIDTH 617 0
DWIDTH 12 0
BBX 10 11 1 0
BITMAP
FF00
FF80
E1C0
E180
FF80
FF80
E1C0
E1C0
E1C0
FFC0
FF80
ENDCHAR
STARTCHAR 0433
ENCODING 1075
SWIDTH 411 0
DWIDTH 8 0
BBX 7 11 1 0
BITMAP
FE
FE
E0
E0
E0
E0
E0
E0
E0
E0
E0
ENDCHAR
STARTCHAR 0434
ENCODING 1076
SWIDTH 617 0
DWIDTH 12 0
BBX 12 14 0 -3
BITMAP
1FE0
1FE0
18E0
38E0
38E0
38E0
30E0
30E0
70E0
FFF0
FFF0
C030
C030
C030
ENDCHAR
STARTCHAR 0435
ENCODING 1077
SWIDTH 565 0
DWIDTH 11 0
BBX 9 11 1 0
BITMAP
3C00
7F00
E300
C380
FF80
FF80
C000
E000
E300
7F00
3E00
ENDCHAR
STARTCHAR 0436
ENCODING 1078
SWIDTH 668 0
DWIDTH 13 0
BBX 13 11 0 0
BITMAP
E738
F738
3770
3F60
1FE0
1FE0
3F60
7770
7730
6738
E718
ENDCHAR
STARTCHAR 0437
ENCODING 1079
SWIDTH 462 0
DWIDTH 9 0
BBX 9 11 0 0
BITMAP
3E00
7F00
2300
0300
0E00
0F00
0300
0380
6380
FF00
3E00
ENDCHAR
STARTCHAR 0438
ENCODING 1080
SWIDTH 617 0
DWIDTH 12 0
BBX 9 11 1 0
BITMAP
E180
E380
E780
E780
ED80
ED80
F980
F980
F180
F180
E180
ENDCHAR
STARTCHAR 0439
ENCODING 1081
SWIDTH 617 0
DWIDTH 12 0
BBX 9 14 1 0
BITMAP
2300
1E00
0000
E180
E380
E780
E780
ED80
ED80
F980
F980
F180
F180
E180
ENDCHAR
STARTCHAR 043A
ENCODING 1082
SWIDTH 514 0
DWIDTH 10 0
BBX 8 11 1 0
BITMAP
E7
E7
EE
EC
FC
FC
EC
EE
E6
E7
E3
ENDCHAR
STARTCHAR 043B
ENCODING 1083
SWIDTH 617 0
DWIDTH 12 0
BBX 11 11 0 0
BITMAP
3FE0
3FE0
38E0
38E0
38E0
38E0
38E0
38E0
38E0
F0E0
F0E0
ENDCHAR
STARTCHAR 043C
ENCODING 1084
SWIDTH 720 0
DWIDTH 14 0
BBX 12 11 1 0
BITMAP
F0F0
F0F0
F0F0
F9F0
F9B0
F9B0
EFB0
EF30
EF30
EF30
E630
ENDCHAR
STARTCHAR 043D
ENCODING 1085
SWIDTH 565 0
DWIDTH 11 0
BBX 9 11 1 0
BITMAP
E180
E180
E180
E180
FF80
FF80
E180
E180
E180
E180
E180
ENDCHAR
STARTCHAR 043E
ENCODING 1086
SWIDTH 617 0
DWIDTH 12 0
BBX 10 11 1 0
BITMAP
1E00
7F00
F380
E1C0
E1C0
C1C0
E1C0
E1C0
F380
7F00
1E00
ENDCHAR
STARTCHAR 043F
ENCODING 1087
SWIDTH 565 0
DWIDTH 11 0
BBX 9 11 1 0
BITMAP
FF80
FF80
E380
E380
E380
E380
E380
E380
E380
E380
E380
ENDCHAR
STARTCHAR 0440
ENCODING 1088
SWIDTH 617 0
DWIDTH 12 0
BBX 10 15 1 -4
BITMAP
EF00
FF80
F380
E1C0
E1C0
E1C0
E1C0
E1C0
F380
FF80
EF00
E000
E000
E000
E000
ENDCHAR
STARTCHAR 0441
ENCODING 1089
SWIDTH 565 0
DWIDTH 11 0
BBX 9 11 1 0
BITMAP
3E00
7F00
E380
E300
E000
C000
E000
E300
E380
7F00
3E00
ENDCHAR
STARTCHAR 0442
ENCODING 1090
SWIDTH 462 0
DWIDTH 9 0
BBX 9 11 0 0
BITMAP
FF80
FF80
1C00
1C00
1C00
1C00
1C00
1C00
1C00
1C00
1C00
ENDCHAR
STARTCHAR 0443
ENCODING 1091
SWIDTH 565 0
DWIDTH 11 0
BBX 10 15 0 -4
BITMAP
E1C0
61C0
7180
7180
3380
3B00
3B00
1F00
1E00
1E00
0E00
0C00
1C00
7C00
7800
ENDCHAR
STARTCHAR 0444
ENCODING 1092
SWIDTH 874 0
DWIDTH 17 0
BBX 15 18 1 -4
BITMAP
0380
0380
0380
3BB8
7FFC
E79C
E38E
E38E
C38E
E38E
E38E
E79C
7FFC
3BB8
0380
0380
0380
0380
ENDCHAR
STARTCHAR 0445
ENCODING 1093
SWIDTH 565 0
DWIDTH 11 0
BBX 10 11 0 0
BITMAP
71C0
7380
3B00
1F00
1E00
0E00
1F00
3F00
3B80
7380
E1C0
ENDCHAR
STARTCHAR 0446
ENCODING 1094
SWIDTH 617 0
DWIDTH 12 0
BBX 10 14 1 -3
BITMAP
E180
E180
E180
E180
E180
E180
E180
E180
E180
FFC0
FFC0
00C0
00C0
00C0
ENDCHAR
STARTCHAR 0447
ENCODING 1095
SWIDTH 565 0
DWIDTH 11 0
BBX 9 11 1 0
BITMAP
E380
E380
E380
E380
E380
7F80
3F80
0380
0380
0380
0380
ENDCHAR
STARTCHAR 0448
ENCODING 1096
SWIDTH 822 0
DWIDTH 16 0
BBX 14 11 1 0
BITMAP
E31C
E31C
E31C
E31C
E31C
E31C
E31C
E31C
E31C
FFFC
FFFC
ENDCHAR
STARTCHAR 0449
ENCODING 1097
SWIDTH 822 0
DWIDTH 16 0
BBX 15 14 1 -3
BITMAP
E31C
E31C
E31C
E31C
E31C
E31C
E31C
E31C
E31C
FFFE
FFFE
0006
0006
0006
ENDCHAR
STARTCHAR 044A
ENCODING 1098
SWIDTH 720 0
DWIDTH 14 0
BBX 13 11 0 0
BITMAP
FC00
FC00
0C00
0C00
0C00
0FF0
0FF8
0C38
0C38
0FF8
0FF0
ENDCHAR
STARTCHAR 044B
ENCODING 1099
SWIDTH 822 0
DWIDTH 16 0
BBX 14 11 1 0
BITMAP
E01C
E01C
E01C
E01C
FF1C
FF9C
E1DC
E1DC
E1DC
FF9C
FF1C
ENDCHAR
STARTCHAR 044C
ENCODING 1100
SWIDTH 617 0
DWIDTH 12 0
BBX 10 11 1 0
BITMAP
E000
E000
E000
E000
FF00
FF80
E1C0
E1C0
E1C0
FF80
FF00
ENDCHAR
STARTCHAR 044D
ENCODING 1101
SWIDTH 565 0
DWIDTH 11 0
BBX 9 11 1 0
BITMAP
7C00
FF00
6700
0380
1F80
1F80
0380
0380
4700
FF00
7C00
ENDCHAR
STARTCHAR 044E
ENCODING 1102
SWIDTH 822 0
DWIDTH 16 0
BBX 14 11 1 0
BITMAP
E1F0
E3F8
E71C
E70C
FF0C
FF0C
E70C
E70C
E31C
E3F8
E0F0
ENDCHAR
STARTCHAR 044F
ENCODING 1103
SWIDTH 565 0
DWIDTH 11 0
BBX 10 11 0 0
BITMAP
3FC0
7FC0
71C0
61C0
71C0
7FC0
3FC0
39C0
39C0
71C0
E1C0
ENDCHAR
STARTCHAR 0450
ENCODING 1104
SWIDTH 565 0
DWIDTH 11 0
BBX 9 15 1 0
BITMAP
3000
1800
1800
0000
3C00
7F00
E300
C380
FF80
FF80
C000
E000
E300
7F00
3E00
ENDCHAR
STARTCHAR 0451
ENCODING 1105
SWIDTH 565 0
DWIDTH 11 0
BBX 9 14 1 0
BITMAP
6600
6600
0000
3C00
7F00
E300
C380
FF80
FF80
C000
E000
E300
7F00
3E00
ENDCHAR
STARTCHAR 0452
ENCODING 1106
SWIDTH 617 0
DWIDTH 12 0
BBX 10 18 0 -4
BITMAP
7000
FE00
7000
7780
7FC0
79C0
70C0
70C0
70C0
70C0
70C0
70C0
70C0
70C0
00C0
00C0
03C0
0380
ENDCHAR
STARTCHAR 0453
ENCODING 1107
SWIDTH 411 0
DWIDTH 8 0
BBX 7 15 1 0
BITMAP
18
30
30
00
FE
FE
E0
E0
E0
E0
E0
E0
E0
E0
E0
ENDCHAR
STARTCHAR 0454
ENCODING 1108
SWIDTH 565 0
DWIDTH 11 0
BBX 9 11 1 0
BITMAP
3E00
7F00
E200
E000
F800
F800
E000
E000
E300
7F80
3E00
ENDCHAR
STARTCHAR 0455
ENCODING 1109
SWIDTH 565 0
DWIDTH 11 0
BBX 9 11 1 0
BITMAP
7E00
FF00
C300
E000
FC00
7F00
1F80
0380
C300
FF00
3E00
ENDCHAR
STARTCHAR 0456
ENCODING 1110
SWIDTH 257 0
DWIDTH 5 0
BBX 3 14 1 0
BITMAP
E0
E0
00
E0
E0
E0
E0
E0
E0
E0
E0
E0
E0
E0
ENDCHAR
STARTCHAR 0457
ENCODING 1111
SWIDTH 257 0
DWIDTH 5 0
BBX 6 14 0 0
BITMAP
CC
CC
00
70
70
70
70
70
70
70
70
70
70
70
ENDCHAR
STARTCHAR 0458
ENCODING 1112
SWIDTH 257 0
DWIDTH 5 0
BBX 5 18 -1 -4
BITMAP
38
38
00
38
38
38
38
38
38
38
38
38
38
38
38
38
F8
F0
ENDCHAR
STARTCHAR 0459
ENCODING 1113
SWIDTH 925 0
DWIDTH 18 0
BBX 18 11 0 0
BITMAP
3FE000
3FE000
38E000
38E000
38FF00
38FF80
38E1C0
38E1C0
38E1C0
F0FF80
F0FF00
ENDCHAR
STARTCHAR 045A
ENCODING 1114
SWIDTH 874 0
DWIDTH 17 0
BBX 15 11 1 0
BITMAP
E380
E380
E380
E380
FFFC
FFFE
E38E
E386
E38E
E3FE
E3FC
ENDCHAR
STARTCHAR 045B
ENCODING 1115
SWIDTH 617 0
DWIDTH 12 0
BBX 10 14 0 0
BITMAP
7000
FE00
7000
7780
7FC0
79C0
70C0
70C0
70C0
70C0
70C0
70C0
70C0
70C0
ENDCHAR
STARTCHAR 045C
ENCODING 1116
SWIDTH 514 0
DWIDTH 10 0
BBX 8 15 1 0
BITMAP
0C
1C
18
00
E7
E7
EE
EC
FC
FC
EC
EE
E6
E7
E3
ENDCHAR
STARTCHAR 045D
ENCODING 1117
SWIDTH 617 0
DWIDTH 12 0
BBX 9 15 1 0
BITMAP
3800
1800
0C00
0000
E180
E380
E780
E780
ED80
ED80
F980
F980
F180
F180
E180
ENDCHAR
STARTCHAR 045E
ENCODING 1118
SWIDTH 565 0
DWIDTH 11 0
BBX 10 18 0 -4
BITMAP
1100
1E00
0000
E1C0
61C0
7180
7180
3380
3B00
3B00
1F00
1E00
1E00
0E00
0C00
1C00
7C00
7800
ENDCHAR
STARTCHAR 045F
ENCODING 1119
SWIDTH 565 0
DWIDTH 11 0
BBX 9 14 1 -3
BITMAP
E180
E180
E180
E180
E180
E180
E180
E180
E180
FF80
FF80
0C00
0C00
0C00
ENDCHAR
STARTCHAR 0460
ENCODING 1120
SWIDTH 1234 0
DWIDTH 24 0
BBX 22 14 1 0
BITMAP
0F83E0
3FC7F0
7F87F8
70843C
E0001C
E0001C
E0000C
E0380C
E0381C
E0381C
707C3C
7FFFF8
3FFFF0
0FC7C0
ENDCHAR
STARTCHAR 0461
ENCODING 1121
SWIDTH 771 0
DWIDTH 15 0
BBX 15 11 0 0
BITMAP
E70E
E70C
E71C
631C
7398
77B8
37B0
3FF0
1EF0
1EE0
1CE0
ENDCHAR
STARTCHAR 0462
ENCODING 1122
SWIDTH 874 0
DWIDTH 17 0
BBX 16 14 0 0
BITMAP
0E00
0E00
FFE0
FFE0
0E00
0E00
0FF8
0FFE
0FFE
0E07
0E07
0FFE
0FFE
0FFC
ENDCHAR
STARTCHAR 0463
ENCODING 1123
SWIDTH 668 0
DWIDTH 13 0
BBX 13 14 0 0
BITMAP
1C00
1C00
1C00
FF80
FF80
1C00
1FE0
1FF0
1C70
1C38
1C38
1C70
1FF0
1FE0
ENDCHAR
STARTCHAR 0464
ENCODING 1124
SWIDTH 977 0
DWIDTH 19 0
BBX 17 14 1 0
BITMAP
E0FC00
E1FE00
E3FF00
E78780
E70200
FFF000
FFF000
FFF000
E70000
E70200
E38780
E3FF00
E1FE00
E0FC00
ENDCHAR
STARTCHAR 0465
ENCODING 1125
SWIDTH 771 0
DWIDTH 15 0
BBX 13 11 1 0
BITMAP
E1F0
E7F8
E710
EE00
FFC0
FFC0
EE00
E600
E710
E3F8
E1F0
ENDCHAR
STARTCHAR 0466
ENCODING 1126
SWIDTH 668 0
DWIDTH 13 0
BBX 12 14 0 0
BITMAP
0700
0F00
0F80
0F80
1F80
1DC0
19C0
3FC0
3FE0
36E0
7660
7670
6670
E630
ENDCHAR
STARTCHAR 0467
ENCODING 1127
SWIDTH 565 0
DWIDTH 11 0
BBX 10 11 0 0
BITMAP
0E00
0E00
1E00
1F00
3F00
3B00
3F80
7F80
7D80
6DC0
EDC0
ENDCHAR
STARTCHAR 0468
ENCODING 1128
SWIDTH 925 0
DWIDTH 18 0
BBX 16 14 1 0
BITMAP
E070
E0F0
E0F8
E0F8
E1F8
E1DC
E19C
FFFC
FFFE
E76E
E76E
E767
EE67
EE67
ENDCHAR
STARTCHAR 0469
ENCODING 1129
SWIDTH 771 0
DWIDTH 15 0
BBX 14 11 1 0
BITMAP
E0C0
E1E0
E1E0
E1E0
E3F0
E370
FFF0
FFF8
E6F8
EED8
EEDC
ENDCHAR
STARTCHAR 046A
ENCODING 1130
SWIDTH 771 0
DWIDTH 15 0
BBX 14 14 1 0
BITMAP
7FF8
7FF0
38E0
1CE0
0DC0
3FE0
7FF0
FFF8
F738
E718
E71C
E71C
E71C
E71C
ENDCHAR
STARTCHAR 046B
ENCODING 1131
SWIDTH 720 0
DWIDTH 14 0
BBX 12 11 1 0
BITMAP
7FE0
3FC0
39C0
1D80
1F80
3FC0
7FE0
7670
E670
E630
E630
ENDCHAR
STARTCHAR 046C
ENCODING 1132
SWIDTH 1028 0
DWIDTH 20 0
BBX 19 14 1 0
BITMAP
E3FFC0
E1FF80
E1C700
E0E700
E07E00
FFFF00
FFFF80
FFFFC0
E7B9C0
E738E0
E738E0
E738E0
E738E0
E738E0
ENDCHAR
STARTCHAR 046D
ENCODING 1133
SWIDTH 977 0
DWIDTH 19 0
BBX 17 11 1 0
BITMAP
E3FE00
E3FE00
E1DC00
E1DC00
E0D800
FFFC00
FFFF00
E77700
E67300
EE7380
EE7380
ENDCHAR
STARTCHAR 046E
ENCODING 1134
SWIDTH 617 0
DWIDTH 12 0
BBX 10 21 1 -4
BITMAP
2380
3600
1400
3E00
7F80
FF80
E380
0180
0380
0E00
0F80
01C0
01C0
03C0
7FC0
FF80
FE00
C000
FF80
FFC0
7FC0
ENDCHAR
STARTCHAR 046F
ENCODING 1135
SWIDTH 462 0
DWIDTH 9 0
BBX 8 18 1 -4
BITMAP
47
6C
28
7C
FE
C6
06
06
1C
1E
07
07
7E
FC
C0
C7
FF
73
ENDCHAR
STARTCHAR 0470
ENCODING 1136
SWIDTH 771 0
DWIDTH 15 0
BBX 14 14 1 0
BITMAP
E71C
E71C
E71C
771C
771C
7718
7738
3FF8
3FF0
1FE0
0700
0700
0700
0700
ENDCHAR
STARTCHAR 0471
ENCODING 1137
SWIDTH 720 0
DWIDTH 14 0
BBX 12 15 1 -4
BITMAP
E630
E630
6630
6630
6630
7630
7630
7670
3670
3FE0
1FC0
0600
0600
0600
0600
ENDCHAR
STARTCHAR 0472
ENCODING 1138
SWIDTH 771 0
DWIDTH 15 0
BBX 13 14 1 0
BITMAP
0F80
3FE0
7FF0
F070
E038
E3F8
FFF8
FFF8
FC38
E038
F070
7FF0
3FE0
0F80
ENDCHAR
STARTCHAR 0473
ENCODING 1139
SWIDTH 617 0
DWIDTH 12 0
BBX 10 11 1 0
BITMAP
1E00
7F00
F380
E1C0
E7C0
FFC0
F9C0
E1C0
E380
7F00
1E00
ENDCHAR
STARTCHAR 0474
ENCODING 1140
SWIDTH 771 0
DWIDTH 15 0
BBX 15 14 0 0
BITMAP
E038
603E
707E
7072
38E0
38E0
38E0
1DC0
1DC0
1D80
0F80
0F80
0F00
0700
ENDCHAR
STARTCHAR 0475
ENCODING 1141
SWIDTH 617 0
DWIDTH 12 0
BBX 12 11 0 0
BITMAP
E0E0
61F0
7180
7380
3380
3B00
3B00
1F00
1E00
0E00
0E00
ENDCHAR
STARTCHAR 0476
ENCODING 1142
SWIDTH 771 0
DWIDTH 15 0
BBX 15 18 0 0
BITMAP
3B00
1980
0C80
0000
E038
603E
707E
7072
38E0
38E0
38E0
1DC0
1DC0
1D80
0F80
0F80
0F00
0700
ENDCHAR
STARTCHAR 0477
ENCODING 1143
SWIDTH 617 0
DWIDTH 12 0
BBX 12 15 0 0
BITMAP
7600
3300
1B00
0000
E0E0
61F0
7180
7380
3380
3B00
3B00
1F00
1E00
0E00
0E00
ENDCHAR
STARTCHAR 0478
ENCODING 1144
SWIDTH 1080 0
DWIDTH 21 0
BBX 20 18 1 -4
BITMAP
1E0000
7F0000
7F8000
F3B870
E1D860
E1DCE0
E1DCE0
E1CCC0
E1CCC0
E1CFC0
F38F80
7F8780
7F0780
1E0700
000700
000700
001E00
001C00
ENDCHAR
STARTCHAR 0479
ENCODING 1145
SWIDTH 977 0
DWIDTH 19 0
BBX 17 15 1 -4
BITMAP
39C380
7CE380
EEE300
E6E700
C66700
C67600
C67E00
E63E00
EE3C00
7C3C00
381C00
001800
003800
00F800
00F000
ENDCHAR
STARTCHAR 047A
ENCODING 1146
SWIDTH 771 0
DWIDTH 15 0
BBX 15 16 0 -1
BITMAP
0380
0FE0
1FF8
3FFC
79BC
700E
E00E
E00E
E00E
E00E
700E
79BC
3FFC
3FF8
0FE0
0380
ENDCHAR
STARTCHAR 047B
ENCODING 1147
SWIDTH 617 0
DWIDTH 12 0
BBX 12 13 0 -1
BITMAP
0600
1F80
3FC0
76E0
6060
E070
E070
E070
6070
76E0
3FC0
1F80
0600
ENDCHAR
STARTCHAR 047C
ENCODING 1148
SWIDTH 1234 0
DWIDTH 24 0
BBX 22 21 1 0
BITMAP
007800
00FE00
0187C0
01B1C0
003000
001000
002000
0F83E0
3FC7F0
7F87F8
70843C
E0001C
E0001C
E0000C
E0000C
E0001C
E0001C
70783C
7FFFF8
3FFFF0
0FC7C0
ENDCHAR
STARTCHAR 047D
ENCODING 1149
SWIDTH 874 0
DWIDTH 17 0
BBX 15 19 1 0
BITMAP
03C0
07F0
0C3C
099C
0180
0100
0100
0000
3818
781C
E00E
E00E
E006
C006
E006
E00E
E10E
7FFC
3EF8
ENDCHAR
STARTCHAR 047E
ENCODING 1150
SWIDTH 1234 0
DWIDTH 24 0
BBX 22 17 1 0
BITMAP
01FE00
011200
000000
0F83E0
3FC7F0
7F87F8
70843C
E0001C
E0001C
E0000C
E0380C
E0381C
E0381C
707C3C
7FFFF8
3FFFF0
0FC7C0
ENDCHAR
STARTCHAR 047F
ENCODING 1151
SWIDTH 771 0
DWIDTH 15 0
BBX 15 14 0 0
BITMAP
1FE0
1220
0000
E70E
E70C
E71C
631C
7398
77B8
37B0
3FF0
1EF0
1EE0
1CE0
ENDCHAR
STARTCHAR 0480
ENCODING 1152
SWIDTH 720 0
DWIDTH 14 0
BBX 11 18 1 -4
BITMAP
0F80
3FC0
7FE0
70E0
E060
E000
E000
E000
E000
E000
7000
7F00
3F00
1F00
0700
0700
0700
0700
ENDCHAR
STARTCHAR 0481
ENCODING 1153
SWIDTH 565 0
DWIDTH 11 0
BBX 9 15 1 -4
BITMAP
3E00
7F00
E380
E380
E000
C000
E000
E000
E000
7C00
3C00
1C00
1C00
1C00
1C00
ENDCHAR
STARTCHAR 0482
ENCODING 1154
SWIDTH 565 0
DWIDTH 11 0
BBX 11 14 0 0
BITMAP
0300
0300
0300
7F00
7FC0
3FE0
07E0
7E00
FF80
7FC0
0FC0
1C00
1800
1800
ENDCHAR
STARTCHAR 0483
ENCODING 1155
SWIDTH 0 0
DWIDTH 0 0
BBX 6 3 -3 12
BITMAP
0C
FC
C0
ENDCHAR
STARTCHAR 0484
ENCODING 1156
SWIDTH 0 0
DWIDTH 0 0
BBX 6 3 -3 12
BITMAP
38
E4
C4
ENDCHAR
STARTCHAR 0485
ENCODING 1157
SWIDTH 0 0
DWIDTH 0 0
BBX 2 4 -1 10
BITMAP
C0
C0
80
40
ENDCHAR
STARTCHAR 0486
ENCODING 1158
SWIDTH 0 0
DWIDTH 0 0
BBX 2 4 -1 10
BITMAP
C0
C0
40
80
ENDCHAR
STARTCHAR 0487
ENCODING 1159
SWIDTH 0 0
DWIDTH 0 0
BBX 10 4 -5 13
BITMAP
3C00
7F00
C3C0
80C0
ENDCHAR
STARTCHAR 0488
ENCODING 1160
SWIDTH 0 0
DWIDTH 0 0
BBX 18 16 -9 -3
BITMAP
01C000
012000
300300
480480
000000
000000
000000
E001C0
900240
000000
000000
000000
300300
480480
01C000
012000
ENDCHAR
STARTCHAR 0489
ENCODING 1161
SWIDTH 0 0
DWIDTH 0 0
BBX 18 18 -9 -4
BITMAP
004000
008000
20C000
200300
100600
100000
000000
000180
A00140
600000
000000
000000
000200
180200
300100
00C100
004000
008000
ENDCHAR
STARTCHAR 048A
ENCODING 1162
SWIDTH 720 0
DWIDTH 14 0
BBX 13 20 1 -3
BITMAP
1180
0F00
0000
E0E0
E0E0
E1E0
E3E0
E3E0
E760
E760
EE60
FC60
FC60
F860
F878
F070
E070
0030
0060
0060
ENDCHAR
STARTCHAR 048B
ENCODING 1163
SWIDTH 617 0
DWIDTH 12 0
BBX 11 17 1 -3
BITMAP
2300
1E00
0000
E180
E380
E780
E780
EF80
ED80
F980
F980
F180
F1E0
E1C0
00C0
0180
0180
ENDCHAR
STARTCHAR 048C
ENCODING 1164
SWIDTH 720 0
DWIDTH 14 0
BBX 13 14 0 0
BITMAP
7000
7000
FC00
FC00
7000
7000
7FE0
7FF0
7FF8
7038
7038
7FF8
7FF0
7FE0
ENDCHAR
STARTCHAR 048D
ENCODING 1165
SWIDTH 617 0
DWIDTH 12 0
BBX 11 14 0 0
BITMAP
7000
F800
F800
7000
7000
7000
7000
7F80
7FC0
70E0
70E0
70E0
7FC0
7F80
ENDCHAR
STARTCHAR 048E
ENCODING 1166
SWIDTH 668 0
DWIDTH 13 0
BBX 11 14 1 0
BITMAP
FF80
FFC0
FFC0
E1E0
E2E0
E3E0
FFC0
FFC0
FFE0
E040
E000
E000
E000
E000
ENDCHAR
STARTCHAR 048F
ENCODING 1167
SWIDTH 617 0
DWIDTH 12 0
BBX 10 15 1 -4
BITMAP
EF00
FF80
F380
E1C0
E1C0
E1C0
E1C0
E7C0
F380
FF80
EFC0
E000
E000
E000
E000
ENDCHAR
STARTCHAR 0490
ENCODING 1168
SWIDTH 462 0
DWIDTH 9 0
BBX 8 17 1 0
BITMAP
07
07
07
FF
FF
FF
E0
E0
E0
E0
E0
E0
E0
E0
E0
E0
E0
ENDCHAR
STARTCHAR 0491
ENCODING 1169
SWIDTH 411 0
DWIDTH 8 0
BBX 7 14 1 0
BITMAP
06
06
06
FE
FE
E0
E0
E0
E0
E0
E0
E0
E0
E0
ENDCHAR
STARTCHAR 0492
ENCODING 1170
SWIDTH 565 0
DWIDTH 11 0
BBX 11 14 0 0
BITMAP
3FE0
3FE0
3000
3000
3000
3000
FE00
FE00
3000
3000
3000
3000
3000
3000
ENDCHAR
STARTCHAR 0493
ENCODING 1171
SWIDTH 411 0
DWIDTH 8 0
BBX 8 11 0 0
BITMAP
7F
7F
70
70
FC
FC
70
70
70
70
70
ENDCHAR
STARTCHAR 0494
ENCODING 1172
SWIDTH 668 0
DWIDTH 13 0
BBX 11 18 1 -4
BITMAP
FFC0
FFC0
FFC0
E000
E000
EF80
FFC0
FFE0
F1E0
E0E0
E0E0
E0E0
E0E0
E0E0
00E0
F3C0
7FC0
1F00
ENDCHAR
STARTCHAR 0495
ENCODING 1173
SWIDTH 565 0
DWIDTH 11 0
BBX 10 15 1 -4
BITMAP
FE00
FE00
E000
E000
FE00
FF80
E380
E1C0
E1C0
E1C0
E1C0
01C0
E380
7F80
3E00
ENDCHAR
STARTCHAR 0496
ENCODING 1174
SWIDTH 874 0
DWIDTH 17 0
BBX 17 17 0 -3
BITMAP
F1C380
F9C780
F9CF80
3DCE00
1DDC00
1FFC00
0FF800
1FFC00
1DDE00
3DCE00
39CF00
79C780
71C780
F1C380
000180
000180
000180
ENDCHAR
STARTCHAR 0497
ENCODING 1175
SWIDTH 668 0
DWIDTH 13 0
BBX 13 14 0 -3
BITMAP
E738
F738
3770
3F60
1FE0
1FE0
3F60
7770
7730
6738
E718
0018
0018
0018
ENDCHAR
STARTCHAR 0498
ENCODING 1176
SWIDTH 617 0
DWIDTH 12 0
BBX 10 18 1 -4
BITMAP
3E00
7F80
FF80
E380
4180
0380
0E00
0F80
01C0
41C0
E1C0
FFC0
7F80
3F00
0400
0400
0C00
3800
ENDCHAR
STARTCHAR 0499
ENCODING 1177
SWIDTH 462 0
DWIDTH 9 0
BBX 9 15 0 -4
BITMAP
3E00
7F00
6300
0300
0E00
0F00
0300
0380
E380
7F00
3E00
0C00
0C00
0C00
3800
ENDCHAR
STARTCHAR 049A
ENCODING 1178
SWIDTH 617 0
DWIDTH 12 0
BBX 10 17 1 -3
BITMAP
E1C0
E3C0
E3C0
E700
EF00
FE00
FC00
FE00
EF00
E780
E380
E3C0
E1C0
E1C0
00C0
00C0
00C0
ENDCHAR
STARTCHAR 049B
ENCODING 1179
SWIDTH 514 0
DWIDTH 10 0
BBX 9 14 1 -3
BITMAP
E700
E700
EE00
EC00
FC00
FC00
EC00
EE00
E600
E780
E380
0380
0380
0380
ENDCHAR
STARTCHAR 049C
ENCODING 1180
SWIDTH 617 0
DWIDTH 12 0
BBX 10 14 1 0
BITMAP
E1C0
E3C0
EBC0
EF00
EF00
FE00
FC00
FE00
EF00
EF00
EB80
EB80
E1C0
E1C0
ENDCHAR
STARTCHAR 049D
ENCODING 1181
SWIDTH 514 0
DWIDTH 10 0
BBX 8 11 1 0
BITMAP
E7
F7
EE
EC
FC
FC
EC
EE
F6
F7
E3
ENDCHAR
STARTCHAR 049E
ENCODING 1182
SWIDTH 617 0
DWIDTH 12 0
BBX 11 14 0 0
BITMAP
70E0
71E0
F980
FB80
7300
7700
7E00
7F00
7780
7380
71C0
71C0
70E0
70E0
ENDCHAR
STARTCHAR 049F
ENCODING 1183
SWIDTH 514 0
DWIDTH 10 0
BBX 9 14 0 0
BITMAP
7000
F800
F800
7380
7380
7700
7600
7E00
7E00
7600
7700
7300
7380
7180
ENDCHAR
STARTCHAR 04A0
ENCODING 1184
SWIDTH 720 0
DWIDTH 14 0
BBX 14 14 0 0
BITMAP
FE1C
FE3C
FE30
0E70
0E60
0EE0
0FC0
0FE0
0EF0
0E70
0E78
0E38
0E3C
0E1C
ENDCHAR
STARTCHAR 04A1
ENCODING 1185
SWIDTH 617 0
DWIDTH 12 0
BBX 12 11 0 0
BITMAP
FC60
FCE0
0CC0
0D80
0F80
0F80
0DC0
0CC0
0CE0
0CE0
0C70
ENDCHAR
STARTCHAR 04A2
ENCODING 1186
SWIDTH 720 0
DWIDTH 14 0
BBX 12 17 1 -3
BITMAP
E060
E060
E060
E060
E060
FFE0
FFE0
FFE0
E060
E060
E060
E070
E070
E070
0030
0030
0030
ENDCHAR
STARTCHAR 04A3
ENCODING 1187
SWIDTH 565 0
DWIDTH 11 0
BBX 10 14 1 -3
BITMAP
E180
E180
E180
E180
FF80
FF80
E180
E180
E180
E1C0
E1C0
00C0
00C0
00C0
ENDCHAR
STARTCHAR 04A4
ENCODING 1188
SWIDTH 874 0
DWIDTH 17 0
BBX 15 14 1 0
BITMAP
E07E
E07E
E07E
E060
E060
FFE0
FFE0
FFE0
E060
E060
E060
E060
E060
E060
ENDCHAR
STARTCHAR 04A5
ENCODING 1189
SWIDTH 720 0
DWIDTH 14 0
BBX 12 11 1 0
BITMAP
E1F0
E1F0
E180
E180
FF80
FF80
E180
E180
E180
E180
E180
ENDCHAR
STARTCHAR 04A6
ENCODING 1190
SWIDTH 1080 0
DWIDTH 21 0
BBX 19 18 1 -4
BITMAP
FFE000
FFE000
FFE000
E0E000
E0E000
E0EF80
E0FFC0
E0FFE0
E0F1E0
E0E0E0
E0E0E0
E0E0E0
E0E0E0
E0E0E0
0000E0
0073C0
007FC0
001F00
ENDCHAR
STARTCHAR 04A7
ENCODING 1191
SWIDTH 925 0
DWIDTH 18 0
BBX 16 15 1 -4
BITMAP
FF80
FF80
E380
E380
E3FC
E3FE
E386
E387
E387
E387
E387
0007
0387
01FE
00FC
ENDCHAR
STARTCHAR 04A8
ENCODING 1192
SWIDTH 720 0
DWIDTH 14 0
BBX 12 14 1 0
BITMAP
1E00
7E00
7C00
F3C0
E7C0
C7E0
CEE0
CE60
EE60
E6E0
F7C0
7FF0
7FF0
1FF0
ENDCHAR
STARTCHAR 04A9
ENCODING 1193
SWIDTH 565 0
DWIDTH 11 0
BBX 11 11 0 0
BITMAP
1C00
3C00
7380
6780
6680
E6C0
64C0
6680
7780
3FC0
1FE0
ENDCHAR
STARTCHAR 04AA
ENCODING 1194
SWIDTH 720 0
DWIDTH 14 0
BBX 12 18 1 -4
BITMAP
0F80
3FC0
7FE0
70E0
E060
E000
E000
E000
E000
E060
70F0
7FE0
3FC0
1F80
0300
0300
0300
0E00
ENDCHAR
STARTCHAR 04AB
ENCODING 1195
SWIDTH 565 0
DWIDTH 11 0
BBX 9 15 1 -4
BITMAP
3E00
7F00
E380
E380
E000
C000
E000
E380
E380
7F00
3E00
0C00
0C00
0C00
3800
ENDCHAR
STARTCHAR 04AC
ENCODING 1196
SWIDTH 617 0
DWIDTH 12 0
BBX 11 17 0 -3
BITMAP
FFE0
FFE0
FFE0
0E00
0E00
0E00
0E00
0E00
0E00
0E00
0E00
0F00
0F00
0F00
0300
0300
0300
ENDCHAR
STARTCHAR 04AD
ENCODING 1197
SWIDTH 462 0
DWIDTH 9 0
BBX 9 14 0 -3
BITMAP
FF80
FF80
1C00
1C00
1C00
1C00
1C00
1C00
1C00
1E00
1E00
0600
0600
0600
ENDCHAR
STARTCHAR 04AE
ENCODING 1198
SWIDTH 565 0
DWIDTH 11 0
BBX 10 14 0 0
BITMAP
E1C0
71C0
7380
3B80
3F00
1F00
1E00
0E00
0E00
0E00
0E00
0E00
0E00
0E00
ENDCHAR
STARTCHAR 04AF
ENCODING 1199
SWIDTH 565 0
DWIDTH 11 0
BBX 10 15 0 -4
BITMAP
E0C0
61C0
71C0
7180
3380
3B80
3B00
1F00
1E00
0E00
0E00
0E00
0E00
0E00
0E00
ENDCHAR
STARTCHAR 04B0
ENCODING 1200
SWIDTH 565 0
DWIDTH 11 0
BBX 10 14 0 0
BITMAP
E1C0
71C0
7380
3380
3B00
1F00
FFC0
FFC0
FFC0
0E00
0E00
0E00
0E00
0E00
ENDCHAR
STARTCHAR 04B1
ENCODING 1201
SWIDTH 565 0
DWIDTH 11 0
BBX 10 15 0 -4
BITMAP
E0C0
61C0
71C0
7180
3380
3B80
3B00
1F00
1E00
0E00
0E00
7FC0
7FC0
0E00
0E00
ENDCHAR
STARTCHAR 04B2
ENCODING 1202
SWIDTH 668 0
DWIDTH 13 0
BBX 13 17 0 -3
BITMAP
7070
78E0
39E0
1DC0
1F80
0F80
0700
0F80
0F80
1FC0
3DE0
38F8
70F8
F078
0038
0038
0038
ENDCHAR
STARTCHAR 04B3
ENCODING 1203
SWIDTH 565 0
DWIDTH 11 0
BBX 10 14 0 -3
BITMAP
71C0
7380
3F80
3F00
1E00
0E00
1E00
3F00
3B80
73C0
E1C0
00C0
00C0
00C0
ENDCHAR
STARTCHAR 04B4
ENCODING 1204
SWIDTH 822 0
DWIDTH 16 0
BBX 16 17 0 -3
BITMAP
FFCE
FFCE
FFCE
0E0E
0E0E
0E0E
0E0E
0E0E
0E0E
0E0E
0E0E
0FFF
0FFF
0FFF
0007
0007
0007
ENDCHAR
STARTCHAR 04B5
ENCODING 1205
SWIDTH 668 0
DWIDTH 13 0
BBX 13 14 0 -3
BITMAP
FF70
FF70
1870
1870
1870
1870
1870
1870
1870
1FF8
1FF8
0018
0018
0018
ENDCHAR
STARTCHAR 04B6
ENCODING 1206
SWIDTH 668 0
DWIDTH 13 0
BBX 12 17 1 -3
BITMAP
E0E0
E0E0
E0E0
E0E0
E0E0
E0E0
FFE0
7FE0
3FE0
00E0
00E0
00F0
00F0
00F0
0030
0030
0030
ENDCHAR
STARTCHAR 04B7
ENCODING 1207
SWIDTH 565 0
DWIDTH 11 0
BBX 10 14 1 -3
BITMAP
E380
E380
E380
E380
E380
7F80
3F80
0380
0380
03C0
03C0
00C0
00C0
00C0
ENDCHAR
STARTCHAR 04B8
ENCODING 1208
SWIDTH 668 0
DWIDTH 13 0
BBX 11 14 1 0
BITMAP
E0E0
E0E0
E0E0
E4E0
E4E0
E4E0
FFE0
7FE0
3FE0
04E0
04E0
04E0
00E0
00E0
ENDCHAR
STARTCHAR 04B9
ENCODING 1209
SWIDTH 565 0
DWIDTH 11 0
BBX 9 11 1 0
BITMAP
E380
E380
EB80
EB80
EB80
7F80
3F80
0B80
0B80
0380
0380
ENDCHAR
STARTCHAR 04BA
ENCODING 1210
SWIDTH 668 0
DWIDTH 13 0
BBX 11 14 1 0
BITMAP
E000
E000
E000
E000
E000
EF80
FFC0
FFE0
F0E0
E0E0
E0E0
E0E0
E0E0
E0E0
ENDCHAR
STARTCHAR 04BB
ENCODING 1211
SWIDTH 617 0
DWIDTH 12 0
BBX 9 14 1 0
BITMAP
E000
E000
E000
EF00
FF80
F380
E180
E180
E180
E180
E180
E180
E180
E180
ENDCHAR
STARTCHAR 04BC
ENCODING 1212
SWIDTH 822 0
DWIDTH 16 0
BBX 16 14 0 0
BITMAP
01F0
07F8
8FFC
CE0E
DC0E
FFFE
FFFF
7FFE
1C00
0E0E
0F1E
07FC
07FC
01F0
ENDCHAR
STARTCHAR 04BD
ENCODING 1213
SWIDTH 668 0
DWIDTH 13 0
BBX 12 11 0 0
BITMAP
07C0
0FE0
DC70
DC70
FFF0
7FF0
1C00
1C00
0C70
0FE0
03C0
ENDCHAR
STARTCHAR 04BE
ENCODING 1214
SWIDTH 822 0
DWIDTH 16 0
BBX 16 16 0 -2
BITMAP
01F0
07F8
CFFC
CE0E
DC0E
FFFE
FFFF
7FFE
1C00
0E0E
0F1E
07FC
07FC
01F0
0040
0040
ENDCHAR
STARTCHAR 04BF
ENCODING 1215
SWIDTH 668 0
DWIDTH 13 0
BBX 12 13 0 -2
BITMAP
07C0
0FE0
DC70
DC70
FFF0
7FF0
1C00
1C70
1C70
0FE0
07C0
0180
0180
ENDCHAR
STARTCHAR 04C0
ENCODING 1216
SWIDTH 257 0
DWIDTH 5 0
BBX 3 14 1 0
BITMAP
E0
E0
E0
E0
E0
E0
E0
E0
E0
E0
E0
E0
E0
E0
ENDCHAR
STARTCHAR 04C1
ENCODING 1217
SWIDTH 874 0
DWIDTH 17 0
BBX 17 17 0 0
BITMAP
022000
01E000
000000
E1C380
F1C780
39CE00
19CC00
1DDC00
0DDC00
0FF800
0FF800
1DDC00
3DCE00
39CE00
79C700
71C700
F1C380
ENDCHAR
STARTCHAR 04C2
ENCODING 1218
SWIDTH 668 0
DWIDTH 13 0
BBX 13 14 0 0
BITMAP
08C0
0780
0000
E738
F738
3770
3F60
1FE0
1FE0
3F60
7770
7730
6738
E718
ENDCHAR
STARTCHAR 04C3
ENCODING 1219
SWIDTH 668 0
DWIDTH 13 0
BBX 11 18 1 -4
BITMAP
E1C0
E3C0
E300
E700
E600
EE00
FF00
FFC0
E1E0
E0E0
E0E0
E0E0
E0E0
E0E0
00E0
F3C0
7FC0
1F00
ENDCHAR
STARTCHAR 04C4
ENCODING 1220
SWIDTH 565 0
DWIDTH 11 0
BBX 10 15 1 -4
BITMAP
E700
E700
EE00
EC00
FF00
FF80
E380
E1C0
E1C0
E1C0
E1C0
01C0
E380
7F80
3E00
ENDCHAR
STARTCHAR 04C5
ENCODING 1221
SWIDTH 668 0
DWIDTH 13 0
BBX 13 17 0 -3
BITMAP
3FF0
3FF0
3FF0
3870
3870
3870
3870
3870
3870
3870
3870
F878
F878
F078
0030
0030
0030
ENDCHAR
STARTCHAR 04C6
ENCODING 1222
SWIDTH 617 0
DWIDTH 12 0
BBX 12 14 0 -3
BITMAP
3FE0
3FE0
38E0
38E0
38E0
38E0
38E0
38E0
38E0
F0F0
F0F0
0060
0060
00E0
ENDCHAR
STARTCHAR 04C7
ENCODING 1223
SWIDTH 720 0
DWIDTH 14 0
BBX 11 18 1 -4
BITMAP
E060
E060
E060
E060
E060
FFE0
FFE0
FFE0
E060
E060
E060
E060
E0E0
E0E0
00E0
F3C0
7FC0
1F00
ENDCHAR
STARTCHAR 04C8
ENCODING 1224
SWIDTH 565 0
DWIDTH 11 0
BBX 9 15 1 -4
BITMAP
E180
E180
E180
E180
FF80
FF80
E180
E180
E180
E180
E180
0380
E380
7F00
3E00
ENDCHAR
STARTCHAR 04C9
ENCODING 1225
SWIDTH 720 0
DWIDTH 14 0
BBX 13 17 1 -3
BITMAP
E060
E060
E060
E060
E060
FFE0
FFE0
FFE0
E060
E060
E060
E078
E070
E070
0030
0060
0060
ENDCHAR
STARTCHAR 04CA
ENCODING 1226
SWIDTH 565 0
DWIDTH 11 0
BBX 10 14 1 -3
BITMAP
E180
E180
E180
E180
FF80
FF80
E180
E180
E180
E1C0
E1C0
00C0
0180
0180
ENDCHAR
STARTCHAR 04CB
ENCODING 1227
SWIDTH 668 0
DWIDTH 13 0
BBX 11 17 1 -3
BITMAP
E0E0
E0E0
E0E0
E0E0
E0E0
E0E0
FFE0
7FE0
3FE0
00E0
00E0
01E0
01E0
01E0
0180
0180
0180
ENDCHAR
STARTCHAR 04CC
ENCODING 1228
SWIDTH 565 0
DWIDTH 11 0
BBX 9 14 1 -3
BITMAP
E380
E380
E380
E380
E380
7F80
3F80
0380
0380
0780
0780
0600
0600
0600
ENDCHAR
STARTCHAR 04CD
ENCODING 1229
SWIDTH 822 0
DWIDTH 16 0
BBX 15 17 1 -3
BITMAP
F878
F878
F878
F8F8
FCF8
ECD8
ECD8
EDD8
EFD8
EF98
E798
E79E
E79E
E71C
000C
001C
0018
ENDCHAR
STARTCHAR 04CE
ENCODING 1230
SWIDTH 720 0
DWIDTH 14 0
BBX 13 14 1 -3
BITMAP
F0F0
F0F0
F0F0
F9F0
F9B0
F9B0
EDB0
EF30
EF30
EF38
E638
0030
0030
0070
ENDCHAR
STARTCHAR 04CF
ENCODING 1231
SWIDTH 257 0
DWIDTH 5 0
BBX 3 14 1 0
BITMAP
E0
E0
E0
E0
E0
E0
E0
E0
E0
E0
E0
E0
E0
E0
ENDCHAR
STARTCHAR 04D0
ENCODING 1232
SWIDTH 720 0
DWIDTH 14 0
BBX 13 17 0 0
BITMAP
08C0
0780
0000
0700
0780
0F80
0FC0
0DC0
1CC0
18E0
38E0
3FF0
3FF0
7FF0
7038
6038
E038
ENDCHAR
STARTCHAR 04D1
ENCODING 1233
SWIDTH 565 0
DWIDTH 11 0
BBX 9 14 1 0
BITMAP
6600
3C00
0000
3E00
7F00
E300
0F00
7F00
F300
C300
C300
E700
FF00
7B80
ENDCHAR
STARTCHAR 04D2
ENCODING 1234
SWIDTH 720 0
DWIDTH 14 0
BBX 13 17 0 0
BITMAP
0CC0
0CC0
0000
0700
0780
0F80
0FC0
0DC0
1CC0
18E0
38E0
3FF0
3FF0
7FF0
7038
6038
E038
ENDCHAR
STARTCHAR 04D3
ENCODING 1235
SWIDTH 565 0
DWIDTH 11 0
BBX 9 14 1 0
BITMAP
7700
7700
0000
3E00
7F00
E300
0F00
7F00
F300
C300
C300
E700
FF00
7B80
ENDCHAR
STARTCHAR 04D4
ENCODING 1236
SWIDTH 977 0
DWIDTH 19 0
BBX 19 14 -1 0
BITMAP
03FFE0
03FFE0
077FE0
077000
067000
0E7FC0
0C7FC0
1C7FC0
1FF000
3FF000
3FF000
707FE0
707FE0
E07FE0
ENDCHAR
STARTCHAR 04D5
ENCODING 1237
SWIDTH 874 0
DWIDTH 17 0
BBX 15 11 1 0
BITMAP
3EF8
7FFC
E38C
038E
0FFE
7FFE
F300
C380
E78E
FFFC
7CF8
ENDCHAR
STARTCHAR 04D6
ENCODING 1238
SWIDTH 668 0
DWIDTH 13 0
BBX 11 17 1 0
BITMAP
1100
0E00
0000
FFC0
FFC0
FFC0
E000
E000
FFC0
FFC0
FFC0
E000
E000
E000
FFE0
FFE0
FFE0
ENDCHAR
STARTCHAR 04D7
ENCODING 1239
SWIDTH 565 0
DWIDTH 11 0
BBX 9 14 1 0
BITMAP
6200
3C00
0000
3C00
7F00
E300
C380
FF80
FF80
C000
E000
E300
7F00
3E00
ENDCHAR
STARTCHAR 04D8
ENCODING 1240
SWIDTH 720 0
DWIDTH 14 0
BBX 12 14 1 0
BITMAP
1F00
3FC0
7FE0
F0E0
6070
0070
FFF0
FFF0
FFF0
E070
F0E0
7FE0
3FC0
1F00
ENDCHAR
STARTCHAR 04D9
ENCODING 1241
SWIDTH 565 0
DWIDTH 11 0
BBX 9 11 1 0
BITMAP
3E00
7F00
E700
E380
0380
FF80
FF80
C380
E300
7F00
3E00
ENDCHAR
STARTCHAR 04DA
ENCODING 1242
SWIDTH 720 0
DWIDTH 14 0
BBX 12 17 1 0
BITMAP
1980
1980
0000
1F00
3FC0
7FE0
F0E0
6070
0070
FFF0
FFF0
FFF0
E070
F0E0
7FE0
3FC0
1F00
ENDCHAR
STARTCHAR 04DB
ENCODING 1243
SWIDTH 565 0
DWIDTH 11 0
BBX 9 14 1 0
BITMAP
6600
6600
0000
3E00
7F00
E700
E380
0380
FF80
FF80
C380
E300
7F00
3E00
ENDCHAR
STARTCHAR 04DC
ENCODING 1244
SWIDTH 874 0
DWIDTH 17 0
BBX 17 17 0 0
BITMAP
033000
033000
000000
E1C380
F1C780
39CE00
19CC00
1DDC00
0DDC00
0FF800
0FF800
1DDC00
3DCE00
39CE00
79C700
71C700
F1C380
ENDCHAR
STARTCHAR 04DD
ENCODING 1245
SWIDTH 668 0
DWIDTH 13 0
BBX 13 14 0 0
BITMAP
0CC0
0CC0
0000
E738
F738
3770
3F60
1FE0
1FE0
3F60
7770
7730
6738
E718
ENDCHAR
STARTCHAR 04DE
ENCODING 1246
SWIDTH 617 0
DWIDTH 12 0
BBX 10 17 1 0
BITMAP
7700
7700
0000
3E00
7F80
FF80
E380
4180
0380
0E00
0F80
03C0
41C0
E3C0
FFC0
7F80
3F00
ENDCHAR
STARTCHAR 04DF
ENCODING 1247
SWIDTH 462 0
DWIDTH 9 0
BBX 9 14 0 0
BITMAP
7700
7700
0000
3E00
7F00
2300
0300
0E00
0F00
0300
0380
6380
FF00
3E00
ENDCHAR
STARTCHAR 04E0
ENCODING 1248
SWIDTH 617 0
DWIDTH 12 0
BBX 10 14 1 0
BITMAP
FFC0
FFC0
FFC0
0380
0E00
0F00
0F80
03C0
01C0
41C0
E3C0
FF80
7F80
3E00
ENDCHAR
STARTCHAR 04E1
ENCODING 1249
SWIDTH 514 0
DWIDTH 10 0
BBX 10 15 0 -4
BITMAP
7F80
7F80
0380
0700
0E00
1F00
1F80
0380
01C0
01C0
01C0
E180
7380
7F00
3E00
ENDCHAR
STARTCHAR 04E2
ENCODING 1250
SWIDTH 720 0
DWIDTH 14 0
BBX 11 17 1 0
BITMAP
1F80
1F80
0000
E0E0
E0E0
E1E0
E3E0
E3E0
E760
E760
EE60
FC60
FC60
F860
F860
F060
E060
ENDCHAR
STARTCHAR 04E3
ENCODING 1251
SWIDTH 617 0
DWIDTH 12 0
BBX 9 14 1 0
BITMAP
3F00
3F00
0000
E180
E380
E780
E780
ED80
ED80
F980
F980
F180
F180
E180
ENDCHAR
STARTCHAR 04E4
ENCODING 1252
SWIDTH 720 0
DWIDTH 14 0
BBX 11 17 1 0
BITMAP
1980
1980
0000
E0E0
E0E0
E1E0
E3E0
E3E0
E760
E760
EE60
FC60
FC60
F860
F860
F060
E060
ENDCHAR
STARTCHAR 04E5
ENCODING 1253
SWIDTH 617 0
DWIDTH 12 0
BBX 9 14 1 0
BITMAP
3300
3300
0000
E180
E380
E780
E780
ED80
ED80
F980
F980
F180
F180
E180
ENDCHAR
STARTCHAR 04E6
ENCODING 1254
SWIDTH 771 0
DWIDTH 15 0
BBX 13 17 1 0
BITMAP
1DC0
1DC0
0000
0F80
3FE0
7FF0
7070
E038
E038
E038
E038
E038
E038
F0F0
7FF0
3FE0
0F80
ENDCHAR
STARTCHAR 04E7
ENCODING 1255
SWIDTH 617 0
DWIDTH 12 0
BBX 10 14 1 0
BITMAP
3300
3300
0000
1E00
7F00
F380
E1C0
E1C0
C1C0
E1C0
E1C0
F380
7F00
1E00
ENDCHAR
STARTCHAR 04E8
ENCODING 1256
SWIDTH 771 0
DWIDTH 15 0
BBX 13 14 1 0
BITMAP
0F80
3FE0
7FF0
F070
E038
FFF8
FFF8
FFF8
E038
E038
F0F0
7FF0
3FE0
0F80
ENDCHAR
STARTCHAR 04E9
ENCODING 1257
SWIDTH 617 0
DWIDTH 12 0
BBX 10 11 1 0
BITMAP
1E00
7F00
E380
E1C0
FFC0
FFC0
E1C0
E1C0
F380
7F00
1E00
ENDCHAR
STARTCHAR 04EA
ENCODING 1258
SWIDTH 771 0
DWIDTH 15 0
BBX 13 17 1 0
BITMAP
1DC0
1DC0
0000
0F80
3FE0
7FF0
F070
E038
FFF8
FFF8
FFF8
E038
E038
F0F0
7FF0
3FE0
0F80
ENDCHAR
STARTCHAR 04EB
ENCODING 1259
SWIDTH 617 0
DWIDTH 12 0
BBX 10 14 1 0
BITMAP
3300
3300
0000
1E00
7F00
E380
E1C0
FFC0
FFC0
E1C0
E1C0
F380
7F00
1E00
ENDCHAR
STARTCHAR 04EC
ENCODING 1260
SWIDTH 720 0
DWIDTH 14 0
BBX 12 17 1 0
BITMAP
3300
3300
0000
1F00
7FC0
FFC0
F0E0
6060
07F0
07F0
07F0
0070
60E0
F1E0
FFC0
7FC0
1F00
ENDCHAR
STARTCHAR 04ED
ENCODING 1261
SWIDTH 565 0
DWIDTH 11 0
BBX 9 14 1 0
BITMAP
6600
6600
0000
7C00
FF00
6700
0380
1F80
1F80
0380
0380
4700
FF00
7C00
ENDCHAR
STARTCHAR 04EE
ENCODING 1262
SWIDTH 617 0
DWIDTH 12 0
BBX 12 17 0 0
BITMAP
1F80
1F80
0000
E070
70E0
70E0
39C0
39C0
1D80
0F80
0F80
0700
0700
0E00
3E00
3C00
3800
ENDCHAR
STARTCHAR 04EF
ENCODING 1263
SWIDTH 565 0
DWIDTH 11 0
BBX 10 18 0 -4
BITMAP
3F00
3F00
0000
E1C0
61C0
7180
7180
3380
3B00
3B00
1F00
1E00
1E00
0E00
0C00
1C00
7C00
7800
ENDCHAR
STARTCHAR 04F0
ENCODING 1264
SWIDTH 617 0
DWIDTH 12 0
BBX 12 17 0 0
BITMAP
1980
1980
0000
E070
70E0
70E0
39C0
39C0
1D80
0F80
0F80
0700
0700
0E00
3E00
3C00
3800
ENDCHAR
STARTCHAR 04F1
ENCODING 1265
SWIDTH 565 0
DWIDTH 11 0
BBX 10 18 0 -4
BITMAP
3300
3300
0000
E1C0
61C0
7180
7180
3380
3B00
3B00
1F00
1E00
1E00
0E00
0C00
1C00
7C00
7800
ENDCHAR
STARTCHAR 04F2
ENCODING 1266
SWIDTH 617 0
DWIDTH 12 0
BBX 12 18 0 0
BITMAP
0EC0
0D80
1980
0000
E070
70E0
70E0
39C0
39C0
1D80
0F80
0F80
0700
0700
0E00
3E00
3C00
3800
ENDCHAR
STARTCHAR 04F3
ENCODING 1267
SWIDTH 565 0
DWIDTH 11 0
BBX 10 19 0 -4
BITMAP
1D80
1980
1300
0000
E1C0
61C0
7180
7180
3380
3B00
3B00
1F00
1E00
1E00
0E00
0C00
1C00
7C00
7800
ENDCHAR
STARTCHAR 04F4
ENCODING 1268
SWIDTH 668 0
DWIDTH 13 0
BBX 11 17 1 0
BITMAP
3B80
3B80
0000
E0E0
E0E0
E0E0
E0E0
E0E0
E0E0
FFE0
7FE0
3FE0
00E0
00E0
00E0
00E0
00E0
ENDCHAR
STARTCHAR 04F5
ENCODING 1269
SWIDTH 565 0
DWIDTH 11 0
BBX 9 14 1 0
BITMAP
7700
7700
0000
E380
E380
E380
E380
E380
7F80
3F80
0380
0380
0380
0380
ENDCHAR
STARTCHAR 04F6
ENCODING 1270
SWIDTH 565 0
DWIDTH 11 0
BBX 9 17 2 -3
BITMAP
FF80
FF80
FF80
C000
C000
C000
C000
C000
C000
C000
C000
E000
E000
E000
6000
6000
6000
ENDCHAR
STARTCHAR 04F7
ENCODING 1271
SWIDTH 411 0
DWIDTH 8 0
BBX 7 14 1 -3
BITMAP
FE
FE
E0
E0
E0
E0
E0
E0
E0
F0
F0
30
30
30
ENDCHAR
STARTCHAR 04F8
ENCODING 1272
SWIDTH 977 0
DWIDTH 19 0
BBX 16 17 1 0
BITMAP
0660
0660
0000
E007
E007
E007
E007
E007
E007
FFC7
FFE7
FFF7
E077
E077
FFF7
FFE7
FFC7
ENDCHAR
STARTCHAR 04F9
ENCODING 1273
SWIDTH 822 0
DWIDTH 16 0
BBX 14 14 1 0
BITMAP
0CC0
0CC0
0000
E01C
E01C
E01C
E01C
FF1C
FF9C
E1DC
E1DC
E1DC
FF9C
FF1C
ENDCHAR
STARTCHAR 04FA
ENCODING 1274
SWIDTH 565 0
DWIDTH 11 0
BBX 11 18 0 -4
BITMAP
3FE0
3FE0
3FE0
3000
3000
3000
FE00
FE00
3000
3000
3000
3800
3800
3800
1800
1800
1800
7000
ENDCHAR
STARTCHAR 04FB
ENCODING 1275
SWIDTH 411 0
DWIDTH 8 0
BBX 8 15 0 -4
BITMAP
7F
7F
70
70
FC
FC
70
70
70
70
78
18
18
18
70
ENDCHAR
STARTCHAR 04FC
ENCODING 1276
SWIDTH 668 0
DWIDTH 13 0
BBX 13 18 0 -4
BITMAP
7070
78E0
39E0
1DC0
1F80
0F80
0700
0F00
0F80
1FC0
3DC0
38E0
70F0
F070
0038
0038
00F0
00F0
ENDCHAR
STARTCHAR 04FD
ENCODING 1277
SWIDTH 565 0
DWIDTH 11 0
BBX 10 15 0 -4
BITMAP
71C0
7380
3F80
3F00
1E00
0E00
1E00
3F00
3B80
7380
E1C0
00C0
00C0
03C0
0380
ENDCHAR
STARTCHAR 04FE
ENCODING 1278
SWIDTH 668 0
DWIDTH 13 0
BBX 12 14 0 0
BITMAP
7070
78E0
39E0
1DC0
1FC0
0F80
3FE0
3FE0
0F80
1FC0
3DC0
38E0
70F0
F070
ENDCHAR
STARTCHAR 04FF
ENCODING 1279
SWIDTH 565 0
DWIDTH 11 0
BBX 10 11 0 0
BITMAP
71C0
7380
3F00
1F00
7FC0
7FC0
1F00
3F00
3B80
7380
E1C0
ENDCHAR
STARTCHAR 0500
ENCODING 1280
SWIDTH 720 0
DWIDTH 14 0
BBX 11 14 1 0
BITMAP
00E0
00E0
00E0
00E0
00E0
00E0
3FE0
7FE0
FFE0
E0E0
E0E0
FFE0
7FE0
3FE0
ENDCHAR
STARTCHAR 0501
ENCODING 1281
SWIDTH 617 0
DWIDTH 12 0
BBX 9 14 1 0
BITMAP
0180
0180
0180
3D80
7F80
E380
E180
C180
C180
E180
E180
E380
7F80
3D80
ENDCHAR
STARTCHAR 0502
ENCODING 1282
SWIDTH 1028 0
DWIDTH 20 0
BBX 17 14 1 0
BITMAP
00E000
00E000
00E000
00E000
00E000
00E180
3FE180
7FE180
FFE180
E0E180
E0F380
FFFF80
7FFF00
3F1E00
ENDCHAR
STARTCHAR 0503
ENCODING 1283
SWIDTH 925 0
DWIDTH 18 0
BBX 16 14 1 0
BITMAP
0180
0180
0180
3D80
7F80
E380
E180
C187
C187
E187
E1C6
E3CE
7EFE
3C78
ENDCHAR
STARTCHAR 0504
ENCODING 1284
SWIDTH 925 0
DWIDTH 18 0
BBX 16 14 1 0
BITMAP
3E00
7F80
FF80
E380
4180
0383
0E03
0F83
01C3
01C3
01C7
01C7
00FE
007C
ENDCHAR
STARTCHAR 0505
ENCODING 1285
SWIDTH 822 0
DWIDTH 16 0
BBX 14 11 1 0
BITMAP
7C00
FE00
C600
0600
1C1C
1E1C
071C
071C
0718
03F8
01F0
ENDCHAR
STARTCHAR 0506
ENCODING 1286
SWIDTH 668 0
DWIDTH 13 0
BBX 11 17 1 -3
BITMAP
3E00
7F80
FF80
E380
4180
0380
0E00
0F80
03C0
01C0
01C0
01E0
01E0
01E0
0060
0060
0060
ENDCHAR
STARTCHAR 0507
ENCODING 1287
SWIDTH 514 0
DWIDTH 10 0
BBX 9 14 1 -3
BITMAP
7C00
FE00
C600
0600
1C00
1E00
0600
0700
0700
0780
0780
0180
0180
0180
ENDCHAR
STARTCHAR 0508
ENCODING 1288
SWIDTH 977 0
DWIDTH 19 0
BBX 18 14 0 0
BITMAP
3FF000
3FF000
3FF000
387000
387000
3870C0
3870C0
3870C0
3870C0
3870C0
3871C0
F871C0
F83F80
F01F00
ENDCHAR
STARTCHAR 0509
ENCODING 1289
SWIDTH 925 0
DWIDTH 18 0
BBX 17 11 0 0
BITMAP
3FE000
3FE000
38E000
38E000
38E380
38E380
38E380
38E380
386380
F07F00
F03E00
ENDCHAR
STARTCHAR 050A
ENCODING 1290
SWIDTH 1028 0
DWIDTH 20 0
BBX 18 14 1 0
BITMAP
E06000
E06000
E06000
E06000
E06000
FFE1C0
FFE1C0
FFE1C0
E061C0
E06180
E06180
E07380
E07F80
E01E00
ENDCHAR
STARTCHAR 050B
ENCODING 1291
SWIDTH 925 0
DWIDTH 18 0
BBX 15 11 1 0
BITMAP
E180
E180
E180
E180
FF86
FF86
E186
E186
E1CE
E0FC
E078
ENDCHAR
STARTCHAR 050C
ENCODING 1292
SWIDTH 771 0
DWIDTH 15 0
BBX 13 14 1 0
BITMAP
0FC0
3FE0
7FF0
7070
E030
E000
E000
E1F8
E1F8
E1F0
7070
7FF0
3FE0
0F80
ENDCHAR
STARTCHAR 050D
ENCODING 1293
SWIDTH 565 0
DWIDTH 11 0
BBX 9 11 1 0
BITMAP
1F00
7F80
F380
E000
E000
C780
E780
E180
E380
7F00
3E00
ENDCHAR
STARTCHAR 050E
ENCODING 1294
SWIDTH 771 0
DWIDTH 15 0
BBX 13 14 0 0
BITMAP
FFE0
FFE0
FFE0
0E00
0E00
0E18
0E18
0E18
0E18
0E18
0618
0738
07F0
03E0
ENDCHAR
STARTCHAR 050F
ENCODING 1295
SWIDTH 668 0
DWIDTH 13 0
BBX 12 11 0 0
BITMAP
FF80
FF80
1C00
1C00
1C30
1C30
1C30
0C70
0E70
0FE0
03C0
ENDCHAR
STARTCHAR 0510
ENCODING 1296
SWIDTH 617 0
DWIDTH 12 0
BBX 10 14 1 0
BITMAP
1F00
7F80
7FC0
71C0
6180
7000
1C00
7C00
E000
E080
E1C0
FFC0
7F80
3F00
ENDCHAR
STARTCHAR 0511
ENCODING 1297
SWIDTH 462 0
DWIDTH 9 0
BBX 8 11 1 0
BITMAP
3C
FE
E7
E0
70
70
E0
C0
E7
FF
3C
ENDCHAR
STARTCHAR 0512
ENCODING 1298
SWIDTH 668 0
DWIDTH 13 0
BBX 12 18 0 -4
BITMAP
3FF0
3FF0
3FF0
3870
3870
3870
3870
3870
3870
3870
3870
3870
F870
F070
0070
0070
01F0
01E0
ENDCHAR
STARTCHAR 0513
ENCODING 1299
SWIDTH 617 0
DWIDTH 12 0
BBX 11 15 0 -4
BITMAP
3FE0
3FE0
38E0
38E0
38E0
38E0
38E0
38E0
38E0
F0E0
F0E0
00E0
00E0
03C0
03C0
ENDCHAR
STARTCHAR 051A
ENCODING 1306
SWIDTH 771 0
DWIDTH 15 0
BBX 13 15 1 -1
BITMAP
0F80
3FE0
7FF0
F070
E038
E038
E038
E038
E338
E3F8
F1F0
7FF0
3FF0
0FB8
0018
ENDCHAR
STARTCHAR 051B
ENCODING 1307
SWIDTH 617 0
DWIDTH 12 0
BBX 9 15 1 -4
BITMAP
3D80
7F80
E380
E180
E180
E180
E180
E180
E380
7F80
3D80
0180
0180
0180
0180
ENDCHAR
STARTCHAR 051C
ENCODING 1308
SWIDTH 925 0
DWIDTH 18 0
BBX 18 14 0 0
BITMAP
E1E1C0
E1E1C0
61E180
71F380
73F380
737380
333300
373B00
3F3F00
3E1F00
1E1E00
1E1E00
1E1E00
1C0E00
ENDCHAR
STARTCHAR 051D
ENCODING 1309
SWIDTH 771 0
DWIDTH 15 0
BBX 15 11 0 0
BITMAP
E38E
638C
638C
779C
76D8
36D8
36F8
3EF8
3CF0
1C70
1C70
ENDCHAR
STARTCHAR 0591
ENCODING 1425
SWIDTH 0 0
DWIDTH 0 0
BBX 4 3 -2 -4
BITMAP
40
60
90
ENDCHAR
STARTCHAR 0592
ENCODING 1426
SWIDTH 0 0
DWIDTH 0 0
BBX 6 2 -3 12
BITMAP
30
CC
ENDCHAR
STARTCHAR 0593
ENCODING 1427
SWIDTH 0 0
DWIDTH 0 0
BBX 2 6 -1 12
BITMAP
40
80
40
80
40
80
ENDCHAR
STARTCHAR 0594
ENCODING 1428
SWIDTH 0 0
DWIDTH 0 0
BBX 2 3 -1 12
BITMAP
C0
00
C0
ENDCHAR
STARTCHAR 0595
ENCODING 1429
SWIDTH 0 0
DWIDTH 0 0
BBX 4 3 -2 12
BITMAP
B0
80
B0
ENDCHAR
STARTCHAR 0596
ENCODING 1430
SWIDTH 0 0
DWIDTH 0 0
BBX 4 3 -2 -4
BITMAP
80
40
70
ENDCHAR
STARTCHAR 0597
ENCODING 1431
SWIDTH 0 0
DWIDTH 0 0
BBX 2 3 -1 12
BITMAP
80
C0
80
ENDCHAR
STARTCHAR 0598
ENCODING 1432
SWIDTH 0 0
DWIDTH 0 0
BBX 6 3 -3 12
BITMAP
68
B4
98
ENDCHAR
STARTCHAR 0599
ENCODING 1433
SWIDTH 0 0
DWIDTH 0 0
BBX 3 4 -3 12
BITMAP
C0
60
20
20
ENDCHAR
STARTCHAR 059A
ENCODING 1434
SWIDTH 0 0
DWIDTH 0 0
BBX 2 3 0 -4
BITMAP
40
80
40
ENDCHAR
STARTCHAR 059B
ENCODING 1435
SWIDTH 0 0
DWIDTH 0 0
BBX 4 3 -2 -4
BITMAP
D0
20
E0
ENDCHAR
STARTCHAR 059C
ENCODING 1436
SWIDTH 0 0
DWIDTH 0 0
BBX 4 4 -2 12
BITMAP
30
40
80
80
ENDCHAR
STARTCHAR 059D
ENCODING 1437
SWIDTH 0 0
DWIDTH 0 0
BBX 3 4 0 12
BITMAP
60
C0
80
80
ENDCHAR
STARTCHAR 059E
ENCODING 1438
SWIDTH 0 0
DWIDTH 0 0
BBX 6 4 -3 12
BITMAP
6C
98
90
90
ENDCHAR
STARTCHAR 059F
ENCODING 1439
SWIDTH 0 0
DWIDTH 0 0
BBX 12 5 -6 12
BITMAP
70E0
9090
9090
79E0
0900
ENDCHAR
STARTCHAR 05A0
ENCODING 1440
SWIDTH 0 0
DWIDTH 0 0
BBX 5 5 0 12
BITMAP
30
48
48
70
80
ENDCHAR
STARTCHAR 05A1
ENCODING 1441
SWIDTH 0 0
DWIDTH 0 0
BBX 2 4 -1 12
BITMAP
C0
C0
C0
80
ENDCHAR
STARTCHAR 05A2
ENCODING 1442
SWIDTH 0 0
DWIDTH 0 0
BBX 4 3 -2 -4
BITMAP
90
60
40
ENDCHAR
STARTCHAR 05A3
ENCODING 1443
SWIDTH 0 0
DWIDTH 0 0
BBX 2 3 -1 -4
BITMAP
40
40
C0
ENDCHAR
STARTCHAR 05A4
ENCODING 1444
SWIDTH 0 0
DWIDTH 0 0
BBX 2 3 -1 -4
BITMAP
40
80
40
ENDCHAR
STARTCHAR 05A5
ENCODING 1445
SWIDTH 0 0
DWIDTH 0 0
BBX 4 3 -2 -4
BITMAP
10
20
E0
ENDCHAR
STARTCHAR 05A6
ENCODING 1446
SWIDTH 0 0
DWIDTH 0 0
BBX 6 3 -3 -4
BITMAP
24
24
D8
ENDCHAR
STARTCHAR 05A7
ENCODING 1447
SWIDTH 0 0
DWIDTH 0 0
BBX 2 4 -1 -4
BITMAP
C0
80
40
C0
ENDCHAR
STARTCHAR 05A8
ENCODING 1448
SWIDTH 0 0
DWIDTH 0 0
BBX 4 4 -2 12
BITMAP
C0
20
20
10
ENDCHAR
STARTCHAR 05A9
ENCODING 1449
SWIDTH 0 0
DWIDTH 0 0
BBX 5 5 -5 12
BITMAP
70
90
90
70
08
ENDCHAR
STARTCHAR 05AA
ENCODING 1450
SWIDTH 0 0
DWIDTH 0 0
BBX 4 3 -2 -4
BITMAP
90
60
40
ENDCHAR
STARTCHAR 05AB
ENCODING 1451
SWIDTH 0 0
DWIDTH 0 0
BBX 2 3 -1 12
BITMAP
40
80
40
ENDCHAR
STARTCHAR 05AC
ENCODING 1452
SWIDTH 0 0
DWIDTH 0 0
BBX 2 3 -1 12
BITMAP
40
40
C0
ENDCHAR
STARTCHAR 05AD
ENCODING 1453
SWIDTH 0 0
DWIDTH 0 0
BBX 3 3 0 -4
BITMAP
80
80
60
ENDCHAR
STARTCHAR 05AE
ENCODING 1454
SWIDTH 0 0
DWIDTH 0 0
BBX 6 3 -6 12
BITMAP
64
94
5C
ENDCHAR
STARTCHAR 05AF
ENCODING 1455
SWIDTH 0 0
DWIDTH 0 0
BBX 2 3 -1 12
BITMAP
C0
C0
C0
ENDCHAR
STARTCHAR 05B0
ENCODING 1456
SWIDTH 0 0
DWIDTH 0 0
BBX 2 3 2 -4
BITMAP
C0
00
C0
ENDCHAR
STARTCHAR 05B1
ENCODING 1457
SWIDTH 0 0
DWIDTH 0 0
BBX 6 3 0 -4
BITMAP
FC
00
6C
ENDCHAR
STARTCHAR 05B2
ENCODING 1458
SWIDTH 0 0
DWIDTH 0 0
BBX 6 3 0 -4
BITMAP
FC
00
0C
ENDCHAR
STARTCHAR 05B3
ENCODING 1459
SWIDTH 0 0
DWIDTH 0 0
BBX 6 3 0 -4
BITMAP
FC
60
0C
ENDCHAR
STARTCHAR 05B4
ENCODING 1460
SWIDTH 0 0
DWIDTH 0 0
BBX 2 1 2 -3
BITMAP
C0
ENDCHAR
STARTCHAR 05B5
ENCODING 1461
SWIDTH 0 0
DWIDTH 0 0
BBX 4 1 1 -3
BITMAP
D0
ENDCHAR
STARTCHAR 05B6
ENCODING 1462
SWIDTH 0 0
DWIDTH 0 0
BBX 4 3 1 -4
BITMAP
D0
00
60
ENDCHAR
STARTCHAR 05B7
ENCODING 1463
SWIDTH 0 0
DWIDTH 0 0
BBX 4 1 1 -3
BITMAP
F0
ENDCHAR
STARTCHAR 05B8
ENCODING 1464
SWIDTH 0 0
DWIDTH 0 0
BBX 4 3 1 -4
BITMAP
F0
20
20
ENDCHAR
STARTCHAR 05B9
ENCODING 1465
SWIDTH 0 0
DWIDTH 0 0
BBX 2 1 2 12
BITMAP
C0
ENDCHAR
STARTCHAR 05BA
ENCODING 1466
SWIDTH 0 0
DWIDTH 0 0
BBX 1 1 -2 12
BITMAP
80
ENDCHAR
STARTCHAR 05BB
ENCODING 1467
SWIDTH 0 0
DWIDTH 0 0
BBX 6 3 0 -4
BITMAP
C0
30
04
ENDCHAR
STARTCHAR 05BC
ENCODING 1468
SWIDTH 0 0
DWIDTH 0 0
BBX 2 1 2 5
BITMAP
C0
ENDCHAR
STARTCHAR 05BD
ENCODING 1469
SWIDTH 0 0
DWIDTH 0 0
BBX 1 3 3 -4
BITMAP
80
80
80
ENDCHAR
STARTCHAR 05BE
ENCODING 1470
SWIDTH 411 0
DWIDTH 8 0
BBX 6 2 1 9
BITMAP
FC
FC
ENDCHAR
STARTCHAR 05BF
ENCODING 1471
SWIDTH 0 0
DWIDTH 0 0
BBX 4 1 1 12
BITMAP
F0
ENDCHAR
STARTCHAR 05C0
ENCODING 1472
SWIDTH 308 0
DWIDTH 6 0
BBX 2 14 2 -2
BITMAP
C0
C0
C0
C0
C0
C0
C0
C0
C0
C0
C0
C0
C0
C0
ENDCHAR
STARTCHAR 05C1
ENCODING 1473
SWIDTH 0 0
DWIDTH 0 0
BBX 2 1 7 12
BITMAP
C0
ENDCHAR
STARTCHAR 05C2
ENCODING 1474
SWIDTH 0 0
DWIDTH 0 0
BBX 1 1 -2 12
BITMAP
80
ENDCHAR
STARTCHAR 05C3
ENCODING 1475
SWIDTH 308 0
DWIDTH 6 0
BBX 2 11 2 0
BITMAP
C0
C0
C0
00
00
00
00
00
C0
C0
C0
ENDCHAR
STARTCHAR 05C4
ENCODING 1476
SWIDTH 0 0
DWIDTH 0 0
BBX 2 1 2 12
BITMAP
C0
ENDCHAR
STARTCHAR 05C5
ENCODING 1477
SWIDTH 0 0
DWIDTH 0 0
BBX 2 1 -1 -3
BITMAP
C0
ENDCHAR
STARTCHAR 05C6
ENCODING 1478
SWIDTH 360 0
DWIDTH 7 0
BBX 6 11 1 0
BITMAP
3C
78
E0
E0
E0
E0
E0
E0
E0
FC
FC
ENDCHAR
STARTCHAR 05C7
ENCODING 1479
SWIDTH 0 0
DWIDTH 0 0
BBX 4 4 -2 -5
BITMAP
F0
60
60
60
ENDCHAR
STARTCHAR 05D0
ENCODING 1488
SWIDTH 565 0
DWIDTH 11 0
BBX 10 11 1 0
BITMAP
E180
7180
7180
3B80
7F00
7F00
EE00
E700
E700
C380
C3C0
ENDCHAR
STARTCHAR 05D1
ENCODING 1489
SWIDTH 565 0
DWIDTH 11 0
BBX 10 11 1 0
BITMAP
F800
FE00
0E00
0700
0700
0700
0700
0700
0700
FFC0
FFC0
ENDCHAR
STARTCHAR 05D2
ENCODING 1490
SWIDTH 462 0
DWIDTH 9 0
BBX 8 11 0 0
BITMAP
3C
3E
0E
0E
0E
0E
1E
3E
77
67
E7
ENDCHAR
STARTCHAR 05D3
ENCODING 1491
SWIDTH 514 0
DWIDTH 10 0
BBX 10 11 0 0
BITMAP
FFC0
FFC0
0300
0300
0300
0300
0300
0300
0300
0300
0300
ENDCHAR
STARTCHAR 05D4
ENCODING 1492
SWIDTH 617 0
DWIDTH 12 0
BBX 10 11 1 0
BITMAP
FE00
FF00
0380
0180
0180
E1C0
E1C0
E1C0
E1C0
E1C0
E1C0
ENDCHAR
STARTCHAR 05D5
ENCODING 1493
SWIDTH 257 0
DWIDTH 5 0
BBX 3 11 1 0
BITMAP
E0
E0
E0
E0
E0
E0
E0
E0
E0
E0
E0
ENDCHAR
STARTCHAR 05D6
ENCODING 1494
SWIDTH 411 0
DWIDTH 8 0
BBX 7 11 1 0
BITMAP
FE
FE
38
30
70
70
70
30
30
30
30
ENDCHAR
STARTCHAR 05D7
ENCODING 1495
SWIDTH 617 0
DWIDTH 12 0
BBX 9 11 1 0
BITMAP
FE00
FF00
E380
E180
E180
E180
E180
E180
E180
E180
E180
ENDCHAR
STARTCHAR 05D8
ENCODING 1496
SWIDTH 617 0
DWIDTH 12 0
BBX 10 11 1 0
BITMAP
E700
EF80
E9C0
E1C0
E1C0
E1C0
E1C0
E1C0
7380
3F80
1E00
ENDCHAR
STARTCHAR 05D9
ENCODING 1497
SWIDTH 257 0
DWIDTH 5 0
BBX 3 7 1 4
BITMAP
E0
E0
E0
E0
E0
E0
E0
ENDCHAR
STARTCHAR 05DA
ENCODING 1498
SWIDTH 514 0
DWIDTH 10 0
BBX 9 15 0 -4
BITMAP
FC00
7F00
0700
0380
0380
0380
0380
0380
0380
0380
0380
0380
0380
0380
0380
ENDCHAR
STARTCHAR 05DB
ENCODING 1499
SWIDTH 462 0
DWIDTH 9 0
BBX 8 11 1 0
BITMAP
F8
FC
0E
0E
07
07
07
0E
0E
FC
F8
ENDCHAR
STARTCHAR 05DC
ENCODING 1500
SWIDTH 462 0
DWIDTH 9 0
BBX 7 14 1 0
BITMAP
C0
C0
C0
FE
FE
06
06
06
0E
0E
1C
1C
1C
1C
ENDCHAR
STARTCHAR 05DD
ENCODING 1501
SWIDTH 617 0
DWIDTH 12 0
BBX 9 11 1 0
BITMAP
FE00
FF00
E380
E180
E180
E180
E180
E180
E180
FF80
FF80
ENDCHAR
STARTCHAR 05DE
ENCODING 1502
SWIDTH 617 0
DWIDTH 12 0
BBX 10 11 1 0
BITMAP
CF00
DF80
F980
71C0
71C0
71C0
61C0
61C0
E1C0
E7C0
E7C0
ENDCHAR
STARTCHAR 05DF
ENCODING 1503
SWIDTH 257 0
DWIDTH 5 0
BBX 3 15 1 -4
BITMAP
E0
E0
E0
E0
E0
E0
E0
E0
E0
E0
E0
E0
E0
E0
E0
ENDCHAR
STARTCHAR 05E0
ENCODING 1504
SWIDTH 360 0
DWIDTH 7 0
BBX 5 11 1 0
BITMAP
F0
F8
38
18
18
18
18
18
18
F8
F8
ENDCHAR
STARTCHAR 05E1
ENCODING 1505
SWIDTH 617 0
DWIDTH 12 0
BBX 10 11 1 0
BITMAP
1E00
7F00
E380
E1C0
E1C0
C1C0
C1C0
E1C0
E380
7F00
1E00
ENDCHAR
STARTCHAR 05E2
ENCODING 1506
SWIDTH 514 0
DWIDTH 10 0
BBX 9 12 0 -1
BITMAP
7180
7180
7180
3180
3180
3180
3980
3B80
3F00
1E00
FC00
E000
ENDCHAR
STARTCHAR 05E3
ENCODING 1507
SWIDTH 565 0
DWIDTH 11 0
BBX 9 15 1 -4
BITMAP
FE00
FF00
C380
C380
C380
E180
F180
7180
0180
0180
0180
0180
0180
0180
0180
ENDCHAR
STARTCHAR 05E4
ENCODING 1508
SWIDTH 565 0
DWIDTH 11 0
BBX 9 11 1 0
BITMAP
FC00
FF00
E780
E380
E180
7180
7180
0380
8780
FF00
7C00
ENDCHAR
STARTCHAR 05E5
ENCODING 1509
SWIDTH 462 0
DWIDTH 9 0
BBX 9 15 0 -4
BITMAP
E380
7380
7300
3300
3B00
1F00
1E00
1C00
1C00
1C00
1C00
1C00
1C00
1C00
1C00
ENDCHAR
STARTCHAR 05E6
ENCODING 1510
SWIDTH 514 0
DWIDTH 10 0
BBX 9 11 0 0
BITMAP
E380
7380
7380
3B80
1B00
1F00
0E00
0E00
0700
7F00
7F00
ENDCHAR
STARTCHAR 05E7
ENCODING 1511
SWIDTH 565 0
DWIDTH 11 0
BBX 9 15 1 -4
BITMAP
FF80
FF80
0380
0380
0380
E380
E700
E700
E600
E600
E600
E000
E000
E000
E000
ENDCHAR
STARTCHAR 05E8
ENCODING 1512
SWIDTH 514 0
DWIDTH 10 0
BBX 9 11 0 0
BITMAP
FC00
7F00
0700
0380
0380
0380
0380
0380
0380
0380
0380
ENDCHAR
STARTCHAR 05E9
ENCODING 1513
SWIDTH 720 0
DWIDTH 14 0
BBX 12 11 1 0
BITMAP
C670
CE70
CE70
EE70
FC60
F860
E060
60E0
71C0
3FC0
1F00
ENDCHAR
STARTCHAR 05EA
ENCODING 1514
SWIDTH 668 0
DWIDTH 13 0
BBX 11 11 1 0
BITMAP
FF00
FFC0
31C0
30C0
30E0
30E0
30E0
30E0
30E0
F0E0
F0E0
ENDCHAR
STARTCHAR 05F0
ENCODING 1520
SWIDTH 514 0
DWIDTH 10 0
BBX 8 11 1 0
BITMAP
E7
E7
E7
E7
E7
E7
E7
E7
E7
E7
E7
ENDCHAR
STARTCHAR 05F1
ENCODING 1521
SWIDTH 514 0
DWIDTH 10 0
BBX 8 11 1 0
BITMAP
E7
E7
E7
E7
E7
E7
E7
07
07
07
07
ENDCHAR
STARTCHAR 05F2
ENCODING 1522
SWIDTH 514 0
DWIDTH 10 0
BBX 8 7 1 4
BITMAP
E7
E7
E7
E7
E7
E7
E7
ENDCHAR
STARTCHAR 05F3
ENCODING 1523
SWIDTH 257 0
DWIDTH 5 0
BBX 3 4 1 7
BITMAP
60
E0
C0
C0
ENDCHAR
STARTCHAR 05F4
ENCODING 1524
SWIDTH 514 0
DWIDTH 10 0
BBX 8 4 1 7
BITMAP
67
E6
CE
CC
ENDCHAR
STARTCHAR 0600
ENCODING 1536
SWIDTH 720 0
DWIDTH 14 0
BBX 12 7 1 -4
BITMAP
0020
0020
0030
0020
FFF0
FFF0
FFF0
ENDCHAR
STARTCHAR 0601
ENCODING 1537
SWIDTH 1285 0
DWIDTH 25 0
BBX 24 5 1 -4
BITMAP
808000
8E40FE
FFFFFF
F3FFFE
E3BF84
ENDCHAR
STARTCHAR 0602
ENCODING 1538
SWIDTH 720 0
DWIDTH 14 0
BBX 13 7 1 -4
BITMAP
7000
F000
9000
9000
FFF8
FFF8
7FF8
ENDCHAR
STARTCHAR 0603
ENCODING 1539
SWIDTH 822 0
DWIDTH 16 0
BBX 17 7 -1 -4
BITMAP
000F00
041F00
043100
0CE180
FFFF80
FFFF80
F3FF80
ENDCHAR
STARTCHAR 060B
ENCODING 1547
SWIDTH 308 0
DWIDTH 6 0
BBX 7 17 -1 -2
BITMAP
08
1C
0C
00
0C
1C
1E
16
1E
FE
FE
FE
00
18
18
18
18
ENDCHAR
STARTCHAR 060C
ENCODING 1548
SWIDTH 308 0
DWIDTH 6 0
BBX 3 5 2 4
BITMAP
80
80
C0
E0
C0
ENDCHAR
STARTCHAR 060D
ENCODING 1549
SWIDTH 257 0
DWIDTH 5 0
BBX 5 7 0 -1
BITMAP
18
38
78
60
40
80
80
ENDCHAR
STARTCHAR 060E
ENCODING 1550
SWIDTH 617 0
DWIDTH 12 0
BBX 13 7 -1 3
BITMAP
3000
7800
C800
8800
FFF8
7FF8
3FF8
ENDCHAR
STARTCHAR 060F
ENCODING 1551
SWIDTH 514 0
DWIDTH 10 0
BBX 10 15 0 -4
BITMAP
1C00
3E00
6000
6000
6100
7F00
3F00
3800
6F00
5F80
F040
6040
7F80
7F80
9F00
ENDCHAR
STARTCHAR 0610
ENCODING 1552
SWIDTH 0 0
DWIDTH 0 0
BBX 4 2 -2 14
BITMAP
B0
F0
ENDCHAR
STARTCHAR 0611
ENCODING 1553
SWIDTH 0 0
DWIDTH 0 0
BBX 4 4 -2 13
BITMAP
30
40
70
80
ENDCHAR
STARTCHAR 0612
ENCODING 1554
SWIDTH 0 0
DWIDTH 0 0
BBX 6 4 -3 13
BITMAP
04
74
44
98
ENDCHAR
STARTCHAR 0613
ENCODING 1555
SWIDTH 0 0
DWIDTH 0 0
BBX 6 5 -3 13
BITMAP
20
34
F4
84
18
ENDCHAR
STARTCHAR 0614
ENCODING 1556
SWIDTH 0 0
DWIDTH 0 0
BBX 6 2 -3 14
BITMAP
1C
F0
ENDCHAR
STARTCHAR 0615
ENCODING 1557
SWIDTH 0 0
DWIDTH 0 0
BBX 6 6 -3 10
BITMAP
40
20
20
38
24
FC
ENDCHAR
STARTCHAR 061B
ENCODING 1563
SWIDTH 308 0
DWIDTH 6 0
BBX 3 8 1 4
BITMAP
40
80
E0
60
60
00
60
60
ENDCHAR
STARTCHAR 061E
ENCODING 1566
SWIDTH 411 0
DWIDTH 8 0
BBX 7 5 0 3
BITMAP
10
38
74
FE
64
ENDCHAR
STARTCHAR 061F
ENCODING 1567
SWIDTH 360 0
DWIDTH 7 0
BBX 5 11 1 3
BITMAP
70
C8
98
D8
C0
60
20
20
00
60
60
ENDCHAR
STARTCHAR 0621
ENCODING 1569
SWIDTH 462 0
DWIDTH 9 0
BBX 7 9 1 1
BITMAP
3C
78
78
C0
E6
7C
30
60
80
ENDCHAR
STARTCHAR 0622
ENCODING 1570
SWIDTH 257 0
DWIDTH 5 0
BBX 4 14 0 3
BITMAP
D0
30
00
00
20
60
60
20
20
20
20
20
20
20
ENDCHAR
STARTCHAR 0623
ENCODING 1571
SWIDTH 205 0
DWIDTH 4 0
BBX 2 14 1 3
BITMAP
40
80
C0
00
00
40
C0
40
40
40
40
40
40
40
ENDCHAR
STARTCHAR 0624
ENCODING 1572
SWIDTH 462 0
DWIDTH 9 0
BBX 9 14 0 -1
BITMAP
1800
2000
1800
0000
0300
0700
0580
0580
0780
0780
0100
8700
7E00
1C00
ENDCHAR
STARTCHAR 0625
ENCODING 1573
SWIDTH 205 0
DWIDTH 4 0
BBX 2 14 1 0
BITMAP
40
C0
C0
40
40
40
40
40
40
40
00
40
80
C0
ENDCHAR
STARTCHAR 0626
ENCODING 1574
SWIDTH 617 0
DWIDTH 12 0
BBX 10 12 1 -1
BITMAP
2000
4000
61C0
03C0
2240
4400
4780
8780
8080
C380
7F00
7C00
ENDCHAR
STARTCHAR 0627
ENCODING 1575
SWIDTH 205 0
DWIDTH 4 0
BBX 2 10 1 4
BITMAP
40
C0
C0
40
40
40
40
40
40
40
ENDCHAR
STARTCHAR 0628
ENCODING 1576
SWIDTH 617 0
DWIDTH 12 0
BBX 11 10 1 -1
BITMAP
8020
8060
8020
FFE0
FFE0
7FE0
0000
0400
0F00
0200
ENDCHAR
STARTCHAR 0629
ENCODING 1577
SWIDTH 360 0
DWIDTH 7 0
BBX 5 12 1 3
BITMAP
20
B0
F0
80
00
40
70
F8
98
F8
F0
E0
ENDCHAR
STARTCHAR 062A
ENCODING 1578
SWIDTH 617 0
DWIDTH 12 0
BBX 11 10 1 3
BITMAP
0200
0B00
1E00
0800
8020
8060
8020
FFE0
FFE0
7FE0
ENDCHAR
STARTCHAR 062B
ENCODING 1579
SWIDTH 617 0
DWIDTH 12 0
BBX 11 12 1 3
BITMAP
0800
0C00
0E00
0B00
1E00
0800
8020
8060
8020
FFE0
FFE0
7FE0
ENDCHAR
STARTCHAR 062C
ENCODING 1580
SWIDTH 565 0
DWIDTH 11 0
BBX 10 14 1 -4
BITMAP
7F80
FF00
BC00
6000
4000
8800
9E00
8400
8000
C000
E000
FFC0
7F80
1E00
ENDCHAR
STARTCHAR 062D
ENCODING 1581
SWIDTH 565 0
DWIDTH 11 0
BBX 10 14 1 -4
BITMAP
7F80
FF00
BC00
6000
4000
8000
8000
8000
8000
C000
E000
FFC0
7F80
1E00
ENDCHAR
STARTCHAR 062E
ENCODING 1582
SWIDTH 565 0
DWIDTH 11 0
BBX 10 18 1 -4
BITMAP
1000
3C00
0800
0000
7F80
FF00
BC00
6000
4000
8000
8000
8000
8000
C000
E000
FFC0
7F80
1E00
ENDCHAR
STARTCHAR 062F
ENCODING 1583
SWIDTH 360 0
DWIDTH 7 0
BBX 6 8 1 3
BITMAP
10
18
18
08
88
FC
FC
FC
ENDCHAR
STARTCHAR 0630
ENCODING 1584
SWIDTH 360 0
DWIDTH 7 0
BBX 6 12 1 3
BITMAP
60
70
20
00
10
18
18
08
88
FC
FC
FC
ENDCHAR
STARTCHAR 0631
ENCODING 1585
SWIDTH 411 0
DWIDTH 8 0
BBX 8 10 0 -1
BITMAP
02
01
03
01
01
01
03
87
7E
1C
ENDCHAR
STARTCHAR 0632
ENCODING 1586
SWIDTH 411 0
DWIDTH 8 0
BBX 8 14 0 -1
BITMAP
04
0F
02
00
02
01
03
01
01
01
03
87
7E
1C
ENDCHAR
STARTCHAR 0633
ENCODING 1587
SWIDTH 874 0
DWIDTH 17 0
BBX 16 10 1 -1
BITMAP
0080
4085
4189
80FF
80FF
80FB
C180
FF80
FF80
7E00
ENDCHAR
STARTCHAR 0634
ENCODING 1588
SWIDTH 874 0
DWIDTH 17 0
BBX 16 16 1 -1
BITMAP
0008
0018
000C
001E
001E
0010
0080
4085
4189
80FF
80FF
80FB
C180
FF80
FF80
7E00
ENDCHAR
STARTCHAR 0635
ENCODING 1589
SWIDTH 1028 0
DWIDTH 20 0
BBX 19 11 1 -1
BITMAP
0001C0
0083E0
408E20
419820
80FFE0
80FFE0
80FFE0
C18000
FF8000
FF8000
7E0000
ENDCHAR
STARTCHAR 0636
ENCODING 1590
SWIDTH 1028 0
DWIDTH 20 0
BBX 19 15 1 -1
BITMAP
000800
001C00
000400
000000
0001C0
0083E0
408E20
419820
80FFE0
80FFE0
80FFE0
C18000
FF8000
FF8000
7E0000
ENDCHAR
STARTCHAR 0637
ENCODING 1591
SWIDTH 514 0
DWIDTH 10 0
BBX 11 12 -1 3
BITMAP
1000
1C00
3800
1800
1800
09C0
0FE0
0C60
1860
FFE0
FFE0
FFE0
ENDCHAR
STARTCHAR 0638
ENCODING 1592
SWIDTH 514 0
DWIDTH 10 0
BBX 11 12 -1 3
BITMAP
1000
1D00
3BC0
1880
1800
09C0
0FE0
0C60
1860
FFE0
FFE0
FFE0
ENDCHAR
STARTCHAR 0639
ENCODING 1593
SWIDTH 514 0
DWIDTH 10 0
BBX 10 15 0 -4
BITMAP
1C00
3E00
6000
6000
6300
7F00
3F00
3800
6000
4000
C000
6000
7FC0
7F80
1F00
ENDCHAR
STARTCHAR 063A
ENCODING 1594
SWIDTH 514 0
DWIDTH 10 0
BBX 10 19 0 -4
BITMAP
1000
3C00
0800
0000
1C00
3E00
6000
6000
6300
7F00
3F00
3800
6000
4000
C000
6000
7FC0
7F80
1F00
ENDCHAR
STARTCHAR 0640
ENCODING 1600
SWIDTH 205 0
DWIDTH 4 0
BBX 5 3 -1 3
BITMAP
F8
F8
F8
ENDCHAR
STARTCHAR 0641
ENCODING 1601
SWIDTH 720 0
DWIDTH 14 0
BBX 14 11 0 3
BITMAP
0010
003C
0008
0000
001C
403C
4024
403C
FFFC
7FFC
7FFC
ENDCHAR
STARTCHAR 0642
ENCODING 1602
SWIDTH 617 0
DWIDTH 12 0
BBX 12 15 0 -2
BITMAP
0040
0160
01C0
0100
00E0
00E0
0120
21F0
41F0
40F0
4010
E070
FFE0
7FE0
3F80
ENDCHAR
STARTCHAR 0643
ENCODING 1603
SWIDTH 514 0
DWIDTH 10 0
BBX 10 12 0 3
BITMAP
0080
00C0
03C0
04C0
0680
4E40
4240
5C40
C040
FFC0
7FC0
3FC0
ENDCHAR
STARTCHAR 0644
ENCODING 1604
SWIDTH 462 0
DWIDTH 9 0
BBX 9 16 0 -1
BITMAP
0200
0380
0300
0300
0100
0100
0100
2100
4100
4180
8180
8180
C380
FF00
7E00
3C00
ENDCHAR
STARTCHAR 0645
ENCODING 1605
SWIDTH 360 0
DWIDTH 7 0
BBX 7 12 0 -4
BITMAP
18
3C
4E
0E
7E
7E
C0
80
40
40
40
40
ENDCHAR
STARTCHAR 0646
ENCODING 1606
SWIDTH 514 0
DWIDTH 10 0
BBX 9 13 1 -1
BITMAP
0800
1C00
0800
0000
4080
4180
8080
8080
8080
C180
FF80
FF80
7E00
ENDCHAR
STARTCHAR 0647
ENCODING 1607
SWIDTH 360 0
DWIDTH 7 0
BBX 5 7 1 3
BITMAP
40
70
F8
98
F8
F0
E0
ENDCHAR
STARTCHAR 0648
ENCODING 1608
SWIDTH 462 0
DWIDTH 9 0
BBX 9 10 0 -1
BITMAP
0300
0700
0580
0580
0780
0780
0100
8700
7E00
1C00
ENDCHAR
STARTCHAR 0649
ENCODING 1609
SWIDTH 617 0
DWIDTH 12 0
BBX 10 10 1 -1
BITMAP
01C0
03C0
2240
4400
4780
8780
8080
C380
7F00
7C00
ENDCHAR
STARTCHAR 064A
ENCODING 1610
SWIDTH 617 0
DWIDTH 12 0
BBX 10 13 1 -4
BITMAP
01C0
03C0
2240
4400
4780
8780
8080
C380
7F00
7C00
0000
0A00
1E00
ENDCHAR
STARTCHAR 064B
ENCODING 1611
SWIDTH 0 0
DWIDTH 0 0
BBX 3 4 1 13
BITMAP
60
80
60
80
ENDCHAR
STARTCHAR 064C
ENCODING 1612
SWIDTH 0 0
DWIDTH 0 0
BBX 3 3 1 13
BITMAP
20
A0
40
ENDCHAR
STARTCHAR 064D
ENCODING 1613
SWIDTH 0 0
DWIDTH 0 0
BBX 3 4 1 -3
BITMAP
60
80
60
80
ENDCHAR
STARTCHAR 064E
ENCODING 1614
SWIDTH 0 0
DWIDTH 0 0
BBX 3 2 1 13
BITMAP
60
80
ENDCHAR
STARTCHAR 064F
ENCODING 1615
SWIDTH 0 0
DWIDTH 0 0
BBX 3 4 1 13
BITMAP
60
60
20
C0
ENDCHAR
STARTCHAR 0650
ENCODING 1616
SWIDTH 0 0
DWIDTH 0 0
BBX 3 2 1 -1
BITMAP
60
80
ENDCHAR
STARTCHAR 0651
ENCODING 1617
SWIDTH 0 0
DWIDTH 0 0
BBX 3 2 1 14
BITMAP
60
80
ENDCHAR
STARTCHAR 0652
ENCODING 1618
SWIDTH 0 0
DWIDTH 0 0
BBX 2 3 1 13
BITMAP
C0
C0
C0
ENDCHAR
STARTCHAR 0653
ENCODING 1619
SWIDTH 0 0
DWIDTH 0 0
BBX 4 2 0 14
BITMAP
C0
30
ENDCHAR
STARTCHAR 0654
ENCODING 1620
SWIDTH 0 0
DWIDTH 0 0
BBX 2 3 1 14
BITMAP
40
80
C0
ENDCHAR
STARTCHAR 0655
ENCODING 1621
SWIDTH 0 0
DWIDTH 0 0
BBX 2 3 1 -2
BITMAP
40
80
C0
ENDCHAR
STARTCHAR 0656
ENCODING 1622
SWIDTH 0 0
DWIDTH 0 0
BBX 2 4 -1 -3
BITMAP
80
80
80
40
ENDCHAR
STARTCHAR 0657
ENCODING 1623
SWIDTH 0 0
DWIDTH 0 0
BBX 3 4 -2 13
BITMAP
20
C0
40
40
ENDCHAR
STARTCHAR 0658
ENCODING 1624
SWIDTH 0 0
DWIDTH 0 0
BBX 2 1 -1 14
BITMAP
C0
ENDCHAR
STARTCHAR 0659
ENCODING 1625
SWIDTH 0 0
DWIDTH 0 0
BBX 4 1 -2 12
BITMAP
F0
ENDCHAR
STARTCHAR 065A
ENCODING 1626
SWIDTH 0 0
DWIDTH 0 0
BBX 2 2 -1 12
BITMAP
C0
C0
ENDCHAR
STARTCHAR 065B
ENCODING 1627
SWIDTH 0 0
DWIDTH 0 0
BBX 2 2 -1 12
BITMAP
C0
C0
ENDCHAR
STARTCHAR 065C
ENCODING 1628
SWIDTH 0 0
DWIDTH 0 0
BBX 2 2 -1 0
BITMAP
C0
C0
ENDCHAR
STARTCHAR 065D
ENCODING 1629
SWIDTH 0 0
DWIDTH 0 0
BBX 3 4 -2 13
BITMAP
40
40
C0
20
ENDCHAR
STARTCHAR 065E
ENCODING 1630
SWIDTH 0 0
DWIDTH 0 0
BBX 4 4 -2 11
BITMAP
40
30
C0
20
ENDCHAR
STARTCHAR 0660
ENCODING 1632
SWIDTH 565 0
DWIDTH 11 0
BBX 3 5 4 4
BITMAP
80
E0
E0
C0
40
ENDCHAR
STARTCHAR 0661
ENCODING 1633
SWIDTH 565 0
DWIDTH 11 0
BBX 4 10 3 3
BITMAP
40
40
E0
60
30
30
30
10
10
10
ENDCHAR
STARTCHAR 0662
ENCODING 1634
SWIDTH 565 0
DWIDTH 11 0
BBX 6 10 2 3
BITMAP
44
44
FC
7C
38
30
10
10
10
10
ENDCHAR
STARTCHAR 0663
ENCODING 1635
SWIDTH 565 0
DWIDTH 11 0
BBX 8 10 1 3
BITMAP
45
47
FF
7E
30
30
10
10
10
10
ENDCHAR
STARTCHAR 0664
ENCODING 1636
SWIDTH 565 0
DWIDTH 11 0
BBX 5 10 3 3
BITMAP
20
20
40
F0
E0
40
40
F8
F0
70
ENDCHAR
STARTCHAR 0665
ENCODING 1637
SWIDTH 565 0
DWIDTH 11 0
BBX 7 8 2 4
BITMAP
38
3C
7C
4E
C4
FC
FC
70
ENDCHAR
STARTCHAR 0666
ENCODING 1638
SWIDTH 565 0
DWIDTH 11 0
BBX 6 11 2 3
BITMAP
80
F8
F0
F0
10
08
08
0C
0C
0C
04
ENDCHAR
STARTCHAR 0667
ENCODING 1639
SWIDTH 565 0
DWIDTH 11 0
BBX 8 10 1 3
BITMAP
81
43
63
62
24
34
14
18
08
08
ENDCHAR
STARTCHAR 0668
ENCODING 1640
SWIDTH 565 0
DWIDTH 11 0
BBX 7 10 2 3
BITMAP
20
30
30
30
48
4C
CE
C6
86
82
ENDCHAR
STARTCHAR 0669
ENCODING 1641
SWIDTH 565 0
DWIDTH 11 0
BBX 6 11 2 3
BITMAP
30
78
98
F8
F8
78
08
0C
0C
0C
04
ENDCHAR
STARTCHAR 066A
ENCODING 1642
SWIDTH 514 0
DWIDTH 10 0
BBX 8 13 1 2
BITMAP
63
62
06
04
0C
08
18
10
30
20
60
46
C6
ENDCHAR
STARTCHAR 066B
ENCODING 1643
SWIDTH 308 0
DWIDTH 6 0
BBX 2 4 2 1
BITMAP
C0
C0
40
80
ENDCHAR
STARTCHAR 066C
ENCODING 1644
SWIDTH 308 0
DWIDTH 6 0
BBX 3 5 2 4
BITMAP
80
80
C0
E0
C0
ENDCHAR
STARTCHAR 066D
ENCODING 1645
SWIDTH 514 0
DWIDTH 10 0
BBX 6 7 2 7
BITMAP
20
E8
50
FC
70
E8
20
ENDCHAR
STARTCHAR 066E
ENCODING 1646
SWIDTH 617 0
DWIDTH 12 0
BBX 11 6 1 3
BITMAP
8020
8060
8020
FFE0
FFE0
7FE0
ENDCHAR
STARTCHAR 066F
ENCODING 1647
SWIDTH 617 0
DWIDTH 12 0
BBX 12 11 0 -2
BITMAP
00E0
00E0
0120
21F0
41F0
40F0
4010
E070
FFE0
7FE0
3F80
ENDCHAR
STARTCHAR 0670
ENCODING 1648
SWIDTH 0 0
DWIDTH 0 0
BBX 1 4 0 11
BITMAP
80
80
80
80
ENDCHAR
STARTCHAR 0671
ENCODING 1649
SWIDTH 205 0
DWIDTH 4 0
BBX 4 14 0 3
BITMAP
30
F0
80
00
20
60
60
20
20
20
20
20
20
20
ENDCHAR
STARTCHAR 0672
ENCODING 1650
SWIDTH 205 0
DWIDTH 4 0
BBX 3 14 0 3
BITMAP
20
40
E0
00
40
60
60
20
20
20
20
20
20
20
ENDCHAR
STARTCHAR 0673
ENCODING 1651
SWIDTH 205 0
DWIDTH 4 0
BBX 4 15 0 -1
BITMAP
20
60
60
20
20
20
20
20
20
20
00
00
20
40
F0
ENDCHAR
STARTCHAR 0674
ENCODING 1652
SWIDTH 0 0
DWIDTH 0 0
BBX 2 3 1 14
BITMAP
40
80
C0
ENDCHAR
STARTCHAR 0675
ENCODING 1653
SWIDTH 205 0
DWIDTH 4 0
BBX 5 11 1 3
BITMAP
10
60
F8
C0
40
40
40
40
40
40
40
ENDCHAR
STARTCHAR 0676
ENCODING 1654
SWIDTH 462 0
DWIDTH 9 0
BBX 9 14 0 -1
BITMAP
0080
0100
0180
0000
0300
0700
0580
0580
0780
0780
0100
8700
7E00
1C00
ENDCHAR
STARTCHAR 0677
ENCODING 1655
SWIDTH 462 0
DWIDTH 9 0
BBX 9 14 0 -1
BITMAP
0480
0D00
0580
0800
0300
0700
0580
0580
0780
0780
0100
8700
7E00
1C00
ENDCHAR
STARTCHAR 0678
ENCODING 1656
SWIDTH 617 0
DWIDTH 12 0
BBX 11 14 1 -1
BITMAP
0020
0040
0060
0000
01C0
03C0
2240
4400
4780
8780
8080
C380
7F00
7C00
ENDCHAR
STARTCHAR 0679
ENCODING 1657
SWIDTH 617 0
DWIDTH 12 0
BBX 11 13 1 3
BITMAP
0800
0800
0800
0700
0900
1F00
0000
8020
8060
8020
FFE0
FFE0
7FE0
ENDCHAR
STARTCHAR 067A
ENCODING 1658
SWIDTH 617 0
DWIDTH 12 0
BBX 11 12 1 3
BITMAP
0800
0C00
0800
0400
0600
0600
8020
8060
8020
FFE0
FFE0
7FE0
ENDCHAR
STARTCHAR 067B
ENCODING 1659
SWIDTH 617 0
DWIDTH 12 0
BBX 11 13 1 -4
BITMAP
8020
8060
8020
FFE0
FFE0
7FE0
0000
0400
0600
0400
0200
0300
0200
ENDCHAR
STARTCHAR 067C
ENCODING 1660
SWIDTH 617 0
DWIDTH 12 0
BBX 11 12 1 1
BITMAP
0200
0B00
1E00
0800
8020
8060
8020
FFE0
FFE0
7FE0
0A00
0600
ENDCHAR
STARTCHAR 067D
ENCODING 1661
SWIDTH 617 0
DWIDTH 12 0
BBX 11 12 1 3
BITMAP
0200
0E00
1A00
0C00
0600
0600
8020
8060
8020
FFE0
FFE0
7FE0
ENDCHAR
STARTCHAR 067E
ENCODING 1662
SWIDTH 617 0
DWIDTH 12 0
BBX 11 13 1 -4
BITMAP
8020
8060
8020
FFE0
FFE0
7FE0
0000
0200
0B00
0E00
0A00
0700
0200
ENDCHAR
STARTCHAR 067F
ENCODING 1663
SWIDTH 617 0
DWIDTH 12 0
BBX 11 12 1 3
BITMAP
0400
1600
1E00
1B00
0F00
0800
8020
8060
8020
FFE0
FFE0
7FE0
ENDCHAR
STARTCHAR 0680
ENCODING 1664
SWIDTH 617 0
DWIDTH 12 0
BBX 11 13 1 -4
BITMAP
8020
8060
8020
FFE0
FFE0
7FE0
0000
0200
0E00
1B00
0D80
0F00
0400
ENDCHAR
STARTCHAR 0681
ENCODING 1665
SWIDTH 565 0
DWIDTH 11 0
BBX 10 18 1 -4
BITMAP
0C00
0800
0C00
0000
7F80
FF00
BC00
6000
4000
8000
8000
8000
8000
C000
E000
FFC0
7F80
1E00
ENDCHAR
STARTCHAR 0682
ENCODING 1666
SWIDTH 565 0
DWIDTH 11 0
BBX 10 21 1 -4
BITMAP
1000
3000
1000
0800
0C00
0800
0000
7F80
FF00
BC00
6000
4000
8000
8000
8000
8000
C000
E000
FFC0
7F80
1E00
ENDCHAR
STARTCHAR 0683
ENCODING 1667
SWIDTH 565 0
DWIDTH 11 0
BBX 10 14 1 -4
BITMAP
7F80
FF00
BC00
6000
4200
9E00
9A00
8800
8000
C000
E000
FFC0
7F80
1E00
ENDCHAR
STARTCHAR 0684
ENCODING 1668
SWIDTH 565 0
DWIDTH 11 0
BBX 10 14 1 -4
BITMAP
7F80
FF00
BC00
6000
4800
9C00
8800
8400
8600
C400
E000
FFC0
7F80
1E00
ENDCHAR
STARTCHAR 0685
ENCODING 1669
SWIDTH 565 0
DWIDTH 11 0
BBX 10 21 1 -4
BITMAP
1800
1800
0C00
1600
1C00
1000
0000
7F80
FF00
BC00
6000
4000
8000
8000
8000
8000
C000
E000
FFC0
7F80
1E00
ENDCHAR
STARTCHAR 0686
ENCODING 1670
SWIDTH 565 0
DWIDTH 11 0
BBX 10 14 1 -4
BITMAP
7F80
FF00
BC00
6000
4400
9600
9C00
9400
8E00
C400
E000
FFC0
7F80
1E00
ENDCHAR
STARTCHAR 0687
ENCODING 1671
SWIDTH 565 0
DWIDTH 11 0
BBX 10 14 1 -4
BITMAP
7F80
FF00
BC00
6000
4400
9600
9F00
9F00
8D00
C400
E000
FFC0
7F80
1E00
ENDCHAR
STARTCHAR 0688
ENCODING 1672
SWIDTH 360 0
DWIDTH 7 0
BBX 6 15 1 3
BITMAP
40
40
40
78
48
F8
00
10
18
18
08
8C
FC
FC
FC
ENDCHAR
STARTCHAR 0689
ENCODING 1673
SWIDTH 360 0
DWIDTH 7 0
BBX 6 10 1 1
BITMAP
10
18
18
08
88
FC
FC
FC
50
30
ENDCHAR
STARTCHAR 068A
ENCODING 1674
SWIDTH 360 0
DWIDTH 7 0
BBX 6 12 1 -1
BITMAP
10
18
18
08
88
FC
FC
FC
00
20
78
10
ENDCHAR
STARTCHAR 068B
ENCODING 1675
SWIDTH 360 0
DWIDTH 7 0
BBX 6 19 1 -1
BITMAP
40
40
40
78
48
F8
00
10
18
18
08
8C
FC
FC
FC
00
20
78
10
ENDCHAR
STARTCHAR 068C
ENCODING 1676
SWIDTH 360 0
DWIDTH 7 0
BBX 6 13 1 3
BITMAP
10
78
D0
40
00
10
18
18
08
88
FC
FC
FC
ENDCHAR
STARTCHAR 068D
ENCODING 1677
SWIDTH 360 0
DWIDTH 7 0
BBX 6 13 1 -2
BITMAP
10
18
18
08
88
FC
FC
FC
00
10
58
78
40
ENDCHAR
STARTCHAR 068E
ENCODING 1678
SWIDTH 360 0
DWIDTH 7 0
BBX 6 14 1 3
BITMAP
40
60
50
58
F0
40
10
18
18
08
8C
FC
FC
FC
ENDCHAR
STARTCHAR 068F
ENCODING 1679
SWIDTH 360 0
DWIDTH 7 0
BBX 6 14 1 3
BITMAP
20
B0
F0
A0
70
20
10
18
18
08
8C
FC
FC
FC
ENDCHAR
STARTCHAR 0690
ENCODING 1680
SWIDTH 360 0
DWIDTH 7 0
BBX 6 14 1 3
BITMAP
20
B0
F0
D8
78
40
10
18
18
08
8C
FC
FC
FC
ENDCHAR
STARTCHAR 0691
ENCODING 1681
SWIDTH 411 0
DWIDTH 8 0
BBX 8 17 0 -1
BITMAP
08
08
08
0F
09
1F
00
02
01
03
01
01
01
03
87
7E
1C
ENDCHAR
STARTCHAR 0692
ENCODING 1682
SWIDTH 411 0
DWIDTH 8 0
BBX 8 13 0 -1
BITMAP
05
02
00
02
01
03
01
01
01
03
87
7E
1C
ENDCHAR
STARTCHAR 0693
ENCODING 1683
SWIDTH 411 0
DWIDTH 8 0
BBX 9 11 0 -2
BITMAP
0200
0100
0300
0100
0100
0100
0300
8700
7F00
1E80
0300
ENDCHAR
STARTCHAR 0694
ENCODING 1684
SWIDTH 411 0
DWIDTH 8 0
BBX 10 12 0 -3
BITMAP
0200
0100
0300
0100
0100
0100
0300
8700
7E00
1D00
03C0
0080
ENDCHAR
STARTCHAR 0695
ENCODING 1685
SWIDTH 411 0
DWIDTH 8 0
BBX 9 12 0 -3
BITMAP
0200
0100
0300
0100
0100
0100
0300
8700
7E00
1C00
0280
0100
ENDCHAR
STARTCHAR 0696
ENCODING 1686
SWIDTH 411 0
DWIDTH 8 0
BBX 10 12 0 -3
BITMAP
0200
0100
0300
0900
1D00
0900
0300
8700
7E00
1D00
03C0
0080
ENDCHAR
STARTCHAR 0697
ENCODING 1687
SWIDTH 411 0
DWIDTH 8 0
BBX 8 15 0 -1
BITMAP
01
0F
0D
04
00
02
01
03
01
01
01
03
87
7E
1C
ENDCHAR
ENDFONT
